# MagicaVoxel @ Ephtracy

# material
mtllib CrystalRightLeg2X.mtl
usemtl palette

# normals
vn -1 0 0
vn 1 0 0
vn 0 0 1
vn 0 0 -1
vn 0 -1 0
vn 0 1 0

# texcoords
vt 0.779297 0.5
vt 0.802734 0.5
vt 0.806641 0.5
vt 0.810547 0.5
vt 0.837891 0.5
vt 0.841797 0.5
vt 0.888672 0.5
vt 0.892578 0.5

# verts
v -5 24 -4
v -5 24 -12
v -5 25 -9
v -5 25 -10
v -5 26 -9
v -5 26 -10
v -5 26 -11
v -5 27 -9
v -5 27 -10
v -5 27 -11
v -5 29 -8
v -5 29 -9
v -5 29 -10
v -5 29 -11
v -5 29 -12
v -5 30 -9
v -5 30 -10
v -5 30 -11
v -5 30 -12
v -5 31 -9
v -5 31 -10
v -5 31 -11
v -5 32 -8
v -5 32 -9
v -5 32 -10
v -5 33 -9
v -5 33 -10
v -5 33 -11
v -5 34 -9
v -5 34 -10
v -5 34 -11
v -5 34 -12
v -5 35 -9
v -5 35 -10
v -5 35 -11
v -5 35 -12
v -5 36 -10
v -5 36 -11
v -5 40 -4
v -5 40 -12
v -4 24 -12
v -4 24 -13
v -4 29 -12
v -4 30 -12
v -4 32 -12
v -4 32 -13
v -4 34 -12
v -4 34 -13
v -4 34 -14
v -4 35 -12
v -4 35 -13
v -4 35 -14
v -4 40 -12
v -4 40 -13
v -2 33 -13
v -2 33 -15
v -2 34 -13
v -2 34 -14
v -2 34 -15
v 1 32 -13
v 1 32 -14
v 1 32 -15
v 1 33 -13
v 1 33 -14
v 1 33 -15
v 3 31 -13
v 3 31 -14
v 3 32 -13
v 3 32 -14
v 3 33 -14
v 3 33 -15
v 3 34 -14
v 3 34 -15
v 4 32 -14
v 4 32 -15
v 4 33 -14
v 4 33 -15
v 5 30 -12
v 5 30 -13
v 5 31 -12
v 5 31 -13
v 6 32 -12
v 6 32 -13
v 6 33 -12
v 6 33 -13
v 1 33 -14
v 1 33 -15
v 1 34 -14
v 1 34 -15
v 3 32 -14
v 3 32 -15
v 3 33 -14
v 3 33 -15
v 4 24 -12
v 4 24 -13
v 4 25 -12
v 4 25 -13
v 4 26 -12
v 4 26 -13
v 4 28 -12
v 4 28 -13
v 4 29 -12
v 4 29 -13
v 4 30 -12
v 4 30 -13
v 4 31 -12
v 4 31 -13
v 4 34 -12
v 4 34 -13
v 4 35 -12
v 4 35 -13
v 4 36 -12
v 4 37 -12
v 4 37 -13
v 4 38 -12
v 4 38 -13
v 4 39 -12
v 4 39 -13
v 4 40 -12
v 4 40 -13
v 5 24 -4
v 5 24 -8
v 5 24 -9
v 5 24 -10
v 5 24 -12
v 5 25 -10
v 5 25 -12
v 5 26 -8
v 5 26 -9
v 5 26 -10
v 5 26 -12
v 5 27 -9
v 5 27 -10
v 5 27 -11
v 5 28 -9
v 5 28 -10
v 5 28 -11
v 5 28 -12
v 5 29 -8
v 5 29 -10
v 5 29 -11
v 5 29 -12
v 5 30 -8
v 5 30 -9
v 5 31 -9
v 5 31 -10
v 5 32 -10
v 5 32 -11
v 5 32 -12
v 5 32 -13
v 5 33 -9
v 5 33 -10
v 5 33 -11
v 5 33 -12
v 5 33 -13
v 5 33 -14
v 5 33 -15
v 5 34 -9
v 5 34 -10
v 5 34 -12
v 5 34 -13
v 5 34 -14
v 5 34 -15
v 5 35 -10
v 5 35 -11
v 5 35 -13
v 5 35 -14
v 5 36 -10
v 5 36 -11
v 5 36 -12
v 5 37 -11
v 5 37 -12
v 5 38 -11
v 5 38 -12
v 5 40 -4
v 5 40 -12
v 6 28 -10
v 6 28 -11
v 6 29 -8
v 6 29 -9
v 6 29 -10
v 6 29 -11
v 6 30 -8
v 6 30 -9
v 6 30 -10
v 6 31 -9
v 6 31 -10
v 6 32 -14
v 6 32 -15
v 6 33 -13
v 6 33 -14
v 6 33 -15
v 6 34 -13
v 6 34 -14
v 7 29 -11
v 7 29 -12
v 7 30 -11
v 7 30 -12
v 7 31 -10
v 7 31 -11
v 7 32 -10
v 7 32 -11
v 7 32 -13
v 7 32 -14
v 7 33 -13
v 7 33 -14
v 8 29 -9
v 8 29 -10
v 8 29 -11
v 8 30 -9
v 8 30 -10
v 8 30 -11
v 8 30 -12
v 8 30 -13
v 8 31 -10
v 8 31 -11
v 8 31 -12
v 8 31 -13
v 8 31 -14
v 8 32 -11
v 8 32 -12
v 8 32 -13
v 8 32 -14
v 8 33 -12
v 8 33 -13
v 9 30 -11
v 9 30 -12
v 9 31 -11
v 9 31 -12
v -5 24 -4
v -5 40 -4
v 5 24 -4
v 5 40 -4
v 5 29 -8
v 5 30 -8
v 6 29 -8
v 6 30 -8
v 5 30 -9
v 5 31 -9
v 6 29 -9
v 6 30 -9
v 6 31 -9
v 8 29 -9
v 8 30 -9
v 5 28 -10
v 5 29 -10
v 5 31 -10
v 5 32 -10
v 6 28 -10
v 6 29 -10
v 6 30 -10
v 6 31 -10
v 7 31 -10
v 7 32 -10
v 8 30 -10
v 8 31 -10
v 7 31 -11
v 7 32 -11
v 8 30 -11
v 8 31 -11
v 8 32 -11
v 9 30 -11
v 9 31 -11
v 6 32 -12
v 6 33 -12
v 7 32 -12
v 7 33 -12
v 8 32 -12
v 8 33 -12
v 4 34 -13
v 4 35 -13
v 5 32 -13
v 5 33 -13
v 5 34 -13
v 5 35 -13
v 6 32 -13
v 6 33 -13
v 6 34 -13
v 5 28 -11
v 5 29 -11
v 6 28 -11
v 6 29 -11
v 7 29 -11
v 7 30 -11
v 8 29 -11
v 8 30 -11
v -5 24 -12
v -5 29 -12
v -5 30 -12
v -5 34 -12
v -5 35 -12
v -5 40 -12
v -4 24 -12
v -4 29 -12
v -4 30 -12
v -4 32 -12
v -4 34 -12
v -4 35 -12
v -4 40 -12
v 4 24 -12
v 4 25 -12
v 4 26 -12
v 4 28 -12
v 4 29 -12
v 4 30 -12
v 4 31 -12
v 4 34 -12
v 4 35 -12
v 4 36 -12
v 4 37 -12
v 4 38 -12
v 4 39 -12
v 4 40 -12
v 5 24 -12
v 5 25 -12
v 5 26 -12
v 5 28 -12
v 5 29 -12
v 5 30 -12
v 5 31 -12
v 5 34 -12
v 5 36 -12
v 5 37 -12
v 5 38 -12
v 5 40 -12
v 6 30 -12
v 7 29 -12
v 7 30 -12
v 8 30 -12
v 8 31 -12
v 9 30 -12
v 9 31 -12
v -4 24 -13
v -4 32 -13
v -4 34 -13
v -4 35 -13
v -4 40 -13
v -3 32 -13
v -3 34 -13
v -2 33 -13
v -2 34 -13
v -2 35 -13
v -1 35 -13
v 0 35 -13
v 1 32 -13
v 1 33 -13
v 1 35 -13
v 1 37 -13
v 1 38 -13
v 2 26 -13
v 2 27 -13
v 2 28 -13
v 2 29 -13
v 2 35 -13
v 2 36 -13
v 2 37 -13
v 2 38 -13
v 2 39 -13
v 3 24 -13
v 3 25 -13
v 3 26 -13
v 3 27 -13
v 3 28 -13
v 3 29 -13
v 3 30 -13
v 3 31 -13
v 3 32 -13
v 3 35 -13
v 3 36 -13
v 4 24 -13
v 4 25 -13
v 4 26 -13
v 4 28 -13
v 4 29 -13
v 4 30 -13
v 4 31 -13
v 4 35 -13
v 4 37 -13
v 4 38 -13
v 4 39 -13
v 4 40 -13
v 5 30 -13
v 5 31 -13
v 6 30 -13
v 6 31 -13
v 7 30 -13
v 7 31 -13
v 7 32 -13
v 7 33 -13
v 8 30 -13
v 8 31 -13
v 8 32 -13
v 8 33 -13
v -4 34 -14
v -4 35 -14
v -2 34 -14
v -2 35 -14
v -1 34 -14
v -1 35 -14
v 0 34 -14
v 0 35 -14
v 1 33 -14
v 1 34 -14
v 1 35 -14
v 2 33 -14
v 2 34 -14
v 2 35 -14
v 3 31 -14
v 3 32 -14
v 3 33 -14
v 3 34 -14
v 4 32 -14
v 4 33 -14
v 5 31 -14
v 5 32 -14
v 5 33 -14
v 5 34 -14
v 5 35 -14
v 6 31 -14
v 6 32 -14
v 6 33 -14
v 6 34 -14
v 7 31 -14
v 7 32 -14
v 7 33 -14
v 8 31 -14
v 8 32 -14
v -2 33 -15
v -2 34 -15
v -1 33 -15
v -1 34 -15
v 0 33 -15
v 0 34 -15
v 1 32 -15
v 1 33 -15
v 1 34 -15
v 2 32 -15
v 2 33 -15
v 3 32 -15
v 3 33 -15
v 3 34 -15
v 4 32 -15
v 4 33 -15
v 5 32 -15
v 5 33 -15
v 5 34 -15
v 6 32 -15
v 6 33 -15
v -5 24 -4
v 5 24 -4
v 4 24 -8
v 5 24 -8
v 4 24 -9
v 5 24 -9
v 4 24 -10
v 5 24 -10
v -5 24 -12
v -4 24 -12
v 3 24 -12
v 4 24 -12
v 5 24 -12
v -4 24 -13
v 3 24 -13
v 4 24 -13
v 5 28 -10
v 6 28 -10
v 5 28 -11
v 6 28 -11
v 5 29 -8
v 6 29 -8
v 6 29 -9
v 8 29 -9
v 5 29 -10
v 6 29 -10
v 7 29 -10
v 8 29 -10
v 5 29 -11
v 6 29 -11
v 7 29 -11
v 8 29 -11
v 5 29 -12
v 7 29 -12
v 7 30 -11
v 8 30 -11
v 9 30 -11
v 5 30 -12
v 6 30 -12
v 7 30 -12
v 8 30 -12
v 9 30 -12
v 5 30 -13
v 6 30 -13
v 7 30 -13
v 8 30 -13
v 4 31 -12
v 5 31 -12
v 3 31 -13
v 4 31 -13
v 5 31 -13
v 6 31 -13
v 7 31 -13
v 8 31 -13
v 3 31 -14
v 5 31 -14
v 6 31 -14
v 7 31 -14
v 8 31 -14
v 1 32 -13
v 3 32 -13
v 1 32 -14
v 2 32 -14
v 3 32 -14
v 4 32 -14
v 5 32 -14
v 6 32 -14
v 1 32 -15
v 2 32 -15
v 3 32 -15
v 4 32 -15
v 5 32 -15
v 6 32 -15
v -2 33 -13
v 1 33 -13
v -1 33 -14
v 0 33 -14
v 1 33 -14
v 3 33 -14
v 4 33 -14
v -2 33 -15
v -1 33 -15
v 0 33 -15
v 1 33 -15
v 3 33 -15
v 4 33 -15
v -4 34 -13
v -3 34 -13
v -2 34 -13
v -4 34 -14
v -2 34 -14
v 5 30 -8
v 6 30 -8
v 5 30 -9
v 6 30 -9
v 8 30 -9
v 6 30 -10
v 8 30 -10
v 5 31 -9
v 6 31 -9
v 5 31 -10
v 6 31 -10
v 7 31 -10
v 8 31 -10
v 7 31 -11
v 8 31 -11
v 9 31 -11
v 8 31 -12
v 9 31 -12
v 5 32 -10
v 7 32 -10
v 5 32 -11
v 7 32 -11
v 8 32 -11
v 5 32 -12
v 6 32 -12
v 7 32 -12
v 8 32 -12
v 5 32 -13
v 6 32 -13
v 7 32 -13
v 8 32 -13
v 7 32 -14
v 8 32 -14
v 6 33 -12
v 7 33 -12
v 8 33 -12
v 6 33 -13
v 7 33 -13
v 8 33 -13
v 1 33 -14
v 2 33 -14
v 3 33 -14
v 5 33 -14
v 6 33 -14
v 7 33 -14
v 1 33 -15
v 2 33 -15
v 3 33 -15
v 5 33 -15
v 6 33 -15
v 4 34 -12
v 5 34 -12
v 4 34 -13
v 5 34 -13
v 6 34 -13
v -2 34 -14
v -1 34 -14
v 0 34 -14
v 1 34 -14
v 3 34 -14
v 5 34 -14
v 6 34 -14
v -2 34 -15
v -1 34 -15
v 0 34 -15
v 1 34 -15
v 3 34 -15
v 5 34 -15
v -4 35 -13
v -2 35 -13
v -1 35 -13
v 0 35 -13
v 1 35 -13
v 2 35 -13
v 3 35 -13
v 4 35 -13
v 5 35 -13
v -4 35 -14
v -2 35 -14
v -1 35 -14
v 0 35 -14
v 1 35 -14
v 2 35 -14
v 5 35 -14
v -5 40 -4
v 5 40 -4
v -5 40 -12
v -4 40 -12
v 4 40 -12
v 5 40 -12
v -4 40 -13
v 4 40 -13

# faces
f 3/3/1 2/3/1 1/3/1
f 4/3/1 2/3/1 3/3/1
f 5/3/1 3/3/1 1/3/1
f 5/4/1 4/4/1 3/4/1
f 6/3/1 2/3/1 4/3/1
f 6/4/1 4/4/1 5/4/1
f 7/3/1 2/3/1 6/3/1
f 8/3/1 5/3/1 1/3/1
f 8/2/1 6/2/1 5/2/1
f 9/4/1 7/4/1 6/4/1
f 9/2/1 6/2/1 8/2/1
f 10/3/1 2/3/1 7/3/1
f 10/4/1 7/4/1 9/4/1
f 11/3/1 8/3/1 1/3/1
f 12/8/1 9/8/1 8/8/1
f 12/3/1 8/3/1 11/3/1
f 13/2/1 10/2/1 9/2/1
f 13/8/1 9/8/1 12/8/1
f 14/3/1 2/3/1 10/3/1
f 14/2/1 10/2/1 13/2/1
f 15/3/1 2/3/1 14/3/1
f 16/5/1 13/5/1 12/5/1
f 16/4/1 12/4/1 11/4/1
f 17/3/1 14/3/1 13/3/1
f 17/5/1 13/5/1 16/5/1
f 18/4/1 15/4/1 14/4/1
f 18/3/1 14/3/1 17/3/1
f 19/4/1 15/4/1 18/4/1
f 20/1/1 17/1/1 16/1/1
f 20/4/1 16/4/1 11/4/1
f 21/8/1 18/8/1 17/8/1
f 21/1/1 17/1/1 20/1/1
f 22/2/1 19/2/1 18/2/1
f 22/8/1 18/8/1 21/8/1
f 23/3/1 11/3/1 1/3/1
f 23/4/1 20/4/1 11/4/1
f 24/5/1 21/5/1 20/5/1
f 24/4/1 20/4/1 23/4/1
f 25/1/1 22/1/1 21/1/1
f 25/5/1 21/5/1 24/5/1
f 26/3/1 24/3/1 23/3/1
f 26/8/1 25/8/1 24/8/1
f 27/1/1 22/1/1 25/1/1
f 27/8/1 25/8/1 26/8/1
f 28/2/1 19/2/1 22/2/1
f 28/1/1 22/1/1 27/1/1
f 29/2/1 27/2/1 26/2/1
f 29/3/1 26/3/1 23/3/1
f 30/8/1 28/8/1 27/8/1
f 30/2/1 27/2/1 29/2/1
f 31/2/1 19/2/1 28/2/1
f 31/8/1 28/8/1 30/8/1
f 32/2/1 19/2/1 31/2/1
f 33/4/1 30/4/1 29/4/1
f 33/3/1 29/3/1 23/3/1
f 34/2/1 31/2/1 30/2/1
f 34/4/1 30/4/1 33/4/1
f 35/4/1 32/4/1 31/4/1
f 35/2/1 31/2/1 34/2/1
f 36/4/1 32/4/1 35/4/1
f 37/3/1 34/3/1 33/3/1
f 37/4/1 35/4/1 34/4/1
f 38/3/1 36/3/1 35/3/1
f 38/4/1 35/4/1 37/4/1
f 39/3/1 23/3/1 1/3/1
f 39/3/1 33/3/1 23/3/1
f 39/3/1 38/3/1 37/3/1
f 39/3/1 37/3/1 33/3/1
f 40/3/1 36/3/1 38/3/1
f 40/3/1 38/3/1 39/3/1
f 43/3/1 42/3/1 41/3/1
f 44/3/1 42/3/1 43/3/1
f 45/3/1 42/3/1 44/3/1
f 46/3/1 42/3/1 45/3/1
f 47/4/1 46/4/1 45/4/1
f 48/4/1 46/4/1 47/4/1
f 50/3/1 48/3/1 47/3/1
f 51/7/1 49/7/1 48/7/1
f 51/3/1 48/3/1 50/3/1
f 52/7/1 49/7/1 51/7/1
f 53/3/1 51/3/1 50/3/1
f 54/3/1 51/3/1 53/3/1
f 57/7/1 56/7/1 55/7/1
f 58/7/1 56/7/1 57/7/1
f 59/7/1 56/7/1 58/7/1
f 63/7/1 61/7/1 60/7/1
f 64/5/1 62/5/1 61/5/1
f 64/7/1 61/7/1 63/7/1
f 65/5/1 62/5/1 64/5/1
f 68/7/1 67/7/1 66/7/1
f 69/7/1 67/7/1 68/7/1
f 72/1/1 71/1/1 70/1/1
f 73/1/1 71/1/1 72/1/1
f 76/7/1 75/7/1 74/7/1
f 77/7/1 75/7/1 76/7/1
f 80/7/1 79/7/1 78/7/1
f 81/7/1 79/7/1 80/7/1
f 84/7/1 83/7/1 82/7/1
f 85/7/1 83/7/1 84/7/1
f 86/1/2 87/1/2 88/1/2
f 88/1/2 87/1/2 89/1/2
f 90/7/2 91/7/2 92/7/2
f 92/7/2 91/7/2 93/7/2
f 94/4/2 95/4/2 96/4/2
f 96/4/2 95/4/2 97/4/2
f 96/2/2 97/2/2 98/2/2
f 98/2/2 97/2/2 99/2/2
f 98/8/2 99/8/2 100/8/2
f 100/8/2 99/8/2 101/8/2
f 100/2/2 101/2/2 102/2/2
f 102/2/2 101/2/2 103/2/2
f 102/4/2 103/4/2 104/4/2
f 104/4/2 103/4/2 105/4/2
f 104/3/2 105/3/2 106/3/2
f 106/3/2 105/3/2 107/3/2
f 108/2/2 109/2/2 110/2/2
f 110/2/2 109/2/2 111/2/2
f 110/8/2 111/8/2 112/8/2
f 112/8/2 111/8/2 113/8/2
f 113/8/2 111/8/2 114/8/2
f 113/2/2 114/2/2 115/2/2
f 115/2/2 114/2/2 116/2/2
f 115/4/2 116/4/2 117/4/2
f 117/4/2 116/4/2 118/4/2
f 117/3/2 118/3/2 119/3/2
f 119/3/2 118/3/2 120/3/2
f 123/8/2 124/8/2 126/8/2
f 124/4/2 125/4/2 126/4/2
f 126/4/2 125/4/2 127/4/2
f 121/3/2 122/3/2 128/3/2
f 122/4/2 123/4/2 128/4/2
f 123/8/2 126/8/2 129/8/2
f 128/4/2 123/4/2 129/4/2
f 126/2/2 127/2/2 130/2/2
f 129/8/2 126/8/2 130/8/2
f 130/2/2 127/2/2 131/2/2
f 128/3/2 129/3/2 132/3/2
f 129/2/2 130/2/2 132/2/2
f 130/8/2 131/8/2 133/8/2
f 132/2/2 130/2/2 133/2/2
f 133/8/2 131/8/2 134/8/2
f 128/3/2 132/3/2 135/3/2
f 132/4/2 133/4/2 135/4/2
f 133/2/2 134/2/2 136/2/2
f 135/4/2 133/4/2 136/4/2
f 134/8/2 131/8/2 137/8/2
f 136/2/2 134/2/2 137/2/2
f 137/8/2 131/8/2 138/8/2
f 121/3/2 128/3/2 139/3/2
f 135/3/2 136/3/2 139/3/2
f 128/3/2 135/3/2 139/3/2
f 139/3/2 136/3/2 140/3/2
f 137/2/2 138/2/2 141/2/2
f 141/2/2 138/2/2 142/2/2
f 121/3/2 139/3/2 143/3/2
f 143/3/2 144/3/2 145/3/2
f 145/3/2 146/3/2 147/3/2
f 145/3/2 147/3/2 151/3/2
f 143/3/2 145/3/2 151/3/2
f 147/4/2 148/4/2 152/4/2
f 151/3/2 147/3/2 152/3/2
f 148/2/2 149/2/2 153/2/2
f 152/4/2 148/4/2 153/4/2
f 149/7/2 150/7/2 154/7/2
f 153/2/2 149/2/2 154/2/2
f 154/7/2 150/7/2 155/7/2
f 151/4/2 152/4/2 158/4/2
f 143/3/2 151/3/2 158/3/2
f 152/2/2 153/2/2 159/2/2
f 158/4/2 152/4/2 159/4/2
f 154/7/2 155/7/2 160/7/2
f 153/8/2 154/8/2 160/8/2
f 160/7/2 155/7/2 161/7/2
f 156/1/2 157/1/2 162/1/2
f 162/1/2 157/1/2 163/1/2
f 159/2/2 153/2/2 164/2/2
f 158/3/2 159/3/2 164/3/2
f 153/8/2 160/8/2 165/8/2
f 164/2/2 153/2/2 165/2/2
f 161/7/2 162/7/2 166/7/2
f 166/7/2 162/7/2 167/7/2
f 158/3/2 164/3/2 168/3/2
f 164/4/2 165/4/2 168/4/2
f 165/8/2 160/8/2 169/8/2
f 168/4/2 165/4/2 169/4/2
f 169/8/2 160/8/2 170/8/2
f 168/3/2 169/3/2 171/3/2
f 169/2/2 170/2/2 171/2/2
f 171/2/2 170/2/2 172/2/2
f 168/3/2 171/3/2 173/3/2
f 171/4/2 172/4/2 173/4/2
f 173/4/2 172/4/2 174/4/2
f 158/3/2 168/3/2 175/3/2
f 143/3/2 158/3/2 175/3/2
f 173/3/2 174/3/2 175/3/2
f 168/3/2 173/3/2 175/3/2
f 121/3/2 143/3/2 175/3/2
f 175/3/2 174/3/2 176/3/2
f 177/7/2 178/7/2 181/7/2
f 181/7/2 178/7/2 182/7/2
f 179/7/2 180/7/2 183/7/2
f 183/7/2 180/7/2 184/7/2
f 184/6/2 185/6/2 186/6/2
f 186/6/2 185/6/2 187/6/2
f 188/6/2 189/6/2 191/6/2
f 191/6/2 189/6/2 192/6/2
f 190/1/2 191/1/2 193/1/2
f 193/1/2 191/1/2 194/1/2
f 195/7/2 196/7/2 197/7/2
f 197/7/2 196/7/2 198/7/2
f 199/7/2 200/7/2 201/7/2
f 201/7/2 200/7/2 202/7/2
f 203/1/2 204/1/2 205/1/2
f 205/1/2 204/1/2 206/1/2
f 207/7/2 208/7/2 210/7/2
f 208/6/2 209/6/2 211/6/2
f 210/7/2 208/7/2 211/7/2
f 211/6/2 209/6/2 212/6/2
f 211/6/2 212/6/2 215/6/2
f 215/6/2 212/6/2 216/6/2
f 213/6/2 214/6/2 217/6/2
f 217/6/2 214/6/2 218/6/2
f 216/1/2 217/1/2 220/1/2
f 217/1/2 218/1/2 220/1/2
f 220/1/2 218/1/2 221/1/2
f 218/7/2 219/7/2 222/7/2
f 221/1/2 218/1/2 222/1/2
f 222/7/2 219/7/2 223/7/2
f 221/1/2 222/1/2 224/1/2
f 224/1/2 222/1/2 225/1/2
f 226/1/2 227/1/2 228/1/2
f 228/1/2 227/1/2 229/1/2
f 232/3/3 231/3/3 230/3/3
f 233/3/3 231/3/3 232/3/3
f 236/7/3 235/7/3 234/7/3
f 237/7/3 235/7/3 236/7/3
f 241/6/3 239/6/3 238/6/3
f 242/6/3 239/6/3 241/6/3
f 243/7/3 241/7/3 240/7/3
f 244/7/3 241/7/3 243/7/3
f 249/7/3 246/7/3 245/7/3
f 250/7/3 246/7/3 249/7/3
f 252/7/3 248/7/3 247/7/3
f 253/6/3 252/6/3 251/6/3
f 253/7/3 248/7/3 252/7/3
f 254/7/3 248/7/3 253/7/3
f 255/6/3 253/6/3 251/6/3
f 256/6/3 253/6/3 255/6/3
f 260/1/3 258/1/3 257/1/3
f 261/1/3 258/1/3 260/1/3
f 262/1/3 260/1/3 259/1/3
f 263/1/3 260/1/3 262/1/3
f 266/7/3 265/7/3 264/7/3
f 267/7/3 265/7/3 266/7/3
f 268/1/3 267/1/3 266/1/3
f 269/1/3 267/1/3 268/1/3
f 274/7/3 271/7/3 270/7/3
f 275/7/3 271/7/3 274/7/3
f 276/7/3 273/7/3 272/7/3
f 277/1/3 274/1/3 273/1/3
f 277/7/3 273/7/3 276/7/3
f 278/1/3 274/1/3 277/1/3
f 279/7/4 280/7/4 281/7/4
f 281/7/4 280/7/4 282/7/4
f 283/6/4 284/6/4 285/6/4
f 285/6/4 284/6/4 286/6/4
f 287/3/4 288/3/4 293/3/4
f 288/4/4 289/4/4 294/4/4
f 293/3/4 288/3/4 294/3/4
f 289/2/4 290/2/4 295/2/4
f 294/4/4 289/4/4 295/4/4
f 295/2/4 290/2/4 296/2/4
f 290/4/4 291/4/4 297/4/4
f 296/2/4 290/2/4 297/2/4
f 291/3/4 292/3/4 298/3/4
f 297/4/4 291/4/4 298/4/4
f 298/3/4 292/3/4 299/3/4
f 300/4/4 301/4/4 314/4/4
f 301/2/4 302/2/4 315/2/4
f 314/4/4 301/4/4 315/4/4
f 302/8/4 303/8/4 316/8/4
f 315/2/4 302/2/4 316/2/4
f 303/2/4 304/2/4 317/2/4
f 316/8/4 303/8/4 317/8/4
f 304/4/4 305/4/4 318/4/4
f 317/2/4 304/2/4 318/2/4
f 305/3/4 306/3/4 319/3/4
f 318/4/4 305/4/4 319/4/4
f 319/3/4 306/3/4 320/3/4
f 307/8/4 308/8/4 321/8/4
f 308/8/4 309/8/4 321/8/4
f 309/2/4 310/2/4 322/2/4
f 321/8/4 309/8/4 322/8/4
f 310/4/4 311/4/4 323/4/4
f 322/2/4 310/2/4 323/2/4
f 312/3/4 313/3/4 324/3/4
f 323/4/4 311/4/4 324/4/4
f 311/3/4 312/3/4 324/3/4
f 324/3/4 313/3/4 325/3/4
f 318/7/4 319/7/4 326/7/4
f 318/7/4 326/7/4 327/7/4
f 327/7/4 326/7/4 328/7/4
f 329/1/4 330/1/4 331/1/4
f 331/1/4 330/1/4 332/1/4
f 333/3/4 334/3/4 338/3/4
f 334/4/4 335/4/4 338/4/4
f 338/4/4 335/4/4 339/4/4
f 338/3/4 339/3/4 340/3/4
f 340/3/4 339/3/4 341/3/4
f 336/3/4 337/3/4 342/3/4
f 342/3/4 337/3/4 343/3/4
f 343/3/4 337/3/4 344/3/4
f 333/3/4 338/3/4 345/3/4
f 338/3/4 340/3/4 345/3/4
f 345/3/4 340/3/4 346/3/4
f 344/3/4 337/3/4 347/3/4
f 347/3/4 337/3/4 348/3/4
f 348/3/4 337/3/4 349/3/4
f 333/3/4 345/3/4 350/3/4
f 350/3/4 345/3/4 351/3/4
f 351/3/4 345/3/4 352/3/4
f 352/3/4 345/3/4 353/3/4
f 347/4/4 348/4/4 354/4/4
f 354/4/4 348/4/4 355/4/4
f 348/2/4 349/2/4 356/2/4
f 355/4/4 348/4/4 356/4/4
f 349/3/4 337/3/4 357/3/4
f 356/2/4 349/2/4 357/2/4
f 357/3/4 337/3/4 358/3/4
f 333/3/4 350/3/4 359/3/4
f 359/3/4 350/3/4 360/3/4
f 350/4/4 351/4/4 361/4/4
f 360/3/4 350/3/4 361/3/4
f 351/2/4 352/2/4 362/2/4
f 361/4/4 351/4/4 362/4/4
f 352/4/4 353/4/4 363/4/4
f 362/2/4 352/2/4 363/2/4
f 353/3/4 345/3/4 364/3/4
f 363/4/4 353/4/4 364/4/4
f 364/3/4 345/3/4 365/3/4
f 365/3/4 345/3/4 366/3/4
f 366/3/4 345/3/4 367/3/4
f 354/2/4 355/2/4 368/2/4
f 355/8/4 356/8/4 369/8/4
f 368/2/4 355/2/4 369/2/4
f 359/4/4 360/4/4 370/4/4
f 360/2/4 361/2/4 371/2/4
f 370/4/4 360/4/4 371/4/4
f 362/8/4 363/8/4 372/8/4
f 371/2/4 361/2/4 372/2/4
f 361/8/4 362/8/4 372/8/4
f 363/2/4 364/2/4 373/2/4
f 372/8/4 363/8/4 373/8/4
f 364/4/4 365/4/4 374/4/4
f 373/2/4 364/2/4 374/2/4
f 365/3/4 366/3/4 375/3/4
f 374/4/4 365/4/4 375/4/4
f 375/3/4 366/3/4 376/3/4
f 368/8/4 369/8/4 377/8/4
f 369/8/4 356/8/4 378/8/4
f 377/8/4 369/8/4 378/8/4
f 356/2/4 357/2/4 378/2/4
f 357/4/4 358/4/4 379/4/4
f 378/2/4 357/2/4 379/2/4
f 358/3/4 337/3/4 380/3/4
f 379/4/4 358/4/4 380/4/4
f 380/3/4 337/3/4 381/3/4
f 382/7/4 383/7/4 384/7/4
f 384/7/4 383/7/4 385/7/4
f 384/5/4 385/5/4 386/5/4
f 386/5/4 385/5/4 387/5/4
f 386/6/4 387/6/4 390/6/4
f 390/6/4 387/6/4 391/6/4
f 388/1/4 389/1/4 392/1/4
f 392/1/4 389/1/4 393/1/4
f 394/7/4 395/7/4 396/7/4
f 396/7/4 395/7/4 397/7/4
f 396/6/4 397/6/4 398/6/4
f 398/6/4 397/6/4 399/6/4
f 398/7/4 399/7/4 400/7/4
f 400/7/4 399/7/4 401/7/4
f 400/1/4 401/1/4 403/1/4
f 403/1/4 401/1/4 404/1/4
f 402/1/4 403/1/4 405/1/4
f 403/6/4 404/6/4 406/6/4
f 405/1/4 403/1/4 406/1/4
f 406/6/4 404/6/4 407/6/4
f 405/1/4 406/1/4 410/1/4
f 406/7/4 407/7/4 411/7/4
f 410/1/4 406/1/4 411/1/4
f 408/7/4 409/7/4 412/7/4
f 409/5/4 410/5/4 412/5/4
f 412/5/4 410/5/4 413/5/4
f 408/7/4 412/7/4 414/7/4
f 414/7/4 412/7/4 415/7/4
f 411/7/4 407/7/4 417/7/4
f 417/7/4 407/7/4 418/7/4
f 414/5/4 415/5/4 419/5/4
f 419/5/4 415/5/4 420/5/4
f 416/1/4 417/1/4 421/1/4
f 421/1/4 417/1/4 422/1/4
f 419/6/4 420/6/4 423/6/4
f 420/1/4 421/1/4 424/1/4
f 423/6/4 420/6/4 424/6/4
f 424/1/4 421/1/4 425/1/4
f 423/7/4 424/7/4 426/7/4
f 426/7/4 424/7/4 427/7/4
f 428/7/4 429/7/4 430/7/4
f 430/7/4 429/7/4 431/7/4
f 430/6/4 431/6/4 432/6/4
f 432/6/4 431/6/4 433/6/4
f 432/1/4 433/1/4 435/1/4
f 435/1/4 433/1/4 436/1/4
f 434/5/4 435/5/4 437/5/4
f 437/5/4 435/5/4 438/5/4
f 437/7/4 438/7/4 439/7/4
f 439/7/4 438/7/4 440/7/4
f 440/1/4 441/1/4 443/1/4
f 442/7/4 443/7/4 444/7/4
f 443/1/4 441/1/4 445/1/4
f 444/7/4 443/7/4 445/7/4
f 445/1/4 441/1/4 446/1/4
f 444/6/4 445/6/4 447/6/4
f 447/6/4 445/6/4 448/6/4
f 451/3/5 450/3/5 449/3/5
f 452/3/5 450/3/5 451/3/5
f 453/3/5 451/3/5 449/3/5
f 453/4/5 452/4/5 451/4/5
f 454/4/5 452/4/5 453/4/5
f 455/3/5 453/3/5 449/3/5
f 455/8/5 454/8/5 453/8/5
f 456/8/5 454/8/5 455/8/5
f 457/3/5 455/3/5 449/3/5
f 458/3/5 455/3/5 457/3/5
f 459/3/5 455/3/5 458/3/5
f 460/4/5 456/4/5 455/4/5
f 460/3/5 455/3/5 459/3/5
f 461/4/5 456/4/5 460/4/5
f 462/3/5 459/3/5 458/3/5
f 463/4/5 460/4/5 459/4/5
f 463/3/5 459/3/5 462/3/5
f 464/4/5 460/4/5 463/4/5
f 467/7/5 466/7/5 465/7/5
f 468/7/5 466/7/5 467/7/5
f 471/7/5 470/7/5 469/7/5
f 473/7/5 471/7/5 469/7/5
f 473/7/5 472/7/5 471/7/5
f 474/7/5 472/7/5 473/7/5
f 475/7/5 472/7/5 474/7/5
f 476/7/5 472/7/5 475/7/5
f 478/7/5 475/7/5 474/7/5
f 479/6/5 476/6/5 475/6/5
f 479/7/5 475/7/5 478/7/5
f 480/6/5 476/6/5 479/6/5
f 481/7/5 478/7/5 477/7/5
f 481/7/5 479/7/5 478/7/5
f 482/7/5 479/7/5 481/7/5
f 488/7/5 484/7/5 483/7/5
f 489/1/5 485/1/5 484/1/5
f 489/7/5 484/7/5 488/7/5
f 490/1/5 485/1/5 489/1/5
f 491/7/5 487/7/5 486/7/5
f 492/5/5 488/5/5 487/5/5
f 492/7/5 487/7/5 491/7/5
f 493/6/5 489/6/5 488/6/5
f 493/5/5 488/5/5 492/5/5
f 494/6/5 489/6/5 493/6/5
f 498/7/5 496/7/5 495/7/5
f 499/7/5 496/7/5 498/7/5
f 503/7/5 498/7/5 497/7/5
f 503/7/5 499/7/5 498/7/5
f 504/5/5 500/5/5 499/5/5
f 504/7/5 499/7/5 503/7/5
f 505/6/5 501/6/5 500/6/5
f 505/5/5 500/5/5 504/5/5
f 506/7/5 502/7/5 501/7/5
f 506/6/5 501/6/5 505/6/5
f 507/7/5 502/7/5 506/7/5
f 510/7/5 509/7/5 508/7/5
f 511/7/5 509/7/5 510/7/5
f 512/7/5 509/7/5 511/7/5
f 516/5/5 511/5/5 510/5/5
f 517/7/5 512/7/5 511/7/5
f 517/5/5 511/5/5 516/5/5
f 518/7/5 512/7/5 517/7/5
f 519/7/5 514/7/5 513/7/5
f 520/6/5 515/6/5 514/6/5
f 520/7/5 514/7/5 519/7/5
f 521/6/5 515/6/5 520/6/5
f 524/7/5 523/7/5 522/7/5
f 525/7/5 523/7/5 524/7/5
f 526/7/5 523/7/5 525/7/5
f 529/7/5 524/7/5 522/7/5
f 530/6/5 525/6/5 524/6/5
f 530/7/5 524/7/5 529/7/5
f 531/1/5 526/1/5 525/1/5
f 531/6/5 525/6/5 530/6/5
f 532/1/5 526/1/5 531/1/5
f 533/1/5 528/1/5 527/1/5
f 534/1/5 528/1/5 533/1/5
f 538/7/5 536/7/5 535/7/5
f 538/7/5 537/7/5 536/7/5
f 539/7/5 537/7/5 538/7/5
f 540/7/6 541/7/6 542/7/6
f 542/7/6 541/7/6 543/7/6
f 543/7/6 544/7/6 545/7/6
f 545/7/6 544/7/6 546/7/6
f 547/6/6 548/6/6 549/6/6
f 549/6/6 548/6/6 550/6/6
f 551/6/6 552/6/6 553/6/6
f 553/6/6 552/6/6 554/6/6
f 554/1/6 555/1/6 556/1/6
f 556/1/6 555/1/6 557/1/6
f 558/7/6 559/7/6 560/7/6
f 560/7/6 559/7/6 561/7/6
f 560/7/6 561/7/6 563/7/6
f 563/7/6 561/7/6 564/7/6
f 561/1/6 562/1/6 565/1/6
f 564/7/6 561/7/6 565/7/6
f 565/1/6 562/1/6 566/1/6
f 563/7/6 564/7/6 567/7/6
f 567/7/6 564/7/6 568/7/6
f 569/7/6 570/7/6 571/7/6
f 571/7/6 570/7/6 572/7/6
f 573/7/6 574/7/6 576/7/6
f 574/1/6 575/1/6 577/1/6
f 576/7/6 574/7/6 577/7/6
f 577/1/6 575/1/6 578/1/6
f 576/1/6 577/1/6 583/1/6
f 583/1/6 577/1/6 584/1/6
f 579/5/6 580/5/6 585/5/6
f 580/7/6 581/7/6 586/7/6
f 585/5/6 580/5/6 586/5/6
f 586/7/6 581/7/6 587/7/6
f 582/6/6 583/6/6 588/6/6
f 588/6/6 583/6/6 589/6/6
f 590/7/6 591/7/6 592/7/6
f 592/7/6 591/7/6 593/7/6
f 593/1/6 594/1/6 600/1/6
f 600/1/6 594/1/6 601/1/6
f 595/7/6 596/7/6 602/7/6
f 596/6/6 597/6/6 603/6/6
f 602/7/6 596/7/6 603/7/6
f 597/1/6 598/1/6 604/1/6
f 603/6/6 597/6/6 604/6/6
f 604/1/6 598/1/6 605/1/6
f 599/1/6 600/1/6 606/1/6
f 606/1/6 600/1/6 607/1/6
f 608/7/6 609/7/6 617/7/6
f 609/6/6 610/6/6 618/6/6
f 617/7/6 609/7/6 618/7/6
f 610/7/6 611/7/6 619/7/6
f 618/6/6 610/6/6 619/6/6
f 611/1/6 612/1/6 620/1/6
f 619/7/6 611/7/6 620/7/6
f 612/6/6 613/6/6 621/6/6
f 620/1/6 612/1/6 621/1/6
f 615/7/6 616/7/6 622/7/6
f 621/6/6 613/6/6 622/6/6
f 613/7/6 614/7/6 622/7/6
f 614/7/6 615/7/6 622/7/6
f 622/7/6 616/7/6 623/7/6
f 624/3/6 625/3/6 626/3/6
f 626/3/6 625/3/6 627/3/6
f 627/3/6 625/3/6 628/3/6
f 628/3/6 625/3/6 629/3/6
f 627/3/6 628/3/6 630/3/6
f 630/3/6 628/3/6 631/3/6
