# MagicaVoxel @ Ephtracy

# material
mtllib CrystalLeftLeg2X.mtl
usemtl palette

# normals
vn -1 0 0
vn 1 0 0
vn 0 0 1
vn 0 0 -1
vn 0 -1 0
vn 0 1 0

# texcoords
vt 0.779297 0.5
vt 0.802734 0.5
vt 0.806641 0.5
vt 0.810547 0.5
vt 0.837891 0.5
vt 0.841797 0.5
vt 0.888672 0.5
vt 0.892578 0.5

# verts
v -5 24 12
v -5 24 4
v -5 25 10
v -5 25 9
v -5 26 11
v -5 26 10
v -5 26 9
v -5 27 11
v -5 27 10
v -5 27 9
v -5 29 12
v -5 29 11
v -5 29 10
v -5 29 9
v -5 29 8
v -5 30 12
v -5 30 11
v -5 30 10
v -5 30 9
v -5 31 11
v -5 31 10
v -5 31 9
v -5 32 10
v -5 32 9
v -5 32 8
v -5 33 11
v -5 33 10
v -5 33 9
v -5 34 12
v -5 34 11
v -5 34 10
v -5 34 9
v -5 35 12
v -5 35 11
v -5 35 10
v -5 35 9
v -5 36 11
v -5 36 10
v -5 40 12
v -5 40 4
v -4 24 13
v -4 24 12
v -4 29 12
v -4 30 12
v -4 32 13
v -4 32 12
v -4 34 14
v -4 34 13
v -4 34 12
v -4 35 14
v -4 35 13
v -4 35 12
v -4 40 13
v -4 40 12
v -2 33 15
v -2 33 13
v -2 34 15
v -2 34 14
v -2 34 13
v 1 32 15
v 1 32 14
v 1 32 13
v 1 33 15
v 1 33 14
v 1 33 13
v 3 31 14
v 3 31 13
v 3 32 14
v 3 32 13
v 3 33 15
v 3 33 14
v 3 34 15
v 3 34 14
v 4 32 15
v 4 32 14
v 4 33 15
v 4 33 14
v 5 30 13
v 5 30 12
v 5 31 13
v 5 31 12
v 6 32 13
v 6 32 12
v 6 33 13
v 6 33 12
v 1 33 15
v 1 33 14
v 1 34 15
v 1 34 14
v 3 32 15
v 3 32 14
v 3 33 15
v 3 33 14
v 4 24 13
v 4 24 12
v 4 25 13
v 4 25 12
v 4 26 13
v 4 26 12
v 4 28 13
v 4 28 12
v 4 29 13
v 4 29 12
v 4 30 13
v 4 30 12
v 4 31 13
v 4 31 12
v 4 34 13
v 4 34 12
v 4 35 13
v 4 35 12
v 4 36 12
v 4 37 13
v 4 37 12
v 4 38 13
v 4 38 12
v 4 39 13
v 4 39 12
v 4 40 13
v 4 40 12
v 5 24 12
v 5 24 10
v 5 24 9
v 5 24 8
v 5 24 4
v 5 25 12
v 5 25 10
v 5 26 12
v 5 26 10
v 5 26 9
v 5 26 8
v 5 27 11
v 5 27 10
v 5 27 9
v 5 28 12
v 5 28 11
v 5 28 10
v 5 28 9
v 5 29 12
v 5 29 11
v 5 29 10
v 5 29 8
v 5 30 9
v 5 30 8
v 5 31 10
v 5 31 9
v 5 32 13
v 5 32 12
v 5 32 11
v 5 32 10
v 5 33 15
v 5 33 14
v 5 33 13
v 5 33 12
v 5 33 11
v 5 33 10
v 5 33 9
v 5 34 15
v 5 34 14
v 5 34 13
v 5 34 12
v 5 34 10
v 5 34 9
v 5 35 14
v 5 35 13
v 5 35 11
v 5 35 10
v 5 36 12
v 5 36 11
v 5 36 10
v 5 37 12
v 5 37 11
v 5 38 12
v 5 38 11
v 5 40 12
v 5 40 4
v 6 28 11
v 6 28 10
v 6 29 11
v 6 29 10
v 6 29 9
v 6 29 8
v 6 30 10
v 6 30 9
v 6 30 8
v 6 31 10
v 6 31 9
v 6 32 15
v 6 32 14
v 6 33 15
v 6 33 14
v 6 33 13
v 6 34 14
v 6 34 13
v 7 29 12
v 7 29 11
v 7 30 12
v 7 30 11
v 7 31 11
v 7 31 10
v 7 32 14
v 7 32 13
v 7 32 11
v 7 32 10
v 7 33 14
v 7 33 13
v 8 29 11
v 8 29 10
v 8 29 9
v 8 30 13
v 8 30 12
v 8 30 11
v 8 30 10
v 8 30 9
v 8 31 14
v 8 31 13
v 8 31 12
v 8 31 11
v 8 31 10
v 8 32 14
v 8 32 13
v 8 32 12
v 8 32 11
v 8 33 13
v 8 33 12
v 9 30 12
v 9 30 11
v 9 31 12
v 9 31 11
v -2 33 15
v -2 34 15
v -1 33 15
v -1 34 15
v 0 33 15
v 0 34 15
v 1 32 15
v 1 33 15
v 1 34 15
v 2 32 15
v 2 33 15
v 3 32 15
v 3 33 15
v 3 34 15
v 4 32 15
v 4 33 15
v 5 32 15
v 5 33 15
v 5 34 15
v 6 32 15
v 6 33 15
v -4 34 14
v -4 35 14
v -2 34 14
v -2 35 14
v -1 34 14
v -1 35 14
v 0 34 14
v 0 35 14
v 1 33 14
v 1 34 14
v 1 35 14
v 2 33 14
v 2 34 14
v 2 35 14
v 3 31 14
v 3 32 14
v 3 33 14
v 3 34 14
v 4 32 14
v 4 33 14
v 5 31 14
v 5 32 14
v 5 33 14
v 5 34 14
v 5 35 14
v 6 31 14
v 6 32 14
v 6 33 14
v 6 34 14
v 7 31 14
v 7 32 14
v 7 33 14
v 8 31 14
v 8 32 14
v -4 24 13
v -4 32 13
v -4 34 13
v -4 35 13
v -4 40 13
v -3 32 13
v -3 34 13
v -2 33 13
v -2 34 13
v -2 35 13
v -1 35 13
v 0 35 13
v 1 32 13
v 1 33 13
v 1 35 13
v 1 37 13
v 1 38 13
v 2 26 13
v 2 27 13
v 2 28 13
v 2 29 13
v 2 35 13
v 2 36 13
v 2 37 13
v 2 38 13
v 2 39 13
v 3 24 13
v 3 25 13
v 3 26 13
v 3 27 13
v 3 28 13
v 3 29 13
v 3 30 13
v 3 31 13
v 3 32 13
v 3 35 13
v 3 36 13
v 4 24 13
v 4 25 13
v 4 26 13
v 4 28 13
v 4 29 13
v 4 30 13
v 4 31 13
v 4 35 13
v 4 37 13
v 4 38 13
v 4 39 13
v 4 40 13
v 5 30 13
v 5 31 13
v 6 30 13
v 6 31 13
v 7 30 13
v 7 31 13
v 7 32 13
v 7 33 13
v 8 30 13
v 8 31 13
v 8 32 13
v 8 33 13
v -5 24 12
v -5 29 12
v -5 30 12
v -5 34 12
v -5 35 12
v -5 40 12
v -4 24 12
v -4 29 12
v -4 30 12
v -4 32 12
v -4 34 12
v -4 35 12
v -4 40 12
v 4 24 12
v 4 25 12
v 4 26 12
v 4 28 12
v 4 29 12
v 4 30 12
v 4 31 12
v 4 34 12
v 4 35 12
v 4 36 12
v 4 37 12
v 4 38 12
v 4 39 12
v 4 40 12
v 5 24 12
v 5 25 12
v 5 26 12
v 5 28 12
v 5 29 12
v 5 30 12
v 5 31 12
v 5 34 12
v 5 36 12
v 5 37 12
v 5 38 12
v 5 40 12
v 6 30 12
v 7 29 12
v 7 30 12
v 8 30 12
v 8 31 12
v 9 30 12
v 9 31 12
v 5 28 11
v 5 29 11
v 6 28 11
v 6 29 11
v 7 29 11
v 7 30 11
v 8 29 11
v 8 30 11
v 4 34 13
v 4 35 13
v 5 32 13
v 5 33 13
v 5 34 13
v 5 35 13
v 6 32 13
v 6 33 13
v 6 34 13
v 6 32 12
v 6 33 12
v 7 32 12
v 7 33 12
v 8 32 12
v 8 33 12
v 7 31 11
v 7 32 11
v 8 30 11
v 8 31 11
v 8 32 11
v 9 30 11
v 9 31 11
v 5 28 10
v 5 29 10
v 5 31 10
v 5 32 10
v 6 28 10
v 6 29 10
v 6 30 10
v 6 31 10
v 7 31 10
v 7 32 10
v 8 30 10
v 8 31 10
v 5 30 9
v 5 31 9
v 6 29 9
v 6 30 9
v 6 31 9
v 8 29 9
v 8 30 9
v 5 29 8
v 5 30 8
v 6 29 8
v 6 30 8
v -5 24 4
v -5 40 4
v 5 24 4
v 5 40 4
v -4 24 13
v 3 24 13
v 4 24 13
v -5 24 12
v -4 24 12
v 3 24 12
v 4 24 12
v 5 24 12
v 4 24 10
v 5 24 10
v 4 24 9
v 5 24 9
v 4 24 8
v 5 24 8
v -5 24 4
v 5 24 4
v 5 28 11
v 6 28 11
v 5 28 10
v 6 28 10
v 5 29 12
v 7 29 12
v 5 29 11
v 6 29 11
v 7 29 11
v 8 29 11
v 5 29 10
v 6 29 10
v 7 29 10
v 8 29 10
v 6 29 9
v 8 29 9
v 5 29 8
v 6 29 8
v 5 30 13
v 6 30 13
v 7 30 13
v 8 30 13
v 5 30 12
v 6 30 12
v 7 30 12
v 8 30 12
v 9 30 12
v 7 30 11
v 8 30 11
v 9 30 11
v 3 31 14
v 5 31 14
v 6 31 14
v 7 31 14
v 8 31 14
v 3 31 13
v 4 31 13
v 5 31 13
v 6 31 13
v 7 31 13
v 8 31 13
v 4 31 12
v 5 31 12
v 1 32 15
v 2 32 15
v 3 32 15
v 4 32 15
v 5 32 15
v 6 32 15
v 1 32 14
v 2 32 14
v 3 32 14
v 4 32 14
v 5 32 14
v 6 32 14
v 1 32 13
v 3 32 13
v -2 33 15
v -1 33 15
v 0 33 15
v 1 33 15
v 3 33 15
v 4 33 15
v -1 33 14
v 0 33 14
v 1 33 14
v 3 33 14
v 4 33 14
v -2 33 13
v 1 33 13
v -4 34 14
v -2 34 14
v -4 34 13
v -3 34 13
v -2 34 13
v 6 30 10
v 8 30 10
v 5 30 9
v 6 30 9
v 8 30 9
v 5 30 8
v 6 30 8
v 8 31 12
v 9 31 12
v 7 31 11
v 8 31 11
v 9 31 11
v 5 31 10
v 6 31 10
v 7 31 10
v 8 31 10
v 5 31 9
v 6 31 9
v 7 32 14
v 8 32 14
v 5 32 13
v 6 32 13
v 7 32 13
v 8 32 13
v 5 32 12
v 6 32 12
v 7 32 12
v 8 32 12
v 5 32 11
v 7 32 11
v 8 32 11
v 5 32 10
v 7 32 10
v 1 33 15
v 2 33 15
v 3 33 15
v 5 33 15
v 6 33 15
v 1 33 14
v 2 33 14
v 3 33 14
v 5 33 14
v 6 33 14
v 7 33 14
v 6 33 13
v 7 33 13
v 8 33 13
v 6 33 12
v 7 33 12
v 8 33 12
v -2 34 15
v -1 34 15
v 0 34 15
v 1 34 15
v 3 34 15
v 5 34 15
v -2 34 14
v -1 34 14
v 0 34 14
v 1 34 14
v 3 34 14
v 5 34 14
v 6 34 14
v 4 34 13
v 5 34 13
v 6 34 13
v 4 34 12
v 5 34 12
v -4 35 14
v -2 35 14
v -1 35 14
v 0 35 14
v 1 35 14
v 2 35 14
v 5 35 14
v -4 35 13
v -2 35 13
v -1 35 13
v 0 35 13
v 1 35 13
v 2 35 13
v 3 35 13
v 4 35 13
v 5 35 13
v -4 40 13
v 4 40 13
v -5 40 12
v -4 40 12
v 4 40 12
v 5 40 12
v -5 40 4
v 5 40 4

# faces
f 3/3/1 2/3/1 1/3/1
f 4/3/1 2/3/1 3/3/1
f 5/3/1 3/3/1 1/3/1
f 6/4/1 4/4/1 3/4/1
f 6/3/1 3/3/1 5/3/1
f 7/3/1 2/3/1 4/3/1
f 7/4/1 4/4/1 6/4/1
f 8/4/1 6/4/1 5/4/1
f 8/3/1 5/3/1 1/3/1
f 9/2/1 7/2/1 6/2/1
f 9/4/1 6/4/1 8/4/1
f 10/3/1 2/3/1 7/3/1
f 10/2/1 7/2/1 9/2/1
f 11/3/1 8/3/1 1/3/1
f 12/2/1 9/2/1 8/2/1
f 12/3/1 8/3/1 11/3/1
f 13/8/1 10/8/1 9/8/1
f 13/2/1 9/2/1 12/2/1
f 14/3/1 2/3/1 10/3/1
f 14/8/1 10/8/1 13/8/1
f 15/3/1 2/3/1 14/3/1
f 16/4/1 12/4/1 11/4/1
f 17/3/1 13/3/1 12/3/1
f 17/4/1 12/4/1 16/4/1
f 18/5/1 14/5/1 13/5/1
f 18/3/1 13/3/1 17/3/1
f 19/4/1 15/4/1 14/4/1
f 19/5/1 14/5/1 18/5/1
f 20/2/1 17/2/1 16/2/1
f 20/8/1 18/8/1 17/8/1
f 21/1/1 19/1/1 18/1/1
f 21/8/1 18/8/1 20/8/1
f 22/4/1 15/4/1 19/4/1
f 22/1/1 19/1/1 21/1/1
f 23/1/1 21/1/1 20/1/1
f 23/5/1 22/5/1 21/5/1
f 24/4/1 15/4/1 22/4/1
f 24/5/1 22/5/1 23/5/1
f 25/3/1 2/3/1 15/3/1
f 25/4/1 15/4/1 24/4/1
f 26/1/1 23/1/1 20/1/1
f 26/2/1 20/2/1 16/2/1
f 27/8/1 24/8/1 23/8/1
f 27/1/1 23/1/1 26/1/1
f 28/3/1 25/3/1 24/3/1
f 28/8/1 24/8/1 27/8/1
f 29/2/1 26/2/1 16/2/1
f 30/8/1 27/8/1 26/8/1
f 30/2/1 26/2/1 29/2/1
f 31/2/1 28/2/1 27/2/1
f 31/8/1 27/8/1 30/8/1
f 32/3/1 25/3/1 28/3/1
f 32/2/1 28/2/1 31/2/1
f 33/4/1 30/4/1 29/4/1
f 34/2/1 31/2/1 30/2/1
f 34/4/1 30/4/1 33/4/1
f 35/4/1 32/4/1 31/4/1
f 35/2/1 31/2/1 34/2/1
f 36/3/1 25/3/1 32/3/1
f 36/4/1 32/4/1 35/4/1
f 37/4/1 35/4/1 34/4/1
f 37/3/1 34/3/1 33/3/1
f 38/3/1 36/3/1 35/3/1
f 38/4/1 35/4/1 37/4/1
f 39/3/1 37/3/1 33/3/1
f 39/3/1 38/3/1 37/3/1
f 40/3/1 2/3/1 25/3/1
f 40/3/1 38/3/1 39/3/1
f 40/3/1 25/3/1 36/3/1
f 40/3/1 36/3/1 38/3/1
f 43/3/1 42/3/1 41/3/1
f 44/3/1 43/3/1 41/3/1
f 45/3/1 44/3/1 41/3/1
f 46/3/1 44/3/1 45/3/1
f 48/4/1 46/4/1 45/4/1
f 49/4/1 46/4/1 48/4/1
f 50/7/1 48/7/1 47/7/1
f 51/3/1 49/3/1 48/3/1
f 51/7/1 48/7/1 50/7/1
f 52/3/1 49/3/1 51/3/1
f 53/3/1 52/3/1 51/3/1
f 54/3/1 52/3/1 53/3/1
f 57/7/1 56/7/1 55/7/1
f 58/7/1 56/7/1 57/7/1
f 59/7/1 56/7/1 58/7/1
f 63/5/1 61/5/1 60/5/1
f 64/7/1 62/7/1 61/7/1
f 64/5/1 61/5/1 63/5/1
f 65/7/1 62/7/1 64/7/1
f 68/7/1 67/7/1 66/7/1
f 69/7/1 67/7/1 68/7/1
f 72/1/1 71/1/1 70/1/1
f 73/1/1 71/1/1 72/1/1
f 76/7/1 75/7/1 74/7/1
f 77/7/1 75/7/1 76/7/1
f 80/7/1 79/7/1 78/7/1
f 81/7/1 79/7/1 80/7/1
f 84/7/1 83/7/1 82/7/1
f 85/7/1 83/7/1 84/7/1
f 86/1/2 87/1/2 88/1/2
f 88/1/2 87/1/2 89/1/2
f 90/7/2 91/7/2 92/7/2
f 92/7/2 91/7/2 93/7/2
f 94/4/2 95/4/2 96/4/2
f 96/4/2 95/4/2 97/4/2
f 96/2/2 97/2/2 98/2/2
f 98/2/2 97/2/2 99/2/2
f 98/8/2 99/8/2 100/8/2
f 100/8/2 99/8/2 101/8/2
f 100/2/2 101/2/2 102/2/2
f 102/2/2 101/2/2 103/2/2
f 102/4/2 103/4/2 104/4/2
f 104/4/2 103/4/2 105/4/2
f 104/3/2 105/3/2 106/3/2
f 106/3/2 105/3/2 107/3/2
f 108/2/2 109/2/2 110/2/2
f 110/2/2 109/2/2 111/2/2
f 110/8/2 111/8/2 112/8/2
f 110/8/2 112/8/2 113/8/2
f 113/8/2 112/8/2 114/8/2
f 113/2/2 114/2/2 115/2/2
f 115/2/2 114/2/2 116/2/2
f 115/4/2 116/4/2 117/4/2
f 117/4/2 116/4/2 118/4/2
f 117/3/2 118/3/2 119/3/2
f 119/3/2 118/3/2 120/3/2
f 121/4/2 122/4/2 126/4/2
f 122/8/2 123/8/2 127/8/2
f 126/4/2 122/4/2 127/4/2
f 126/2/2 127/2/2 128/2/2
f 127/8/2 123/8/2 129/8/2
f 128/2/2 127/2/2 129/2/2
f 123/4/2 124/4/2 130/4/2
f 129/8/2 123/8/2 130/8/2
f 124/3/2 125/3/2 131/3/2
f 130/4/2 124/4/2 131/4/2
f 128/8/2 129/8/2 132/8/2
f 129/2/2 130/2/2 133/2/2
f 132/8/2 129/8/2 133/8/2
f 130/3/2 131/3/2 134/3/2
f 133/2/2 130/2/2 134/2/2
f 128/8/2 132/8/2 135/8/2
f 132/2/2 133/2/2 136/2/2
f 135/8/2 132/8/2 136/8/2
f 133/4/2 134/4/2 137/4/2
f 136/2/2 133/2/2 137/2/2
f 134/3/2 131/3/2 138/3/2
f 137/4/2 134/4/2 138/4/2
f 135/2/2 136/2/2 139/2/2
f 139/2/2 136/2/2 140/2/2
f 137/3/2 138/3/2 141/3/2
f 138/3/2 131/3/2 142/3/2
f 141/3/2 138/3/2 142/3/2
f 131/3/2 125/3/2 142/3/2
f 142/3/2 125/3/2 144/3/2
f 143/3/2 144/3/2 146/3/2
f 145/3/2 146/3/2 150/3/2
f 147/7/2 148/7/2 153/7/2
f 148/2/2 149/2/2 154/2/2
f 153/7/2 148/7/2 154/7/2
f 149/4/2 150/4/2 155/4/2
f 154/2/2 149/2/2 155/2/2
f 150/3/2 146/3/2 156/3/2
f 155/4/2 150/4/2 156/4/2
f 146/3/2 144/3/2 157/3/2
f 156/3/2 146/3/2 157/3/2
f 151/1/2 152/1/2 158/1/2
f 158/1/2 152/1/2 159/1/2
f 153/7/2 154/7/2 160/7/2
f 154/8/2 155/8/2 161/8/2
f 160/7/2 154/7/2 161/7/2
f 155/2/2 156/2/2 162/2/2
f 156/4/2 157/4/2 162/4/2
f 157/3/2 144/3/2 163/3/2
f 162/4/2 157/4/2 163/4/2
f 159/7/2 160/7/2 164/7/2
f 164/7/2 160/7/2 165/7/2
f 161/8/2 155/8/2 166/8/2
f 155/2/2 162/2/2 166/2/2
f 162/3/2 163/3/2 167/3/2
f 166/2/2 162/2/2 167/2/2
f 161/8/2 166/8/2 168/8/2
f 166/4/2 167/4/2 169/4/2
f 168/8/2 166/8/2 169/8/2
f 167/3/2 163/3/2 170/3/2
f 169/4/2 167/4/2 170/4/2
f 168/2/2 169/2/2 171/2/2
f 169/3/2 170/3/2 172/3/2
f 171/2/2 169/2/2 172/2/2
f 171/4/2 172/4/2 173/4/2
f 172/3/2 170/3/2 174/3/2
f 173/4/2 172/4/2 174/4/2
f 173/3/2 174/3/2 175/3/2
f 144/3/2 125/3/2 176/3/2
f 175/3/2 174/3/2 176/3/2
f 170/3/2 163/3/2 176/3/2
f 174/3/2 170/3/2 176/3/2
f 163/3/2 144/3/2 176/3/2
f 177/7/2 178/7/2 179/7/2
f 179/7/2 178/7/2 180/7/2
f 181/7/2 182/7/2 184/7/2
f 184/7/2 182/7/2 185/7/2
f 183/6/2 184/6/2 186/6/2
f 186/6/2 184/6/2 187/6/2
f 188/6/2 189/6/2 190/6/2
f 190/6/2 189/6/2 191/6/2
f 191/1/2 192/1/2 193/1/2
f 193/1/2 192/1/2 194/1/2
f 195/7/2 196/7/2 197/7/2
f 197/7/2 196/7/2 198/7/2
f 199/7/2 200/7/2 203/7/2
f 203/7/2 200/7/2 204/7/2
f 201/1/2 202/1/2 205/1/2
f 205/1/2 202/1/2 206/1/2
f 207/6/2 208/6/2 212/6/2
f 208/7/2 209/7/2 213/7/2
f 212/6/2 208/6/2 213/6/2
f 213/7/2 209/7/2 214/7/2
f 210/6/2 211/6/2 216/6/2
f 216/6/2 211/6/2 217/6/2
f 212/6/2 213/6/2 218/6/2
f 218/6/2 213/6/2 219/6/2
f 215/7/2 216/7/2 220/7/2
f 216/1/2 217/1/2 221/1/2
f 220/7/2 216/7/2 221/7/2
f 217/1/2 218/1/2 221/1/2
f 221/1/2 218/1/2 222/1/2
f 222/1/2 218/1/2 223/1/2
f 221/1/2 222/1/2 224/1/2
f 224/1/2 222/1/2 225/1/2
f 226/1/2 227/1/2 228/1/2
f 228/1/2 227/1/2 229/1/2
f 232/7/3 231/7/3 230/7/3
f 233/7/3 231/7/3 232/7/3
f 234/6/3 233/6/3 232/6/3
f 235/6/3 233/6/3 234/6/3
f 237/1/3 235/1/3 234/1/3
f 238/1/3 235/1/3 237/1/3
f 239/5/3 237/5/3 236/5/3
f 240/5/3 237/5/3 239/5/3
f 241/7/3 240/7/3 239/7/3
f 242/7/3 240/7/3 241/7/3
f 245/1/3 243/1/3 242/1/3
f 246/7/3 245/7/3 244/7/3
f 247/1/3 243/1/3 245/1/3
f 247/7/3 245/7/3 246/7/3
f 248/1/3 243/1/3 247/1/3
f 249/6/3 247/6/3 246/6/3
f 250/6/3 247/6/3 249/6/3
f 253/7/3 252/7/3 251/7/3
f 254/7/3 252/7/3 253/7/3
f 255/6/3 254/6/3 253/6/3
f 256/6/3 254/6/3 255/6/3
f 257/7/3 256/7/3 255/7/3
f 258/7/3 256/7/3 257/7/3
f 260/1/3 258/1/3 257/1/3
f 261/1/3 258/1/3 260/1/3
f 262/1/3 260/1/3 259/1/3
f 263/6/3 261/6/3 260/6/3
f 263/1/3 260/1/3 262/1/3
f 264/6/3 261/6/3 263/6/3
f 267/1/3 263/1/3 262/1/3
f 268/7/3 264/7/3 263/7/3
f 268/1/3 263/1/3 267/1/3
f 269/7/3 266/7/3 265/7/3
f 269/5/3 267/5/3 266/5/3
f 270/5/3 267/5/3 269/5/3
f 271/7/3 269/7/3 265/7/3
f 272/7/3 269/7/3 271/7/3
f 274/7/3 264/7/3 268/7/3
f 275/7/3 264/7/3 274/7/3
f 276/5/3 272/5/3 271/5/3
f 277/5/3 272/5/3 276/5/3
f 278/1/3 274/1/3 273/1/3
f 279/1/3 274/1/3 278/1/3
f 280/6/3 277/6/3 276/6/3
f 281/1/3 278/1/3 277/1/3
f 281/6/3 277/6/3 280/6/3
f 282/1/3 278/1/3 281/1/3
f 283/7/3 281/7/3 280/7/3
f 284/7/3 281/7/3 283/7/3
f 290/3/3 286/3/3 285/3/3
f 290/4/3 287/4/3 286/4/3
f 291/4/3 287/4/3 290/4/3
f 292/3/3 291/3/3 290/3/3
f 293/3/3 291/3/3 292/3/3
f 294/3/3 289/3/3 288/3/3
f 295/3/3 289/3/3 294/3/3
f 296/3/3 289/3/3 295/3/3
f 297/3/3 290/3/3 285/3/3
f 297/3/3 292/3/3 290/3/3
f 298/3/3 292/3/3 297/3/3
f 299/3/3 289/3/3 296/3/3
f 300/3/3 289/3/3 299/3/3
f 301/3/3 289/3/3 300/3/3
f 302/3/3 297/3/3 285/3/3
f 303/3/3 297/3/3 302/3/3
f 304/3/3 297/3/3 303/3/3
f 305/3/3 297/3/3 304/3/3
f 306/4/3 300/4/3 299/4/3
f 307/4/3 300/4/3 306/4/3
f 308/2/3 301/2/3 300/2/3
f 308/4/3 300/4/3 307/4/3
f 309/3/3 289/3/3 301/3/3
f 309/2/3 301/2/3 308/2/3
f 310/3/3 289/3/3 309/3/3
f 311/3/3 302/3/3 285/3/3
f 312/3/3 302/3/3 311/3/3
f 313/4/3 303/4/3 302/4/3
f 313/3/3 302/3/3 312/3/3
f 314/2/3 304/2/3 303/2/3
f 314/4/3 303/4/3 313/4/3
f 315/4/3 305/4/3 304/4/3
f 315/2/3 304/2/3 314/2/3
f 316/3/3 297/3/3 305/3/3
f 316/4/3 305/4/3 315/4/3
f 317/3/3 297/3/3 316/3/3
f 318/3/3 297/3/3 317/3/3
f 319/3/3 297/3/3 318/3/3
f 320/2/3 307/2/3 306/2/3
f 321/8/3 308/8/3 307/8/3
f 321/2/3 307/2/3 320/2/3
f 322/4/3 312/4/3 311/4/3
f 323/2/3 313/2/3 312/2/3
f 323/4/3 312/4/3 322/4/3
f 324/8/3 315/8/3 314/8/3
f 324/2/3 313/2/3 323/2/3
f 324/8/3 314/8/3 313/8/3
f 325/2/3 316/2/3 315/2/3
f 325/8/3 315/8/3 324/8/3
f 326/4/3 317/4/3 316/4/3
f 326/2/3 316/2/3 325/2/3
f 327/3/3 318/3/3 317/3/3
f 327/4/3 317/4/3 326/4/3
f 328/3/3 318/3/3 327/3/3
f 329/8/3 321/8/3 320/8/3
f 330/8/3 308/8/3 321/8/3
f 330/8/3 321/8/3 329/8/3
f 330/2/3 309/2/3 308/2/3
f 331/4/3 310/4/3 309/4/3
f 331/2/3 309/2/3 330/2/3
f 332/3/3 289/3/3 310/3/3
f 332/4/3 310/4/3 331/4/3
f 333/3/3 289/3/3 332/3/3
f 336/7/3 335/7/3 334/7/3
f 337/7/3 335/7/3 336/7/3
f 338/5/3 337/5/3 336/5/3
f 339/5/3 337/5/3 338/5/3
f 342/6/3 339/6/3 338/6/3
f 343/6/3 339/6/3 342/6/3
f 344/1/3 341/1/3 340/1/3
f 345/1/3 341/1/3 344/1/3
f 352/3/3 347/3/3 346/3/3
f 353/4/3 348/4/3 347/4/3
f 353/3/3 347/3/3 352/3/3
f 354/2/3 349/2/3 348/2/3
f 354/4/3 348/4/3 353/4/3
f 355/2/3 349/2/3 354/2/3
f 356/4/3 350/4/3 349/4/3
f 356/2/3 349/2/3 355/2/3
f 357/3/3 351/3/3 350/3/3
f 357/4/3 350/4/3 356/4/3
f 358/3/3 351/3/3 357/3/3
f 373/4/3 360/4/3 359/4/3
f 374/2/3 361/2/3 360/2/3
f 374/4/3 360/4/3 373/4/3
f 375/8/3 362/8/3 361/8/3
f 375/2/3 361/2/3 374/2/3
f 376/2/3 363/2/3 362/2/3
f 376/8/3 362/8/3 375/8/3
f 377/4/3 364/4/3 363/4/3
f 377/2/3 363/2/3 376/2/3
f 378/3/3 365/3/3 364/3/3
f 378/4/3 364/4/3 377/4/3
f 379/3/3 365/3/3 378/3/3
f 380/8/3 367/8/3 366/8/3
f 380/8/3 368/8/3 367/8/3
f 381/2/3 369/2/3 368/2/3
f 381/8/3 368/8/3 380/8/3
f 382/4/3 370/4/3 369/4/3
f 382/2/3 369/2/3 381/2/3
f 383/3/3 372/3/3 371/3/3
f 383/4/3 370/4/3 382/4/3
f 383/3/3 371/3/3 370/3/3
f 384/3/3 372/3/3 383/3/3
f 385/7/3 378/7/3 377/7/3
f 386/7/3 385/7/3 377/7/3
f 387/7/3 385/7/3 386/7/3
f 390/1/3 389/1/3 388/1/3
f 391/1/3 389/1/3 390/1/3
f 394/7/3 393/7/3 392/7/3
f 395/7/3 393/7/3 394/7/3
f 398/6/3 397/6/3 396/6/3
f 399/6/3 397/6/3 398/6/3
f 400/7/4 401/7/4 404/7/4
f 404/7/4 401/7/4 405/7/4
f 402/7/4 403/7/4 406/7/4
f 403/1/4 404/1/4 407/1/4
f 406/7/4 403/7/4 407/7/4
f 407/1/4 404/1/4 408/1/4
f 409/7/4 410/7/4 411/7/4
f 411/7/4 410/7/4 412/7/4
f 411/1/4 412/1/4 413/1/4
f 413/1/4 412/1/4 414/1/4
f 415/1/4 416/1/4 418/1/4
f 418/1/4 416/1/4 419/1/4
f 417/1/4 418/1/4 420/1/4
f 420/1/4 418/1/4 421/1/4
f 422/7/4 423/7/4 426/7/4
f 426/7/4 423/7/4 427/7/4
f 424/7/4 425/7/4 429/7/4
f 428/6/4 429/6/4 430/6/4
f 429/7/4 425/7/4 430/7/4
f 430/7/4 425/7/4 431/7/4
f 428/6/4 430/6/4 432/6/4
f 432/6/4 430/6/4 433/6/4
f 434/6/4 435/6/4 437/6/4
f 437/6/4 435/6/4 438/6/4
f 436/7/4 437/7/4 439/7/4
f 439/7/4 437/7/4 440/7/4
f 441/7/4 442/7/4 443/7/4
f 443/7/4 442/7/4 444/7/4
f 445/3/4 446/3/4 447/3/4
f 447/3/4 446/3/4 448/3/4
f 453/3/5 450/3/5 449/3/5
f 454/4/5 451/4/5 450/4/5
f 454/3/5 450/3/5 453/3/5
f 455/4/5 451/4/5 454/4/5
f 457/3/5 453/3/5 452/3/5
f 457/4/5 456/4/5 455/4/5
f 457/3/5 455/3/5 454/3/5
f 457/3/5 454/3/5 453/3/5
f 458/4/5 456/4/5 457/4/5
f 459/3/5 457/3/5 452/3/5
f 459/8/5 458/8/5 457/8/5
f 460/8/5 458/8/5 459/8/5
f 461/3/5 459/3/5 452/3/5
f 461/4/5 460/4/5 459/4/5
f 462/4/5 460/4/5 461/4/5
f 463/3/5 461/3/5 452/3/5
f 463/3/5 462/3/5 461/3/5
f 464/3/5 462/3/5 463/3/5
f 467/7/5 466/7/5 465/7/5
f 468/7/5 466/7/5 467/7/5
f 471/7/5 470/7/5 469/7/5
f 472/7/5 470/7/5 471/7/5
f 473/7/5 470/7/5 472/7/5
f 476/7/5 473/7/5 472/7/5
f 477/6/5 474/6/5 473/6/5
f 477/7/5 473/7/5 476/7/5
f 478/6/5 474/6/5 477/6/5
f 479/7/5 476/7/5 475/7/5
f 479/7/5 477/7/5 476/7/5
f 479/7/5 478/7/5 477/7/5
f 480/7/5 478/7/5 479/7/5
f 481/7/5 479/7/5 475/7/5
f 482/7/5 479/7/5 481/7/5
f 487/7/5 484/7/5 483/7/5
f 488/5/5 485/5/5 484/5/5
f 488/7/5 484/7/5 487/7/5
f 489/6/5 486/6/5 485/6/5
f 489/5/5 485/5/5 488/5/5
f 490/6/5 486/6/5 489/6/5
f 492/7/5 490/7/5 489/7/5
f 493/1/5 491/1/5 490/1/5
f 493/7/5 490/7/5 492/7/5
f 494/1/5 491/1/5 493/1/5
f 500/7/5 496/7/5 495/7/5
f 501/7/5 496/7/5 500/7/5
f 502/5/5 497/5/5 496/5/5
f 502/7/5 496/7/5 501/7/5
f 503/6/5 498/6/5 497/6/5
f 503/5/5 497/5/5 502/5/5
f 504/7/5 499/7/5 498/7/5
f 504/6/5 498/6/5 503/6/5
f 505/7/5 499/7/5 504/7/5
f 506/7/5 502/7/5 501/7/5
f 507/7/5 502/7/5 506/7/5
f 514/5/5 509/5/5 508/5/5
f 515/7/5 510/7/5 509/7/5
f 515/5/5 509/5/5 514/5/5
f 516/7/5 510/7/5 515/7/5
f 517/7/5 512/7/5 511/7/5
f 518/6/5 513/6/5 512/6/5
f 518/7/5 512/7/5 517/7/5
f 519/6/5 513/6/5 518/6/5
f 520/7/5 516/7/5 515/7/5
f 520/7/5 515/7/5 514/7/5
f 521/7/5 516/7/5 520/7/5
f 528/7/5 523/7/5 522/7/5
f 528/6/5 524/6/5 523/6/5
f 529/1/5 525/1/5 524/1/5
f 529/6/5 524/6/5 528/6/5
f 530/1/5 525/1/5 529/1/5
f 531/1/5 527/1/5 526/1/5
f 532/1/5 527/1/5 531/1/5
f 533/7/5 530/7/5 529/7/5
f 533/7/5 528/7/5 522/7/5
f 533/7/5 529/7/5 528/7/5
f 534/7/5 530/7/5 533/7/5
f 537/7/5 536/7/5 535/7/5
f 538/7/5 536/7/5 537/7/5
f 539/7/5 536/7/5 538/7/5
f 540/7/6 541/7/6 543/7/6
f 543/7/6 541/7/6 544/7/6
f 542/7/6 543/7/6 545/7/6
f 545/7/6 543/7/6 546/7/6
f 547/1/6 548/1/6 550/1/6
f 550/1/6 548/1/6 551/1/6
f 549/6/6 550/6/6 554/6/6
f 554/6/6 550/6/6 555/6/6
f 552/6/6 553/6/6 556/6/6
f 556/6/6 553/6/6 557/6/6
f 558/7/6 559/7/6 562/7/6
f 562/7/6 559/7/6 563/7/6
f 560/7/6 561/7/6 564/7/6
f 564/7/6 561/7/6 565/7/6
f 564/7/6 565/7/6 568/7/6
f 565/7/6 566/7/6 568/7/6
f 566/1/6 567/1/6 569/1/6
f 568/7/6 566/7/6 569/7/6
f 569/1/6 567/1/6 570/1/6
f 568/7/6 569/7/6 571/7/6
f 571/7/6 569/7/6 572/7/6
f 573/5/6 574/5/6 578/5/6
f 574/7/6 575/7/6 579/7/6
f 578/5/6 574/5/6 579/5/6
f 579/7/6 575/7/6 580/7/6
f 576/6/6 577/6/6 581/6/6
f 581/6/6 577/6/6 582/6/6
f 582/1/6 583/1/6 584/1/6
f 584/1/6 583/1/6 585/1/6
f 584/7/6 585/7/6 587/7/6
f 585/1/6 586/1/6 588/1/6
f 587/7/6 585/7/6 588/7/6
f 588/1/6 586/1/6 589/1/6
f 590/7/6 591/7/6 596/7/6
f 591/6/6 592/6/6 597/6/6
f 596/7/6 591/7/6 597/7/6
f 592/1/6 593/1/6 598/1/6
f 597/6/6 592/6/6 598/6/6
f 598/1/6 593/1/6 599/1/6
f 594/1/6 595/1/6 600/1/6
f 600/1/6 595/1/6 601/1/6
f 601/1/6 602/1/6 604/1/6
f 604/1/6 602/1/6 605/1/6
f 603/7/6 604/7/6 606/7/6
f 606/7/6 604/7/6 607/7/6
f 608/7/6 609/7/6 615/7/6
f 609/6/6 610/6/6 616/6/6
f 615/7/6 609/7/6 616/7/6
f 610/7/6 611/7/6 617/7/6
f 616/6/6 610/6/6 617/6/6
f 611/1/6 612/1/6 618/1/6
f 617/7/6 611/7/6 618/7/6
f 612/6/6 613/6/6 619/6/6
f 618/1/6 612/1/6 619/1/6
f 613/7/6 614/7/6 620/7/6
f 619/6/6 613/6/6 620/6/6
f 620/7/6 614/7/6 621/7/6
f 621/7/6 614/7/6 622/7/6
f 622/7/6 614/7/6 623/7/6
f 624/3/6 625/3/6 627/3/6
f 627/3/6 625/3/6 628/3/6
f 626/3/6 627/3/6 630/3/6
f 628/3/6 629/3/6 630/3/6
f 627/3/6 628/3/6 630/3/6
f 630/3/6 629/3/6 631/3/6
