# MagicaVoxel @ Ephtracy

# material
mtllib CrystalLeftBoot2X.mtl
usemtl palette

# normals
vn -1 0 0
vn 1 0 0
vn 0 0 1
vn 0 0 -1
vn 0 -1 0
vn 0 1 0

# texcoords
vt 0.779297 0.5
vt 0.802734 0.5
vt 0.806641 0.5
vt 0.810547 0.5
vt 0.837891 0.5
vt 0.841797 0.5
vt 0.888672 0.5

# verts
v -8 3 8
v -8 3 6
v -8 4 8
v -8 4 6
v -7 3 10
v -7 3 9
v -7 3 8
v -7 3 6
v -7 3 5
v -7 4 11
v -7 4 10
v -7 4 9
v -7 4 8
v -7 4 7
v -7 4 6
v -7 5 11
v -7 5 10
v -7 5 9
v -7 5 8
v -7 5 7
v -7 5 6
v -7 5 5
v -7 6 10
v -7 6 9
v -7 6 8
v -7 7 10
v -7 7 8
v -6 3 12
v -6 3 10
v -6 3 5
v -6 3 4
v -6 4 13
v -6 4 12
v -6 4 11
v -6 4 10
v -6 4 7
v -6 4 6
v -6 5 13
v -6 5 12
v -6 5 11
v -6 5 10
v -6 5 8
v -6 5 7
v -6 5 6
v -6 5 5
v -6 5 4
v -6 6 12
v -6 6 10
v -6 6 8
v -6 6 7
v -6 7 12
v -6 7 10
v -6 7 9
v -6 7 8
v -6 8 9
v -6 8 8
v -5 4 14
v -5 4 13
v -5 5 14
v -5 5 13
v -5 5 12
v -5 5 7
v -5 5 6
v -5 5 5
v -5 5 4
v -5 6 13
v -5 6 12
v -5 6 8
v -5 6 7
v -5 7 12
v -5 7 9
v -5 8 12
v -5 8 11
v -5 8 9
v -5 8 8
v -5 10 11
v -5 10 4
v -4 2 12
v -4 2 4
v -4 3 15
v -4 3 14
v -4 3 13
v -4 3 12
v -4 3 4
v -4 4 15
v -4 4 14
v -4 4 13
v -4 4 12
v -4 5 14
v -4 5 13
v -4 6 14
v -4 6 13
v -4 6 12
v -4 8 12
v -4 8 11
v -4 10 13
v -4 10 11
v 0 3 16
v 0 3 15
v 0 4 16
v 0 4 15
v 2 4 14
v 2 4 13
v 2 5 14
v 2 5 13
v -3 5 14
v -3 5 13
v -3 6 14
v -3 6 13
v 0 4 14
v 0 4 13
v 0 5 14
v 0 5 13
v 2 3 16
v 2 3 15
v 2 4 16
v 2 4 15
v 3 3 15
v 3 3 14
v 3 4 15
v 3 4 14
v 4 2 12
v 4 2 4
v 4 3 14
v 4 3 13
v 4 3 12
v 4 3 4
v 4 4 14
v 4 4 13
v 4 4 12
v 4 5 14
v 4 5 13
v 4 10 13
v 4 10 12
v 5 3 13
v 5 3 12
v 5 3 11
v 5 3 4
v 5 4 13
v 5 4 12
v 5 4 11
v 5 8 10
v 5 8 9
v 5 9 11
v 5 9 10
v 5 9 9
v 5 10 12
v 5 10 11
v 5 10 10
v 5 10 9
v 5 10 4
v 6 3 12
v 6 3 11
v 6 4 12
v 6 4 11
v 0 3 16
v 0 4 16
v 1 3 16
v 1 4 16
v 2 3 16
v 2 4 16
v -4 3 15
v -4 4 15
v 0 3 15
v 0 4 15
v 2 3 15
v 2 4 15
v 3 3 15
v 3 4 15
v -5 4 14
v -5 5 14
v -4 4 14
v -4 5 14
v -4 6 14
v -3 4 14
v -3 5 14
v -3 6 14
v -2 4 14
v -2 5 14
v 0 4 14
v 0 5 14
v 2 4 14
v 2 5 14
v 3 3 14
v 3 4 14
v 4 3 14
v 4 4 14
v 4 5 14
v -6 4 13
v -6 5 13
v -5 4 13
v -5 5 13
v -5 6 13
v -4 5 13
v -4 6 13
v -4 10 13
v -3 5 13
v -3 6 13
v -2 5 13
v 0 4 13
v 0 5 13
v 2 4 13
v 2 5 13
v 4 3 13
v 4 4 13
v 4 5 13
v 4 10 13
v 5 3 13
v 5 4 13
v -6 3 12
v -6 4 12
v -6 5 12
v -6 6 12
v -6 7 12
v -5 3 12
v -5 4 12
v -5 5 12
v -5 6 12
v -5 7 12
v -5 8 12
v -4 2 12
v -4 3 12
v -4 4 12
v -4 6 12
v -4 8 12
v 4 2 12
v 4 3 12
v 4 4 12
v 4 10 12
v 5 3 12
v 5 4 12
v 5 10 12
v 6 3 12
v 6 4 12
v -7 4 11
v -7 5 11
v -6 4 11
v -6 5 11
v -5 8 11
v -5 10 11
v -4 8 11
v -4 10 11
v -7 3 10
v -7 4 10
v -7 5 10
v -7 6 10
v -7 7 10
v -6 3 10
v -6 4 10
v -6 5 10
v -6 6 10
v -6 7 10
v -6 7 9
v -6 8 9
v -5 7 9
v -5 8 9
v -8 3 8
v -8 4 8
v -7 3 8
v -7 4 8
v -7 4 6
v -7 5 6
v -6 4 6
v -6 5 6
v 5 3 11
v 5 4 11
v 6 3 11
v 6 4 11
v -7 5 8
v -7 6 8
v -7 7 8
v -6 5 8
v -6 6 8
v -6 7 8
v -6 8 8
v -5 6 8
v -5 8 8
v -7 4 7
v -7 5 7
v -6 4 7
v -6 5 7
v -6 6 7
v -5 5 7
v -5 6 7
v -8 3 6
v -8 4 6
v -7 3 6
v -7 4 6
v -7 3 5
v -7 5 5
v -6 3 5
v -6 5 5
v -6 3 4
v -6 5 4
v -5 3 4
v -5 5 4
v -5 10 4
v -4 2 4
v -4 3 4
v 4 2 4
v 4 3 4
v 5 3 4
v 5 10 4
v -4 2 12
v 4 2 12
v -4 2 4
v 4 2 4
v 0 3 16
v 1 3 16
v 2 3 16
v -4 3 15
v 0 3 15
v 1 3 15
v 2 3 15
v 3 3 15
v -4 3 14
v 3 3 14
v 4 3 14
v -4 3 13
v 3 3 13
v 4 3 13
v 5 3 13
v -6 3 12
v -5 3 12
v -4 3 12
v 4 3 12
v 5 3 12
v 6 3 12
v 5 3 11
v 6 3 11
v -7 3 10
v -6 3 10
v -5 3 10
v -7 3 9
v -6 3 9
v -8 3 8
v -7 3 8
v -8 3 6
v -7 3 6
v -7 3 5
v -6 3 5
v -5 3 5
v -6 3 4
v -5 3 4
v -4 3 4
v 4 3 4
v 5 3 4
v -5 4 14
v -4 4 14
v -6 4 13
v -5 4 13
v -4 4 13
v -6 4 12
v -5 4 12
v -4 4 12
v -7 4 11
v -6 4 11
v -7 4 10
v -6 4 10
v 0 4 16
v 1 4 16
v 2 4 16
v -4 4 15
v 0 4 15
v 1 4 15
v 2 4 15
v 3 4 15
v -4 4 14
v -3 4 14
v -2 4 14
v 0 4 14
v 2 4 14
v 3 4 14
v 0 4 13
v 2 4 13
v 4 4 13
v 5 4 13
v 4 4 12
v 5 4 12
v 6 4 12
v 5 4 11
v 6 4 11
v -8 4 8
v -7 4 8
v -7 4 7
v -6 4 7
v -8 4 6
v -7 4 6
v -6 4 6
v -5 5 14
v -4 5 14
v -3 5 14
v -2 5 14
v 0 5 14
v 2 5 14
v 4 5 14
v -6 5 13
v -5 5 13
v -4 5 13
v -3 5 13
v -2 5 13
v 0 5 13
v 2 5 13
v 4 5 13
v -6 5 12
v -5 5 12
v -7 5 11
v -6 5 11
v -7 5 10
v -6 5 10
v -7 5 8
v -6 5 8
v -7 5 7
v -6 5 7
v -5 5 7
v -7 5 6
v -6 5 6
v -5 5 6
v -7 5 5
v -6 5 5
v -5 5 5
v -6 5 4
v -5 5 4
v -4 6 14
v -3 6 14
v -5 6 13
v -4 6 13
v -3 6 13
v -5 6 12
v -4 6 12
v -6 6 8
v -5 6 8
v -6 6 7
v -5 6 7
v -6 7 12
v -5 7 12
v -7 7 10
v -6 7 10
v -6 7 9
v -5 7 9
v -7 7 8
v -6 7 8
v -5 8 12
v -4 8 12
v -5 8 11
v -4 8 11
v -6 8 9
v -5 8 9
v -6 8 8
v -5 8 8
v -4 10 13
v 4 10 13
v 4 10 12
v 5 10 12
v -5 10 11
v -4 10 11
v 4 10 11
v 5 10 11
v 4 10 10
v 5 10 10
v 4 10 9
v 5 10 9
v -5 10 4
v 5 10 4

# faces
f 3/5/1 2/5/1 1/5/1
f 4/5/1 2/5/1 3/5/1
f 11/6/1 6/6/1 5/6/1
f 12/7/1 7/7/1 6/7/1
f 12/6/1 6/6/1 11/6/1
f 13/7/1 7/7/1 12/7/1
f 15/7/1 9/7/1 8/7/1
f 16/5/1 11/5/1 10/5/1
f 17/7/1 12/7/1 11/7/1
f 17/5/1 11/5/1 16/5/1
f 17/7/1 13/7/1 12/7/1
f 18/7/1 13/7/1 17/7/1
f 19/5/1 14/5/1 13/5/1
f 19/7/1 13/7/1 18/7/1
f 20/5/1 14/5/1 19/5/1
f 21/7/1 9/7/1 15/7/1
f 22/7/1 9/7/1 21/7/1
f 23/5/1 18/5/1 17/5/1
f 24/1/1 19/1/1 18/1/1
f 24/5/1 18/5/1 23/5/1
f 25/1/1 19/1/1 24/1/1
f 26/7/1 24/7/1 23/7/1
f 26/7/1 25/7/1 24/7/1
f 27/7/1 25/7/1 26/7/1
f 33/6/1 29/6/1 28/6/1
f 34/6/1 29/6/1 33/6/1
f 35/6/1 29/6/1 34/6/1
f 38/5/1 33/5/1 32/5/1
f 39/7/1 34/7/1 33/7/1
f 39/5/1 33/5/1 38/5/1
f 40/7/1 34/7/1 39/7/1
f 43/1/1 37/1/1 36/1/1
f 44/1/1 37/1/1 43/1/1
f 45/6/1 31/6/1 30/6/1
f 46/6/1 31/6/1 45/6/1
f 47/1/1 41/1/1 40/1/1
f 47/1/1 40/1/1 39/1/1
f 48/1/1 41/1/1 47/1/1
f 49/7/1 43/7/1 42/7/1
f 50/7/1 43/7/1 49/7/1
f 51/7/1 48/7/1 47/7/1
f 52/7/1 48/7/1 51/7/1
f 55/7/1 54/7/1 53/7/1
f 56/7/1 54/7/1 55/7/1
f 59/1/1 58/1/1 57/1/1
f 60/1/1 58/1/1 59/1/1
f 66/7/1 61/7/1 60/7/1
f 67/7/1 61/7/1 66/7/1
f 69/3/1 65/3/1 64/3/1
f 69/3/1 64/3/1 63/3/1
f 69/3/1 63/3/1 62/3/1
f 72/3/1 71/3/1 70/3/1
f 73/3/1 71/3/1 72/3/1
f 74/3/1 71/3/1 73/3/1
f 75/3/1 69/3/1 68/3/1
f 76/3/1 74/3/1 73/3/1
f 76/3/1 75/3/1 74/3/1
f 77/3/1 69/3/1 75/3/1
f 77/3/1 75/3/1 76/3/1
f 77/3/1 65/3/1 69/3/1
f 83/3/1 79/3/1 78/3/1
f 84/3/1 79/3/1 83/3/1
f 85/1/1 81/1/1 80/1/1
f 86/7/1 82/7/1 81/7/1
f 86/1/1 81/1/1 85/1/1
f 87/3/1 83/3/1 82/3/1
f 87/7/1 82/7/1 86/7/1
f 88/3/1 83/3/1 87/3/1
f 91/7/1 90/7/1 89/7/1
f 92/7/1 90/7/1 91/7/1
f 94/3/1 93/3/1 92/3/1
f 96/3/1 94/3/1 92/3/1
f 96/3/1 95/3/1 94/3/1
f 97/3/1 95/3/1 96/3/1
f 100/1/1 99/1/1 98/1/1
f 101/1/1 99/1/1 100/1/1
f 104/7/1 103/7/1 102/7/1
f 105/7/1 103/7/1 104/7/1
f 106/7/2 107/7/2 108/7/2
f 108/7/2 107/7/2 109/7/2
f 110/7/2 111/7/2 112/7/2
f 112/7/2 111/7/2 113/7/2
f 114/6/2 115/6/2 116/6/2
f 116/6/2 115/6/2 117/6/2
f 118/1/2 119/1/2 120/1/2
f 120/1/2 119/1/2 121/1/2
f 122/3/2 123/3/2 126/3/2
f 126/3/2 123/3/2 127/3/2
f 124/5/2 125/5/2 128/5/2
f 128/5/2 125/5/2 129/5/2
f 128/7/2 129/7/2 131/7/2
f 129/3/2 130/3/2 132/3/2
f 131/7/2 129/7/2 132/7/2
f 132/3/2 130/3/2 133/3/2
f 133/3/2 130/3/2 134/3/2
f 135/6/2 136/6/2 139/6/2
f 139/6/2 136/6/2 140/6/2
f 137/3/2 138/3/2 141/3/2
f 140/3/2 141/3/2 142/3/2
f 141/3/2 138/3/2 142/3/2
f 142/3/2 138/3/2 143/3/2
f 140/3/2 142/3/2 144/3/2
f 142/4/2 143/4/2 145/4/2
f 144/3/2 142/3/2 145/3/2
f 143/3/2 138/3/2 146/3/2
f 145/4/2 143/4/2 146/4/2
f 140/3/2 144/3/2 147/3/2
f 144/4/2 145/4/2 148/4/2
f 147/3/2 144/3/2 148/3/2
f 145/2/2 146/2/2 149/2/2
f 148/4/2 145/4/2 149/4/2
f 146/3/2 138/3/2 150/3/2
f 149/2/2 146/2/2 150/2/2
f 150/3/2 138/3/2 151/3/2
f 152/7/2 153/7/2 154/7/2
f 154/7/2 153/7/2 155/7/2
f 158/1/3 157/1/3 156/1/3
f 159/1/3 157/1/3 158/1/3
f 160/6/3 159/6/3 158/6/3
f 161/6/3 159/6/3 160/6/3
f 164/1/3 163/1/3 162/1/3
f 165/1/3 163/1/3 164/1/3
f 168/1/3 167/1/3 166/1/3
f 169/1/3 167/1/3 168/1/3
f 172/1/3 171/1/3 170/1/3
f 173/1/3 171/1/3 172/1/3
f 175/7/3 173/7/3 172/7/3
f 175/7/3 174/7/3 173/7/3
f 176/7/3 174/7/3 175/7/3
f 177/7/3 174/7/3 176/7/3
f 178/5/3 176/5/3 175/5/3
f 179/5/3 176/5/3 178/5/3
f 180/7/3 179/7/3 178/7/3
f 181/7/3 179/7/3 180/7/3
f 185/7/3 183/7/3 182/7/3
f 186/5/3 185/5/3 184/5/3
f 187/7/3 183/7/3 185/7/3
f 187/5/3 185/5/3 186/5/3
f 188/7/3 183/7/3 187/7/3
f 191/5/3 190/5/3 189/5/3
f 192/5/3 190/5/3 191/5/3
f 194/7/3 193/7/3 192/7/3
f 195/7/3 193/7/3 194/7/3
f 198/3/3 196/3/3 195/3/3
f 199/3/3 198/3/3 197/3/3
f 201/3/3 198/3/3 199/3/3
f 202/3/3 201/3/3 200/3/3
f 203/3/3 198/3/3 201/3/3
f 203/3/3 201/3/3 202/3/3
f 206/3/3 198/3/3 203/3/3
f 207/3/3 196/3/3 198/3/3
f 207/3/3 198/3/3 206/3/3
f 208/6/3 205/6/3 204/6/3
f 209/6/3 205/6/3 208/6/3
f 215/6/3 211/6/3 210/6/3
f 216/6/3 211/6/3 215/6/3
f 217/1/3 213/1/3 212/1/3
f 218/7/3 214/7/3 213/7/3
f 218/1/3 213/1/3 217/1/3
f 219/7/3 214/7/3 218/7/3
f 222/3/3 216/3/3 215/3/3
f 223/3/3 216/3/3 222/3/3
f 224/3/3 219/3/3 218/3/3
f 224/3/3 220/3/3 219/3/3
f 225/3/3 220/3/3 224/3/3
f 226/3/3 222/3/3 221/3/3
f 227/3/3 222/3/3 226/3/3
f 231/3/3 229/3/3 228/3/3
f 232/3/3 229/3/3 231/3/3
f 233/7/3 231/7/3 230/7/3
f 234/7/3 231/7/3 233/7/3
f 237/5/3 236/5/3 235/5/3
f 238/5/3 236/5/3 237/5/3
f 241/3/3 240/3/3 239/3/3
f 242/3/3 240/3/3 241/3/3
f 248/6/3 244/6/3 243/6/3
f 249/6/3 244/6/3 248/6/3
f 250/5/3 246/5/3 245/5/3
f 251/7/3 247/7/3 246/7/3
f 251/5/3 246/5/3 250/5/3
f 252/7/3 247/7/3 251/7/3
f 255/7/3 254/7/3 253/7/3
f 256/7/3 254/7/3 255/7/3
f 259/5/3 258/5/3 257/5/3
f 260/5/3 258/5/3 259/5/3
f 263/7/3 262/7/3 261/7/3
f 264/7/3 262/7/3 263/7/3
f 265/7/4 266/7/4 267/7/4
f 267/7/4 266/7/4 268/7/4
f 269/1/4 270/1/4 272/1/4
f 270/7/4 271/7/4 273/7/4
f 272/1/4 270/1/4 273/1/4
f 273/7/4 271/7/4 274/7/4
f 274/7/4 275/7/4 276/7/4
f 273/7/4 274/7/4 276/7/4
f 276/7/4 275/7/4 277/7/4
f 278/5/4 279/5/4 280/5/4
f 280/5/4 279/5/4 281/5/4
f 281/7/4 282/7/4 283/7/4
f 283/7/4 282/7/4 284/7/4
f 285/5/4 286/5/4 287/5/4
f 287/5/4 286/5/4 288/5/4
f 289/7/4 290/7/4 291/7/4
f 291/7/4 290/7/4 292/7/4
f 293/6/4 294/6/4 295/6/4
f 295/6/4 294/6/4 296/6/4
f 295/3/4 296/3/4 299/3/4
f 296/3/4 297/3/4 299/3/4
f 298/3/4 299/3/4 300/3/4
f 299/3/4 297/3/4 301/3/4
f 300/3/4 299/3/4 301/3/4
f 301/3/4 297/3/4 302/3/4
f 302/3/4 297/3/4 303/3/4
f 306/3/5 305/3/5 304/3/5
f 307/3/5 305/3/5 306/3/5
f 312/1/5 309/1/5 308/1/5
f 313/6/5 310/6/5 309/6/5
f 313/1/5 309/1/5 312/1/5
f 314/6/5 310/6/5 313/6/5
f 316/1/5 312/1/5 311/1/5
f 316/1/5 315/1/5 314/1/5
f 316/1/5 314/1/5 313/1/5
f 316/1/5 313/1/5 312/1/5
f 317/1/5 315/1/5 316/1/5
f 319/7/5 317/7/5 316/7/5
f 320/5/5 318/5/5 317/5/5
f 320/7/5 317/7/5 319/7/5
f 321/5/5 318/5/5 320/5/5
f 325/3/5 320/3/5 319/3/5
f 325/3/5 321/3/5 320/3/5
f 326/6/5 322/6/5 321/6/5
f 326/3/5 321/3/5 325/3/5
f 327/6/5 322/6/5 326/6/5
f 329/7/5 328/7/5 327/7/5
f 329/3/5 327/3/5 326/3/5
f 330/7/5 328/7/5 329/7/5
f 332/6/5 324/6/5 323/6/5
f 333/3/5 325/3/5 324/3/5
f 333/6/5 324/6/5 332/6/5
f 334/6/5 332/6/5 331/6/5
f 335/7/5 333/7/5 332/7/5
f 335/6/5 332/6/5 334/6/5
f 337/7/5 335/7/5 334/7/5
f 338/5/5 337/5/5 336/5/5
f 339/7/5 335/7/5 337/7/5
f 339/5/5 337/5/5 338/5/5
f 340/7/5 335/7/5 339/7/5
f 341/7/5 333/7/5 335/7/5
f 341/7/5 335/7/5 340/7/5
f 342/3/5 325/3/5 333/3/5
f 342/7/5 333/7/5 341/7/5
f 343/6/5 342/6/5 341/6/5
f 344/3/5 325/3/5 342/3/5
f 344/6/5 342/6/5 343/6/5
f 345/3/5 325/3/5 344/3/5
f 346/3/5 329/3/5 326/3/5
f 347/3/5 329/3/5 346/3/5
f 351/1/5 349/1/5 348/1/5
f 352/1/5 349/1/5 351/1/5
f 353/5/5 351/5/5 350/5/5
f 354/7/5 352/7/5 351/7/5
f 354/5/5 351/5/5 353/5/5
f 355/7/5 352/7/5 354/7/5
f 358/5/5 357/5/5 356/5/5
f 359/5/5 357/5/5 358/5/5
f 360/1/6 361/1/6 364/1/6
f 361/6/6 362/6/6 365/6/6
f 364/1/6 361/1/6 365/1/6
f 365/6/6 362/6/6 366/6/6
f 363/1/6 364/1/6 368/1/6
f 366/1/6 367/1/6 368/1/6
f 365/1/6 366/1/6 368/1/6
f 364/1/6 365/1/6 368/1/6
f 368/1/6 367/1/6 369/1/6
f 369/1/6 367/1/6 370/1/6
f 370/1/6 367/1/6 371/1/6
f 371/1/6 367/1/6 372/1/6
f 372/1/6 367/1/6 373/1/6
f 371/7/6 372/7/6 374/7/6
f 374/7/6 372/7/6 375/7/6
f 376/6/6 377/6/6 378/6/6
f 378/6/6 377/6/6 379/6/6
f 379/7/6 380/7/6 381/7/6
f 381/7/6 380/7/6 382/7/6
f 383/5/6 384/5/6 385/5/6
f 383/5/6 385/5/6 387/5/6
f 385/7/6 386/7/6 388/7/6
f 387/5/6 385/5/6 388/5/6
f 388/7/6 386/7/6 389/7/6
f 390/1/6 391/1/6 398/1/6
f 398/1/6 391/1/6 399/1/6
f 392/5/6 393/5/6 400/5/6
f 393/7/6 394/7/6 401/7/6
f 400/5/6 393/5/6 401/5/6
f 401/7/6 394/7/6 402/7/6
f 395/7/6 396/7/6 403/7/6
f 403/7/6 396/7/6 404/7/6
f 397/5/6 398/5/6 405/5/6
f 405/5/6 398/5/6 406/5/6
f 407/5/6 408/5/6 409/5/6
f 409/5/6 408/5/6 410/5/6
f 411/5/6 412/5/6 413/5/6
f 413/5/6 412/5/6 414/5/6
f 414/1/6 415/1/6 417/1/6
f 417/1/6 415/1/6 418/1/6
f 416/7/6 417/7/6 419/7/6
f 417/7/6 418/7/6 419/7/6
f 419/7/6 418/7/6 420/7/6
f 420/7/6 418/7/6 421/7/6
f 420/6/6 421/6/6 422/6/6
f 422/6/6 421/6/6 423/6/6
f 424/7/6 425/7/6 427/7/6
f 427/7/6 425/7/6 428/7/6
f 426/7/6 427/7/6 429/7/6
f 429/7/6 427/7/6 430/7/6
f 431/7/6 432/7/6 433/7/6
f 433/7/6 432/7/6 434/7/6
f 435/7/6 436/7/6 438/7/6
f 438/7/6 436/7/6 439/7/6
f 437/7/6 438/7/6 439/7/6
f 439/7/6 436/7/6 440/7/6
f 437/7/6 439/7/6 441/7/6
f 441/7/6 439/7/6 442/7/6
f 443/3/6 444/3/6 445/3/6
f 445/3/6 444/3/6 446/3/6
f 447/7/6 448/7/6 449/7/6
f 449/7/6 448/7/6 450/7/6
f 451/3/6 452/3/6 453/3/6
f 451/3/6 453/3/6 456/3/6
f 453/3/6 454/3/6 456/3/6
f 456/3/6 454/3/6 457/3/6
f 457/3/6 454/3/6 458/3/6
f 455/3/6 456/3/6 459/3/6
f 456/3/6 457/3/6 459/3/6
f 457/4/6 458/4/6 459/4/6
f 459/4/6 458/4/6 460/4/6
f 455/3/6 459/3/6 461/3/6
f 459/2/6 460/2/6 461/2/6
f 461/2/6 460/2/6 462/2/6
f 455/3/6 461/3/6 463/3/6
f 461/3/6 462/3/6 463/3/6
f 463/3/6 462/3/6 464/3/6
