# MagicaVoxel @ Ephtracy

# group
o 

# material
mtllib DarknessChestplateNoArm.mtl
usemtl palette

# normals
vn -1 0 0
vn 1 0 0
vn 0 0 1
vn 0 0 -1
vn 0 -1 0
vn 0 1 0

# texcoords
vt 0.974609 0.5
vt 0.978516 0.5
vt 0.982422 0.5
vt 0.986328 0.5

# verts
v 0.7 1.6 -0.1
v 0.7 1.6 -0.2
v 0.7 2.2 -0.1
v 0.7 2.2 -0.2
v 0.8 1.2 -0.6
v 0.8 1.2 -0.7
v 0.8 1.3 -0.1
v 0.8 1.3 -0.2
v 0.8 1.4 -0.6
v 0.8 1.4 -0.7
v 0.8 1.6 0
v 0.8 1.6 -0.1
v 0.8 1.6 -0.2
v 0.8 1.9 -0.6
v 0.8 1.9 -0.7
v 0.8 2.1 0
v 0.8 2.1 -0.1
v 0.8 2.3 -0.6
v 0.8 2.3 -0.7
v 0.9 1.1 -0.6
v 0.9 1.1 -0.7
v 0.9 1.2 -0.1
v 0.9 1.2 -0.2
v 0.9 1.2 -0.6
v 0.9 1.2 -0.7
v 0.9 1.3 -0.1
v 0.9 1.3 -0.2
v 0.9 1.5 0
v 0.9 1.5 -0.1
v 0.9 1.6 0
v 0.9 1.6 -0.1
v 0.9 1.7 -0.6
v 0.9 1.7 -0.7
v 0.9 1.9 -0.6
v 0.9 1.9 -0.7
v 0.9 2 -0.7
v 0.9 2 -0.8
v 0.9 2.3 -0.7
v 0.9 2.3 -0.8
v 1 1.1 -0.1
v 1 1.1 -0.2
v 1 1.1 -0.7
v 1 1.1 -0.9
v 1 1.2 -0.1
v 1 1.2 -0.2
v 1 1.4 0
v 1 1.4 -0.1
v 1 1.4 -0.6
v 1 1.4 -0.7
v 1 1.5 0
v 1 1.5 -0.1
v 1 1.6 -0.8
v 1 1.6 -0.9
v 1 1.7 -0.6
v 1 1.7 -0.7
v 1 1.7 -0.8
v 1.1 1 -0.1
v 1.1 1 -0.2
v 1.1 1 -0.8
v 1.1 1 -1
v 1.1 1.1 -0.1
v 1.1 1.1 -0.2
v 1.1 1.1 -0.8
v 1.1 1.1 -0.9
v 1.1 1.3 -0.9
v 1.1 1.3 -1
v 1.1 1.6 -0.8
v 1.1 1.6 -0.9
v 1.1 1.7 -0.7
v 1.1 1.7 -0.8
v 1.1 1.7 -0.9
v 1.1 1.9 -0.7
v 1.1 1.9 -0.8
v 1.3 1.9 0
v 1.3 1.9 -0.1
v 1.3 2 0
v 1.3 2 -0.1
v 1.4 2 0
v 1.4 2 -0.1
v 1.4 2.1 0
v 1.4 2.1 -0.1
v 1.5 2.1 -0.1
v 1.5 2.1 -0.2
v 1.5 2.2 -0.1
v 1.5 2.2 -0.2
v 0.9 2.1 -0.1
v 0.9 2.1 -0.2
v 0.9 2.2 -0.1
v 0.9 2.2 -0.2
v 1 2 0
v 1 2 -0.1
v 1 2.1 0
v 1 2.1 -0.1
v 1.1 1.9 0
v 1.1 1.9 -0.1
v 1.1 2 0
v 1.1 2 -0.1
v 1.3 1 -0.1
v 1.3 1 -0.2
v 1.3 1 -0.8
v 1.3 1 -1
v 1.3 1.1 -0.1
v 1.3 1.1 -0.2
v 1.3 1.1 -0.8
v 1.3 1.1 -0.9
v 1.3 1.3 -0.9
v 1.3 1.3 -1
v 1.3 1.6 -0.8
v 1.3 1.6 -0.9
v 1.3 1.7 -0.7
v 1.3 1.7 -0.8
v 1.3 1.7 -0.9
v 1.3 1.9 -0.7
v 1.3 1.9 -0.8
v 1.4 1.1 -0.1
v 1.4 1.1 -0.2
v 1.4 1.1 -0.7
v 1.4 1.1 -0.9
v 1.4 1.2 -0.1
v 1.4 1.2 -0.2
v 1.4 1.4 0
v 1.4 1.4 -0.1
v 1.4 1.4 -0.6
v 1.4 1.4 -0.7
v 1.4 1.5 0
v 1.4 1.5 -0.1
v 1.4 1.6 -0.8
v 1.4 1.6 -0.9
v 1.4 1.7 -0.6
v 1.4 1.7 -0.7
v 1.4 1.7 -0.8
v 1.5 1.1 -0.6
v 1.5 1.1 -0.7
v 1.5 1.2 -0.1
v 1.5 1.2 -0.2
v 1.5 1.2 -0.6
v 1.5 1.2 -0.7
v 1.5 1.3 -0.1
v 1.5 1.3 -0.2
v 1.5 1.5 0
v 1.5 1.5 -0.1
v 1.5 1.6 0
v 1.5 1.6 -0.1
v 1.5 1.7 -0.6
v 1.5 1.7 -0.7
v 1.5 1.9 -0.6
v 1.5 1.9 -0.7
v 1.5 2 -0.7
v 1.5 2 -0.8
v 1.5 2.3 -0.7
v 1.5 2.3 -0.8
v 1.6 1.2 -0.6
v 1.6 1.2 -0.7
v 1.6 1.3 -0.1
v 1.6 1.3 -0.2
v 1.6 1.4 -0.6
v 1.6 1.4 -0.7
v 1.6 1.6 0
v 1.6 1.6 -0.1
v 1.6 1.6 -0.2
v 1.6 1.9 -0.6
v 1.6 1.9 -0.7
v 1.6 2.1 0
v 1.6 2.1 -0.1
v 1.6 2.3 -0.6
v 1.6 2.3 -0.7
v 1.7 1.6 -0.1
v 1.7 1.6 -0.2
v 1.7 2.2 -0.1
v 1.7 2.2 -0.2
v 0.8 1.6 0
v 0.8 2.1 0
v 0.9 1.5 0
v 0.9 1.6 0
v 1 1.4 0
v 1 1.5 0
v 1 1.8 0
v 1 2 0
v 1 2.1 0
v 1.1 1.6 0
v 1.1 1.8 0
v 1.1 1.9 0
v 1.1 2 0
v 1.3 1.6 0
v 1.3 1.8 0
v 1.3 1.9 0
v 1.3 2 0
v 1.4 1.4 0
v 1.4 1.5 0
v 1.4 1.8 0
v 1.4 2 0
v 1.4 2.1 0
v 1.5 1.5 0
v 1.5 1.6 0
v 1.6 1.6 0
v 1.6 2.1 0
v 0.7 1.6 -0.1
v 0.7 2.2 -0.1
v 0.8 1.3 -0.1
v 0.8 1.6 -0.1
v 0.8 2.1 -0.1
v 0.9 1.2 -0.1
v 0.9 1.3 -0.1
v 0.9 1.5 -0.1
v 0.9 1.6 -0.1
v 0.9 2.1 -0.1
v 0.9 2.2 -0.1
v 1 1.1 -0.1
v 1 1.2 -0.1
v 1 1.4 -0.1
v 1 1.5 -0.1
v 1 2 -0.1
v 1 2.1 -0.1
v 1.1 1 -0.1
v 1.1 1.1 -0.1
v 1.1 1.9 -0.1
v 1.1 2 -0.1
v 1.3 1 -0.1
v 1.3 1.1 -0.1
v 1.3 1.9 -0.1
v 1.3 2 -0.1
v 1.4 1.1 -0.1
v 1.4 1.2 -0.1
v 1.4 1.4 -0.1
v 1.4 1.5 -0.1
v 1.4 2 -0.1
v 1.4 2.1 -0.1
v 1.5 1.2 -0.1
v 1.5 1.3 -0.1
v 1.5 1.5 -0.1
v 1.5 1.6 -0.1
v 1.5 2.1 -0.1
v 1.5 2.2 -0.1
v 1.6 1.3 -0.1
v 1.6 1.6 -0.1
v 1.6 2.1 -0.1
v 1.7 1.6 -0.1
v 1.7 2.2 -0.1
v 0.8 1.2 -0.6
v 0.8 1.4 -0.6
v 0.8 1.9 -0.6
v 0.8 2.3 -0.6
v 0.9 1.1 -0.6
v 0.9 1.2 -0.6
v 0.9 1.7 -0.6
v 0.9 1.9 -0.6
v 1 1.4 -0.6
v 1 1.7 -0.6
v 1.4 1.4 -0.6
v 1.4 1.7 -0.6
v 1.5 1.1 -0.6
v 1.5 1.2 -0.6
v 1.5 1.7 -0.6
v 1.5 1.9 -0.6
v 1.6 1.2 -0.6
v 1.6 1.4 -0.6
v 1.6 1.9 -0.6
v 1.6 2.3 -0.6
v 1.1 1 -0.8
v 1.1 1.1 -0.8
v 1.3 1 -0.8
v 1.3 1.1 -0.8
v 0.7 1.6 -0.2
v 0.7 2.2 -0.2
v 0.8 1.3 -0.2
v 0.8 1.6 -0.2
v 0.9 1.2 -0.2
v 0.9 1.3 -0.2
v 0.9 2.1 -0.2
v 0.9 2.2 -0.2
v 1 1.1 -0.2
v 1 1.2 -0.2
v 1.1 1 -0.2
v 1.1 1.1 -0.2
v 1.3 1 -0.2
v 1.3 1.1 -0.2
v 1.4 1.1 -0.2
v 1.4 1.2 -0.2
v 1.5 1.2 -0.2
v 1.5 1.3 -0.2
v 1.5 2.1 -0.2
v 1.5 2.2 -0.2
v 1.6 1.3 -0.2
v 1.6 1.6 -0.2
v 1.7 1.6 -0.2
v 1.7 2.2 -0.2
v 0.8 1.2 -0.7
v 0.8 1.4 -0.7
v 0.8 1.9 -0.7
v 0.8 2.3 -0.7
v 0.9 1.1 -0.7
v 0.9 1.2 -0.7
v 0.9 1.7 -0.7
v 0.9 1.9 -0.7
v 0.9 2 -0.7
v 0.9 2.3 -0.7
v 1 1.1 -0.7
v 1 1.4 -0.7
v 1 1.7 -0.7
v 1.1 1.7 -0.7
v 1.1 1.9 -0.7
v 1.3 1.7 -0.7
v 1.3 1.9 -0.7
v 1.4 1.1 -0.7
v 1.4 1.4 -0.7
v 1.4 1.7 -0.7
v 1.5 1.1 -0.7
v 1.5 1.2 -0.7
v 1.5 1.7 -0.7
v 1.5 1.9 -0.7
v 1.5 2 -0.7
v 1.5 2.3 -0.7
v 1.6 1.2 -0.7
v 1.6 1.4 -0.7
v 1.6 1.9 -0.7
v 1.6 2.3 -0.7
v 0.9 2 -0.8
v 0.9 2.3 -0.8
v 1 1.6 -0.8
v 1 1.7 -0.8
v 1.1 1.6 -0.8
v 1.1 1.7 -0.8
v 1.1 1.9 -0.8
v 1.3 1.6 -0.8
v 1.3 1.7 -0.8
v 1.3 1.9 -0.8
v 1.4 1.6 -0.8
v 1.4 1.7 -0.8
v 1.5 2 -0.8
v 1.5 2.3 -0.8
v 1 1.1 -0.9
v 1 1.6 -0.9
v 1.1 1.1 -0.9
v 1.1 1.3 -0.9
v 1.1 1.6 -0.9
v 1.1 1.7 -0.9
v 1.3 1.1 -0.9
v 1.3 1.3 -0.9
v 1.3 1.6 -0.9
v 1.3 1.7 -0.9
v 1.4 1.1 -0.9
v 1.4 1.6 -0.9
v 1.1 1 -1
v 1.1 1.3 -1
v 1.3 1 -1
v 1.3 1.3 -1
v 1.1 1 -0.1
v 1.3 1 -0.1
v 1.1 1 -0.2
v 1.3 1 -0.2
v 1.1 1 -0.8
v 1.3 1 -0.8
v 1.1 1 -1
v 1.3 1 -1
v 1 1.1 -0.1
v 1.1 1.1 -0.1
v 1.3 1.1 -0.1
v 1.4 1.1 -0.1
v 1 1.1 -0.2
v 1.1 1.1 -0.2
v 1.3 1.1 -0.2
v 1.4 1.1 -0.2
v 0.9 1.1 -0.6
v 1.5 1.1 -0.6
v 0.9 1.1 -0.7
v 1 1.1 -0.7
v 1.4 1.1 -0.7
v 1.5 1.1 -0.7
v 1.1 1.1 -0.8
v 1.3 1.1 -0.8
v 1 1.1 -0.9
v 1.1 1.1 -0.9
v 1.3 1.1 -0.9
v 1.4 1.1 -0.9
v 0.9 1.2 -0.1
v 1 1.2 -0.1
v 1.4 1.2 -0.1
v 1.5 1.2 -0.1
v 0.9 1.2 -0.2
v 1 1.2 -0.2
v 1.4 1.2 -0.2
v 1.5 1.2 -0.2
v 0.8 1.2 -0.6
v 0.9 1.2 -0.6
v 1.5 1.2 -0.6
v 1.6 1.2 -0.6
v 0.8 1.2 -0.7
v 0.9 1.2 -0.7
v 1.5 1.2 -0.7
v 1.6 1.2 -0.7
v 0.8 1.3 -0.1
v 0.9 1.3 -0.1
v 1.5 1.3 -0.1
v 1.6 1.3 -0.1
v 0.8 1.3 -0.2
v 0.9 1.3 -0.2
v 1.5 1.3 -0.2
v 1.6 1.3 -0.2
v 1 1.4 0
v 1.4 1.4 0
v 1 1.4 -0.1
v 1.4 1.4 -0.1
v 0.9 1.5 0
v 1 1.5 0
v 1.4 1.5 0
v 1.5 1.5 0
v 0.9 1.5 -0.1
v 1 1.5 -0.1
v 1.4 1.5 -0.1
v 1.5 1.5 -0.1
v 0.8 1.6 0
v 0.9 1.6 0
v 1.5 1.6 0
v 1.6 1.6 0
v 0.7 1.6 -0.1
v 0.8 1.6 -0.1
v 0.9 1.6 -0.1
v 1.5 1.6 -0.1
v 1.6 1.6 -0.1
v 1.7 1.6 -0.1
v 0.7 1.6 -0.2
v 0.8 1.6 -0.2
v 1.6 1.6 -0.2
v 1.7 1.6 -0.2
v 0.9 1.7 -0.6
v 1 1.7 -0.6
v 1.4 1.7 -0.6
v 1.5 1.7 -0.6
v 0.9 1.7 -0.7
v 1 1.7 -0.7
v 1.4 1.7 -0.7
v 1.5 1.7 -0.7
v 0.8 1.9 -0.6
v 0.9 1.9 -0.6
v 1.5 1.9 -0.6
v 1.6 1.9 -0.6
v 0.8 1.9 -0.7
v 0.9 1.9 -0.7
v 1.5 1.9 -0.7
v 1.6 1.9 -0.7
v 0.9 2 -0.7
v 1.5 2 -0.7
v 0.9 2 -0.8
v 1.5 2 -0.8
v 1.1 1.3 -0.9
v 1.3 1.3 -0.9
v 1.1 1.3 -1
v 1.3 1.3 -1
v 0.8 1.4 -0.6
v 1 1.4 -0.6
v 1.4 1.4 -0.6
v 1.6 1.4 -0.6
v 0.8 1.4 -0.7
v 1 1.4 -0.7
v 1.4 1.4 -0.7
v 1.6 1.4 -0.7
v 1 1.6 -0.8
v 1.1 1.6 -0.8
v 1.3 1.6 -0.8
v 1.4 1.6 -0.8
v 1 1.6 -0.9
v 1.1 1.6 -0.9
v 1.3 1.6 -0.9
v 1.4 1.6 -0.9
v 1 1.7 -0.7
v 1.1 1.7 -0.7
v 1.3 1.7 -0.7
v 1.4 1.7 -0.7
v 1 1.7 -0.8
v 1.1 1.7 -0.8
v 1.3 1.7 -0.8
v 1.4 1.7 -0.8
v 1.1 1.7 -0.9
v 1.3 1.7 -0.9
v 1.1 1.9 0
v 1.3 1.9 0
v 1.1 1.9 -0.1
v 1.3 1.9 -0.1
v 1.1 1.9 -0.7
v 1.3 1.9 -0.7
v 1.1 1.9 -0.8
v 1.3 1.9 -0.8
v 1 2 0
v 1.1 2 0
v 1.3 2 0
v 1.4 2 0
v 1 2 -0.1
v 1.1 2 -0.1
v 1.3 2 -0.1
v 1.4 2 -0.1
v 0.8 2.1 0
v 1 2.1 0
v 1.4 2.1 0
v 1.6 2.1 0
v 0.8 2.1 -0.1
v 0.9 2.1 -0.1
v 1 2.1 -0.1
v 1.4 2.1 -0.1
v 1.5 2.1 -0.1
v 1.6 2.1 -0.1
v 0.9 2.1 -0.2
v 1.5 2.1 -0.2
v 0.7 2.2 -0.1
v 0.9 2.2 -0.1
v 1.5 2.2 -0.1
v 1.7 2.2 -0.1
v 0.7 2.2 -0.2
v 0.9 2.2 -0.2
v 1.5 2.2 -0.2
v 1.7 2.2 -0.2
v 0.8 2.3 -0.6
v 1.6 2.3 -0.6
v 0.8 2.3 -0.7
v 0.9 2.3 -0.7
v 1.5 2.3 -0.7
v 1.6 2.3 -0.7
v 0.9 2.3 -0.8
v 1.5 2.3 -0.8

# faces
f 3/4/1 2/4/1 1/4/1
f 4/4/1 2/4/1 3/4/1
f 9/4/1 6/4/1 5/4/1
f 10/4/1 6/4/1 9/4/1
f 12/4/1 8/4/1 7/4/1
f 13/4/1 8/4/1 12/4/1
f 16/3/1 12/3/1 11/3/1
f 17/3/1 12/3/1 16/3/1
f 18/4/1 15/4/1 14/4/1
f 19/4/1 15/4/1 18/4/1
f 24/4/1 21/4/1 20/4/1
f 25/4/1 21/4/1 24/4/1
f 26/4/1 23/4/1 22/4/1
f 27/4/1 23/4/1 26/4/1
f 30/3/1 29/3/1 28/3/1
f 31/3/1 29/3/1 30/3/1
f 34/4/1 33/4/1 32/4/1
f 35/4/1 33/4/1 34/4/1
f 38/4/1 37/4/1 36/4/1
f 39/4/1 37/4/1 38/4/1
f 44/4/1 41/4/1 40/4/1
f 45/4/1 41/4/1 44/4/1
f 49/3/1 43/3/1 42/3/1
f 50/3/1 47/3/1 46/3/1
f 51/3/1 47/3/1 50/3/1
f 52/3/1 43/3/1 49/3/1
f 53/3/1 43/3/1 52/3/1
f 54/4/1 49/4/1 48/4/1
f 55/3/1 52/3/1 49/3/1
f 55/4/1 49/4/1 54/4/1
f 56/3/1 52/3/1 55/3/1
f 61/4/1 58/4/1 57/4/1
f 62/4/1 58/4/1 61/4/1
f 63/1/1 60/1/1 59/1/1
f 64/1/1 60/1/1 63/1/1
f 65/1/1 60/1/1 64/1/1
f 66/1/1 60/1/1 65/1/1
f 70/3/1 68/3/1 67/3/1
f 71/3/1 68/3/1 70/3/1
f 72/4/1 70/4/1 69/4/1
f 73/4/1 70/4/1 72/4/1
f 76/2/1 75/2/1 74/2/1
f 77/2/1 75/2/1 76/2/1
f 80/3/1 79/3/1 78/3/1
f 81/3/1 79/3/1 80/3/1
f 84/4/1 83/4/1 82/4/1
f 85/4/1 83/4/1 84/4/1
f 86/4/2 87/4/2 88/4/2
f 88/4/2 87/4/2 89/4/2
f 90/3/2 91/3/2 92/3/2
f 92/3/2 91/3/2 93/3/2
f 94/2/2 95/2/2 96/2/2
f 96/2/2 95/2/2 97/2/2
f 98/4/2 99/4/2 102/4/2
f 102/4/2 99/4/2 103/4/2
f 100/1/2 101/1/2 104/1/2
f 104/1/2 101/1/2 105/1/2
f 105/1/2 101/1/2 106/1/2
f 106/1/2 101/1/2 107/1/2
f 108/3/2 109/3/2 111/3/2
f 111/3/2 109/3/2 112/3/2
f 110/4/2 111/4/2 113/4/2
f 113/4/2 111/4/2 114/4/2
f 115/4/2 116/4/2 119/4/2
f 119/4/2 116/4/2 120/4/2
f 117/3/2 118/3/2 124/3/2
f 121/3/2 122/3/2 125/3/2
f 125/3/2 122/3/2 126/3/2
f 124/3/2 118/3/2 127/3/2
f 127/3/2 118/3/2 128/3/2
f 123/4/2 124/4/2 129/4/2
f 124/3/2 127/3/2 130/3/2
f 129/4/2 124/4/2 130/4/2
f 130/3/2 127/3/2 131/3/2
f 132/4/2 133/4/2 136/4/2
f 136/4/2 133/4/2 137/4/2
f 134/4/2 135/4/2 138/4/2
f 138/4/2 135/4/2 139/4/2
f 140/3/2 141/3/2 142/3/2
f 142/3/2 141/3/2 143/3/2
f 144/4/2 145/4/2 146/4/2
f 146/4/2 145/4/2 147/4/2
f 148/4/2 149/4/2 150/4/2
f 150/4/2 149/4/2 151/4/2
f 152/4/2 153/4/2 156/4/2
f 156/4/2 153/4/2 157/4/2
f 154/4/2 155/4/2 159/4/2
f 159/4/2 155/4/2 160/4/2
f 158/3/2 159/3/2 163/3/2
f 163/3/2 159/3/2 164/3/2
f 161/4/2 162/4/2 165/4/2
f 165/4/2 162/4/2 166/4/2
f 167/4/2 168/4/2 169/4/2
f 169/4/2 168/4/2 170/4/2
f 174/3/3 172/3/3 171/3/3
f 176/3/3 174/3/3 173/3/3
f 177/3/3 172/3/3 174/3/3
f 177/3/3 174/3/3 176/3/3
f 178/3/3 172/3/3 177/3/3
f 179/3/3 172/3/3 178/3/3
f 180/3/3 176/3/3 175/3/3
f 180/3/3 177/3/3 176/3/3
f 181/2/3 178/2/3 177/2/3
f 181/3/3 177/3/3 180/3/3
f 182/2/3 178/2/3 181/2/3
f 183/2/3 178/2/3 182/2/3
f 184/3/3 180/3/3 175/3/3
f 184/2/3 181/2/3 180/2/3
f 184/2/3 182/2/3 181/2/3
f 185/2/3 182/2/3 184/2/3
f 186/2/3 182/2/3 185/2/3
f 188/3/3 184/3/3 175/3/3
f 188/3/3 185/3/3 184/3/3
f 189/3/3 185/3/3 188/3/3
f 190/2/3 187/2/3 186/2/3
f 190/3/3 185/3/3 189/3/3
f 190/2/3 186/2/3 185/2/3
f 191/2/3 187/2/3 190/2/3
f 193/3/3 191/3/3 190/3/3
f 193/3/3 192/3/3 191/3/3
f 193/3/3 190/3/3 189/3/3
f 194/3/3 192/3/3 193/3/3
f 195/3/3 192/3/3 194/3/3
f 196/3/3 192/3/3 195/3/3
f 200/4/3 198/4/3 197/4/3
f 201/4/3 198/4/3 200/4/3
f 203/4/3 200/4/3 199/4/3
f 204/4/3 200/4/3 203/4/3
f 205/4/3 200/4/3 204/4/3
f 206/4/3 198/4/3 201/4/3
f 207/4/3 198/4/3 206/4/3
f 209/4/3 203/4/3 202/4/3
f 209/4/3 204/4/3 203/4/3
f 210/4/3 204/4/3 209/4/3
f 211/4/3 204/4/3 210/4/3
f 215/4/3 209/4/3 208/4/3
f 215/4/3 210/4/3 209/4/3
f 217/4/3 213/4/3 212/4/3
f 218/4/3 215/4/3 214/4/3
f 219/4/3 210/4/3 215/4/3
f 219/4/3 215/4/3 218/4/3
f 220/4/3 217/4/3 216/4/3
f 221/4/3 213/4/3 217/4/3
f 221/4/3 217/4/3 220/4/3
f 222/4/3 210/4/3 219/4/3
f 223/4/3 210/4/3 222/4/3
f 224/4/3 210/4/3 223/4/3
f 226/4/3 213/4/3 221/4/3
f 227/4/3 213/4/3 226/4/3
f 228/4/3 225/4/3 224/4/3
f 228/4/3 224/4/3 223/4/3
f 229/4/3 225/4/3 228/4/3
f 230/4/3 225/4/3 229/4/3
f 234/4/3 231/4/3 230/4/3
f 234/4/3 230/4/3 229/4/3
f 235/4/3 231/4/3 234/4/3
f 236/4/3 233/4/3 232/4/3
f 237/4/3 236/4/3 235/4/3
f 238/4/3 233/4/3 236/4/3
f 238/4/3 236/4/3 237/4/3
f 244/4/3 240/4/3 239/4/3
f 246/4/3 242/4/3 241/4/3
f 247/4/3 244/4/3 243/4/3
f 247/4/3 240/4/3 244/4/3
f 248/4/3 246/4/3 245/4/3
f 249/4/3 247/4/3 243/4/3
f 249/4/3 248/4/3 247/4/3
f 250/4/3 246/4/3 248/4/3
f 250/4/3 248/4/3 249/4/3
f 251/4/3 249/4/3 243/4/3
f 252/4/3 249/4/3 251/4/3
f 253/4/3 246/4/3 250/4/3
f 254/4/3 242/4/3 246/4/3
f 254/4/3 246/4/3 253/4/3
f 255/4/3 249/4/3 252/4/3
f 256/4/3 249/4/3 255/4/3
f 257/4/3 242/4/3 254/4/3
f 258/4/3 242/4/3 257/4/3
f 261/1/3 260/1/3 259/1/3
f 262/1/3 260/1/3 261/1/3
f 263/4/4 264/4/4 266/4/4
f 265/4/4 266/4/4 268/4/4
f 266/4/4 264/4/4 269/4/4
f 268/4/4 266/4/4 269/4/4
f 269/4/4 264/4/4 270/4/4
f 267/4/4 268/4/4 272/4/4
f 268/4/4 269/4/4 272/4/4
f 271/4/4 272/4/4 274/4/4
f 273/4/4 274/4/4 275/4/4
f 274/4/4 272/4/4 276/4/4
f 275/4/4 274/4/4 276/4/4
f 276/4/4 272/4/4 277/4/4
f 272/4/4 269/4/4 278/4/4
f 277/4/4 272/4/4 278/4/4
f 278/4/4 269/4/4 279/4/4
f 279/4/4 269/4/4 280/4/4
f 280/4/4 269/4/4 281/4/4
f 281/4/4 282/4/4 283/4/4
f 280/4/4 281/4/4 283/4/4
f 283/4/4 282/4/4 284/4/4
f 284/4/4 282/4/4 285/4/4
f 285/4/4 282/4/4 286/4/4
f 287/4/4 288/4/4 292/4/4
f 289/4/4 290/4/4 294/4/4
f 294/4/4 290/4/4 295/4/4
f 295/4/4 290/4/4 296/4/4
f 291/4/4 292/4/4 297/4/4
f 292/4/4 288/4/4 298/4/4
f 297/4/4 292/4/4 298/4/4
f 293/4/4 294/4/4 299/4/4
f 294/4/4 295/4/4 299/4/4
f 299/4/4 295/4/4 300/4/4
f 300/4/4 295/4/4 301/4/4
f 301/4/4 295/4/4 303/4/4
f 302/4/4 303/4/4 306/4/4
f 304/4/4 305/4/4 307/4/4
f 307/4/4 305/4/4 308/4/4
f 306/4/4 303/4/4 309/4/4
f 303/4/4 295/4/4 310/4/4
f 309/4/4 303/4/4 310/4/4
f 310/4/4 295/4/4 311/4/4
f 308/4/4 305/4/4 313/4/4
f 313/4/4 305/4/4 314/4/4
f 311/4/4 312/4/4 315/4/4
f 310/4/4 311/4/4 315/4/4
f 315/4/4 312/4/4 316/4/4
f 319/3/4 320/3/4 321/3/4
f 321/3/4 320/3/4 322/3/4
f 322/4/4 323/4/4 325/4/4
f 325/4/4 323/4/4 326/4/4
f 324/3/4 325/3/4 327/3/4
f 327/3/4 325/3/4 328/3/4
f 317/4/4 318/4/4 329/4/4
f 329/4/4 318/4/4 330/4/4
f 331/3/4 332/3/4 333/3/4
f 333/3/4 332/3/4 334/3/4
f 334/3/4 332/3/4 335/3/4
f 335/3/4 336/3/4 338/3/4
f 334/3/4 335/3/4 338/3/4
f 338/3/4 336/3/4 339/3/4
f 339/3/4 336/3/4 340/3/4
f 337/3/4 338/3/4 341/3/4
f 338/3/4 339/3/4 341/3/4
f 341/3/4 339/3/4 342/3/4
f 343/1/4 344/1/4 345/1/4
f 345/1/4 344/1/4 346/1/4
f 349/4/5 348/4/5 347/4/5
f 350/4/5 348/4/5 349/4/5
f 353/1/5 352/1/5 351/1/5
f 354/1/5 352/1/5 353/1/5
f 359/4/5 356/4/5 355/4/5
f 360/4/5 356/4/5 359/4/5
f 361/4/5 358/4/5 357/4/5
f 362/4/5 358/4/5 361/4/5
f 365/4/5 364/4/5 363/4/5
f 366/4/5 364/4/5 365/4/5
f 367/4/5 364/4/5 366/4/5
f 368/4/5 364/4/5 367/4/5
f 369/3/5 367/3/5 366/3/5
f 370/3/5 367/3/5 369/3/5
f 371/3/5 369/3/5 366/3/5
f 372/3/5 369/3/5 371/3/5
f 373/3/5 367/3/5 370/3/5
f 374/3/5 367/3/5 373/3/5
f 379/4/5 376/4/5 375/4/5
f 380/4/5 376/4/5 379/4/5
f 381/4/5 378/4/5 377/4/5
f 382/4/5 378/4/5 381/4/5
f 387/4/5 384/4/5 383/4/5
f 388/4/5 384/4/5 387/4/5
f 389/4/5 386/4/5 385/4/5
f 390/4/5 386/4/5 389/4/5
f 395/4/5 392/4/5 391/4/5
f 396/4/5 392/4/5 395/4/5
f 397/4/5 394/4/5 393/4/5
f 398/4/5 394/4/5 397/4/5
f 401/3/5 400/3/5 399/3/5
f 402/3/5 400/3/5 401/3/5
f 407/3/5 404/3/5 403/3/5
f 408/3/5 404/3/5 407/3/5
f 409/3/5 406/3/5 405/3/5
f 410/3/5 406/3/5 409/3/5
f 416/3/5 412/3/5 411/3/5
f 417/3/5 412/3/5 416/3/5
f 418/3/5 414/3/5 413/3/5
f 419/3/5 414/3/5 418/3/5
f 421/4/5 416/4/5 415/4/5
f 422/4/5 416/4/5 421/4/5
f 423/4/5 420/4/5 419/4/5
f 424/4/5 420/4/5 423/4/5
f 429/4/5 426/4/5 425/4/5
f 430/4/5 426/4/5 429/4/5
f 431/4/5 428/4/5 427/4/5
f 432/4/5 428/4/5 431/4/5
f 437/4/5 434/4/5 433/4/5
f 438/4/5 434/4/5 437/4/5
f 439/4/5 436/4/5 435/4/5
f 440/4/5 436/4/5 439/4/5
f 443/4/5 442/4/5 441/4/5
f 444/4/5 442/4/5 443/4/5
f 445/1/6 446/1/6 447/1/6
f 447/1/6 446/1/6 448/1/6
f 449/4/6 450/4/6 453/4/6
f 453/4/6 450/4/6 454/4/6
f 451/4/6 452/4/6 455/4/6
f 455/4/6 452/4/6 456/4/6
f 457/3/6 458/3/6 461/3/6
f 461/3/6 458/3/6 462/3/6
f 459/3/6 460/3/6 463/3/6
f 463/3/6 460/3/6 464/3/6
f 465/3/6 466/3/6 469/3/6
f 469/3/6 466/3/6 470/3/6
f 467/3/6 468/3/6 471/3/6
f 471/3/6 468/3/6 472/3/6
f 470/3/6 471/3/6 473/3/6
f 473/3/6 471/3/6 474/3/6
f 475/2/6 476/2/6 477/2/6
f 477/2/6 476/2/6 478/2/6
f 479/4/6 480/4/6 481/4/6
f 481/4/6 480/4/6 482/4/6
f 483/2/6 484/2/6 487/2/6
f 487/2/6 484/2/6 488/2/6
f 485/2/6 486/2/6 489/2/6
f 489/2/6 486/2/6 490/2/6
f 491/3/6 492/3/6 495/3/6
f 495/3/6 492/3/6 496/3/6
f 496/3/6 492/3/6 497/3/6
f 493/3/6 494/3/6 498/3/6
f 498/3/6 494/3/6 499/3/6
f 499/3/6 494/3/6 500/3/6
f 496/4/6 497/4/6 501/4/6
f 498/4/6 499/4/6 501/4/6
f 497/4/6 498/4/6 501/4/6
f 501/4/6 499/4/6 502/4/6
f 503/4/6 504/4/6 507/4/6
f 507/4/6 504/4/6 508/4/6
f 505/4/6 506/4/6 509/4/6
f 509/4/6 506/4/6 510/4/6
f 511/4/6 512/4/6 513/4/6
f 513/4/6 512/4/6 514/4/6
f 514/4/6 512/4/6 515/4/6
f 515/4/6 512/4/6 516/4/6
f 514/4/6 515/4/6 517/4/6
f 517/4/6 515/4/6 518/4/6
