# MagicaVoxel @ Ephtracy

# group
o 

# material
mtllib stanciLeft.mtl
usemtl palette

# normals
vn -1 0 0
vn 1 0 0
vn 0 0 1
vn 0 0 -1
vn 0 -1 0
vn 0 1 0

# texcoords
vt 0.982422 0.5
vt 0.986328 0.5

# verts
v 0 2.2 -0.8
v 0 2.2 -0.9
v 0 2.7 -0.6
v 0 2.7 -0.8
v 0 2.8 -0.7
v 0 2.8 -0.8
v 0 2.8 -0.9
v 0 2.9 0
v 0 2.9 -0.1
v 0 2.9 -0.2
v 0 3 -0.6
v 0 3 -0.7
v 0 3 -0.8
v 0 3.1 -0.1
v 0 3.1 -0.2
v 0 3.2 0
v 0 3.2 -0.1
v 0.2 2.8 -0.1
v 0.2 2.8 -0.2
v 0.2 2.9 -0.1
v 0.2 3 -0.1
v 0.2 3 -0.2
v 0.4 2.6 -0.2
v 0.4 2.6 -0.6
v 0.4 2.7 -0.1
v 0.4 2.7 -0.2
v 0.4 2.7 -0.6
v 0.4 2.8 -0.1
v 0.4 2.8 -0.2
v 0.4 3 -0.2
v 0.4 3 -0.6
v 0.5 2.2 -0.2
v 0.5 2.2 -0.6
v 0.5 2.3 -0.1
v 0.5 2.3 -0.2
v 0.5 2.3 -0.6
v 0.5 2.3 -0.7
v 0.5 2.6 -0.2
v 0.5 2.6 -0.6
v 0.5 2.7 -0.1
v 0.5 2.7 -0.2
v 0.5 2.7 -0.6
v 0.5 2.7 -0.7
v 0.6 2 -0.1
v 0.6 2 -0.7
v 0.6 2.2 -0.2
v 0.6 2.2 -0.6
v 0.6 2.3 -0.1
v 0.6 2.3 -0.2
v 0.6 2.3 -0.6
v 0.6 2.3 -0.7
v 0.1 2.9 -0.1
v 0.1 2.9 -0.2
v 0.1 3 -0.1
v 0.1 3 -0.2
v 0.1 3.1 0
v 0.1 3.1 -0.1
v 0.1 3.2 0
v 0.1 3.2 -0.1
v 0.2 2.2 -0.8
v 0.2 2.2 -0.9
v 0.2 2.4 -0.8
v 0.2 2.4 -0.9
v 0.2 2.7 -0.8
v 0.2 2.7 -0.9
v 0.2 2.8 -0.8
v 0.2 2.8 -0.9
v 0.2 2.9 0
v 0.2 2.9 -0.1
v 0.2 3 -0.1
v 0.2 3 -0.2
v 0.2 3.1 0
v 0.2 3.1 -0.1
v 0.2 3.1 -0.2
v 0.3 2.4 -0.8
v 0.3 2.4 -0.9
v 0.3 2.7 -0.8
v 0.3 2.7 -0.9
v 0.4 2.7 -0.7
v 0.4 2.7 -0.8
v 0.4 2.9 -0.1
v 0.4 2.9 -0.2
v 0.4 2.9 -0.6
v 0.4 2.9 -0.7
v 0.4 3 -0.1
v 0.4 3 -0.2
v 0.4 3 -0.6
v 0.4 3 -0.7
v 0.4 3 -0.8
v 0.5 2.7 -0.1
v 0.5 2.7 -0.3
v 0.5 2.7 -0.5
v 0.5 2.7 -0.7
v 0.5 2.8 -0.3
v 0.5 2.8 -0.5
v 0.5 2.9 -0.1
v 0.5 2.9 -0.2
v 0.5 2.9 -0.6
v 0.5 2.9 -0.7
v 0.5 3 -0.2
v 0.5 3 -0.6
v 0.6 2.3 -0.1
v 0.6 2.3 -0.2
v 0.6 2.3 -0.6
v 0.6 2.3 -0.7
v 0.6 2.4 -0.2
v 0.6 2.4 -0.6
v 0.6 2.7 -0.1
v 0.6 2.7 -0.3
v 0.6 2.7 -0.5
v 0.6 2.7 -0.7
v 0.6 2.8 -0.3
v 0.6 2.8 -0.5
v 0.7 2 -0.1
v 0.7 2 -0.7
v 0.7 2.3 -0.1
v 0.7 2.3 -0.2
v 0.7 2.3 -0.6
v 0.7 2.3 -0.7
v 0.7 2.4 -0.2
v 0.7 2.4 -0.6
v 0 2.9 0
v 0 3.2 0
v 0.1 3.1 0
v 0.1 3.2 0
v 0.2 2.9 0
v 0.2 3.1 0
v 0.2 2.8 -0.1
v 0.2 2.9 -0.1
v 0.2 3 -0.1
v 0.4 2.7 -0.1
v 0.4 2.8 -0.1
v 0.4 2.9 -0.1
v 0.4 3 -0.1
v 0.5 2.3 -0.1
v 0.5 2.7 -0.1
v 0.5 2.9 -0.1
v 0.6 2 -0.1
v 0.6 2.3 -0.1
v 0.6 2.7 -0.1
v 0.7 2 -0.1
v 0.7 2.3 -0.1
v 0.4 2.6 -0.2
v 0.4 2.7 -0.2
v 0.4 2.9 -0.2
v 0.4 3 -0.2
v 0.5 2.2 -0.2
v 0.5 2.3 -0.2
v 0.5 2.6 -0.2
v 0.5 2.7 -0.2
v 0.5 2.9 -0.2
v 0.5 3 -0.2
v 0.6 2.2 -0.2
v 0.6 2.3 -0.2
v 0.6 2.4 -0.2
v 0.7 2.3 -0.2
v 0.7 2.4 -0.2
v 0.5 2.7 -0.3
v 0.5 2.8 -0.3
v 0.6 2.7 -0.3
v 0.6 2.8 -0.3
v 0 2.7 -0.6
v 0 3 -0.6
v 0.4 2.7 -0.6
v 0.4 3 -0.6
v 0 2.2 -0.8
v 0 2.7 -0.8
v 0.2 2.2 -0.8
v 0.2 2.4 -0.8
v 0.2 2.7 -0.8
v 0.3 2.4 -0.8
v 0.3 2.7 -0.8
v 0 3.1 -0.1
v 0 3.2 -0.1
v 0.1 2.9 -0.1
v 0.1 3 -0.1
v 0.1 3.1 -0.1
v 0.1 3.2 -0.1
v 0.2 2.9 -0.1
v 0.2 3 -0.1
v 0 2.9 -0.2
v 0 3.1 -0.2
v 0.1 2.9 -0.2
v 0.1 3 -0.2
v 0.2 2.8 -0.2
v 0.2 3 -0.2
v 0.2 3.1 -0.2
v 0.4 2.8 -0.2
v 0.4 3 -0.2
v 0.5 2.7 -0.5
v 0.5 2.8 -0.5
v 0.6 2.7 -0.5
v 0.6 2.8 -0.5
v 0.4 2.6 -0.6
v 0.4 2.7 -0.6
v 0.4 2.9 -0.6
v 0.4 3 -0.6
v 0.5 2.2 -0.6
v 0.5 2.3 -0.6
v 0.5 2.6 -0.6
v 0.5 2.7 -0.6
v 0.5 2.9 -0.6
v 0.5 3 -0.6
v 0.6 2.2 -0.6
v 0.6 2.3 -0.6
v 0.6 2.4 -0.6
v 0.7 2.3 -0.6
v 0.7 2.4 -0.6
v 0.4 2.7 -0.7
v 0.4 2.9 -0.7
v 0.5 2.3 -0.7
v 0.5 2.7 -0.7
v 0.5 2.9 -0.7
v 0.6 2 -0.7
v 0.6 2.3 -0.7
v 0.6 2.7 -0.7
v 0.7 2 -0.7
v 0.7 2.3 -0.7
v 0 2.8 -0.8
v 0 3 -0.8
v 0.2 2.7 -0.8
v 0.2 2.8 -0.8
v 0.3 2.7 -0.8
v 0.4 2.7 -0.8
v 0.4 3 -0.8
v 0 2.2 -0.9
v 0 2.8 -0.9
v 0.2 2.2 -0.9
v 0.2 2.4 -0.9
v 0.2 2.7 -0.9
v 0.2 2.8 -0.9
v 0.3 2.4 -0.9
v 0.3 2.7 -0.9
v 0.6 2 -0.1
v 0.7 2 -0.1
v 0.6 2 -0.7
v 0.7 2 -0.7
v 0.5 2.2 -0.2
v 0.6 2.2 -0.2
v 0.5 2.2 -0.6
v 0.6 2.2 -0.6
v 0 2.2 -0.8
v 0.2 2.2 -0.8
v 0 2.2 -0.9
v 0.2 2.2 -0.9
v 0.5 2.3 -0.1
v 0.6 2.3 -0.1
v 0.5 2.3 -0.2
v 0.6 2.3 -0.2
v 0.5 2.3 -0.6
v 0.6 2.3 -0.6
v 0.5 2.3 -0.7
v 0.6 2.3 -0.7
v 0.2 2.4 -0.8
v 0.3 2.4 -0.8
v 0.2 2.4 -0.9
v 0.3 2.4 -0.9
v 0.4 2.6 -0.2
v 0.5 2.6 -0.2
v 0.4 2.6 -0.6
v 0.5 2.6 -0.6
v 0.4 2.7 -0.1
v 0.5 2.7 -0.1
v 0.4 2.7 -0.2
v 0.5 2.7 -0.2
v 0 2.7 -0.6
v 0.4 2.7 -0.6
v 0.5 2.7 -0.6
v 0.2 2.7 -0.7
v 0.4 2.7 -0.7
v 0.5 2.7 -0.7
v 0 2.7 -0.8
v 0.2 2.7 -0.8
v 0.3 2.7 -0.8
v 0.4 2.7 -0.8
v 0.2 2.8 -0.1
v 0.4 2.8 -0.1
v 0.2 2.8 -0.2
v 0.4 2.8 -0.2
v 0 2.9 0
v 0.2 2.9 0
v 0 2.9 -0.1
v 0.1 2.9 -0.1
v 0.2 2.9 -0.1
v 0 2.9 -0.2
v 0.1 2.9 -0.2
v 0.1 3 -0.1
v 0.2 3 -0.1
v 0.1 3 -0.2
v 0.2 3 -0.2
v 0.6 2.3 -0.1
v 0.7 2.3 -0.1
v 0.6 2.3 -0.2
v 0.7 2.3 -0.2
v 0.6 2.3 -0.6
v 0.7 2.3 -0.6
v 0.6 2.3 -0.7
v 0.7 2.3 -0.7
v 0.6 2.4 -0.2
v 0.7 2.4 -0.2
v 0.6 2.4 -0.6
v 0.7 2.4 -0.6
v 0.5 2.7 -0.1
v 0.6 2.7 -0.1
v 0.5 2.7 -0.3
v 0.6 2.7 -0.3
v 0.5 2.7 -0.5
v 0.6 2.7 -0.5
v 0.5 2.7 -0.7
v 0.6 2.7 -0.7
v 0.2 2.7 -0.8
v 0.3 2.7 -0.8
v 0.2 2.7 -0.9
v 0.3 2.7 -0.9
v 0.5 2.8 -0.3
v 0.6 2.8 -0.3
v 0.5 2.8 -0.5
v 0.6 2.8 -0.5
v 0 2.8 -0.8
v 0.2 2.8 -0.8
v 0 2.8 -0.9
v 0.2 2.8 -0.9
v 0.4 2.9 -0.1
v 0.5 2.9 -0.1
v 0.4 2.9 -0.2
v 0.5 2.9 -0.2
v 0.4 2.9 -0.6
v 0.5 2.9 -0.6
v 0.4 2.9 -0.7
v 0.5 2.9 -0.7
v 0.2 3 -0.1
v 0.4 3 -0.1
v 0.2 3 -0.2
v 0.4 3 -0.2
v 0.5 3 -0.2
v 0 3 -0.6
v 0.4 3 -0.6
v 0.5 3 -0.6
v 0 3 -0.7
v 0.4 3 -0.7
v 0 3 -0.8
v 0.4 3 -0.8
v 0.1 3.1 0
v 0.2 3.1 0
v 0 3.1 -0.1
v 0.1 3.1 -0.1
v 0.2 3.1 -0.1
v 0 3.1 -0.2
v 0.2 3.1 -0.2
v 0 3.2 0
v 0.1 3.2 0
v 0 3.2 -0.1
v 0.1 3.2 -0.1

# faces
f 4/1/1 2/1/1 1/1/1
f 5/2/1 4/2/1 3/2/1
f 6/1/1 2/1/1 4/1/1
f 6/2/1 4/2/1 5/2/1
f 7/1/1 2/1/1 6/1/1
f 11/2/1 5/2/1 3/2/1
f 12/1/1 6/1/1 5/1/1
f 12/2/1 5/2/1 11/2/1
f 13/1/1 6/1/1 12/1/1
f 14/2/1 10/2/1 9/2/1
f 14/1/1 9/1/1 8/1/1
f 15/2/1 10/2/1 14/2/1
f 16/1/1 14/1/1 8/1/1
f 17/1/1 14/1/1 16/1/1
f 20/2/1 19/2/1 18/2/1
f 21/2/1 19/2/1 20/2/1
f 22/2/1 19/2/1 21/2/1
f 26/2/1 24/2/1 23/2/1
f 27/2/1 24/2/1 26/2/1
f 28/2/1 26/2/1 25/2/1
f 28/2/1 27/2/1 26/2/1
f 29/2/1 27/2/1 28/2/1
f 30/2/1 27/2/1 29/2/1
f 31/2/1 27/2/1 30/2/1
f 35/2/1 33/2/1 32/2/1
f 36/2/1 33/2/1 35/2/1
f 38/2/1 35/2/1 34/2/1
f 38/2/1 37/2/1 36/2/1
f 38/2/1 36/2/1 35/2/1
f 39/2/1 37/2/1 38/2/1
f 40/2/1 38/2/1 34/2/1
f 41/2/1 38/2/1 40/2/1
f 42/2/1 37/2/1 39/2/1
f 43/2/1 37/2/1 42/2/1
f 46/2/1 45/2/1 44/2/1
f 47/2/1 45/2/1 46/2/1
f 48/2/1 46/2/1 44/2/1
f 49/2/1 46/2/1 48/2/1
f 50/2/1 45/2/1 47/2/1
f 51/2/1 45/2/1 50/2/1
f 52/2/2 53/2/2 54/2/2
f 54/2/2 53/2/2 55/2/2
f 56/1/2 57/1/2 58/1/2
f 58/1/2 57/1/2 59/1/2
f 60/1/2 61/1/2 62/1/2
f 62/1/2 61/1/2 63/1/2
f 64/1/2 65/1/2 66/1/2
f 66/1/2 65/1/2 67/1/2
f 68/1/2 69/1/2 70/1/2
f 68/1/2 70/1/2 72/1/2
f 70/2/2 71/2/2 73/2/2
f 72/1/2 70/1/2 73/1/2
f 73/2/2 71/2/2 74/2/2
f 75/1/2 76/1/2 77/1/2
f 77/1/2 76/1/2 78/1/2
f 79/1/2 80/1/2 84/1/2
f 81/2/2 82/2/2 85/2/2
f 85/2/2 82/2/2 86/2/2
f 83/2/2 84/2/2 87/2/2
f 84/1/2 80/1/2 88/1/2
f 87/2/2 84/2/2 88/2/2
f 88/1/2 80/1/2 89/1/2
f 90/2/2 91/2/2 94/2/2
f 92/2/2 93/2/2 95/2/2
f 90/2/2 94/2/2 96/2/2
f 94/2/2 95/2/2 96/2/2
f 96/2/2 95/2/2 97/2/2
f 95/2/2 93/2/2 98/2/2
f 97/2/2 95/2/2 98/2/2
f 98/2/2 93/2/2 99/2/2
f 97/2/2 98/2/2 100/2/2
f 100/2/2 98/2/2 101/2/2
f 102/2/2 103/2/2 106/2/2
f 104/2/2 105/2/2 107/2/2
f 102/2/2 106/2/2 108/2/2
f 106/2/2 107/2/2 108/2/2
f 108/2/2 107/2/2 109/2/2
f 109/2/2 107/2/2 110/2/2
f 107/2/2 105/2/2 111/2/2
f 110/2/2 107/2/2 111/2/2
f 109/2/2 110/2/2 112/2/2
f 112/2/2 110/2/2 113/2/2
f 114/2/2 115/2/2 116/2/2
f 116/2/2 115/2/2 117/2/2
f 117/2/2 115/2/2 118/2/2
f 118/2/2 115/2/2 119/2/2
f 117/2/2 118/2/2 120/2/2
f 120/2/2 118/2/2 121/2/2
f 124/1/3 123/1/3 122/1/3
f 125/1/3 123/1/3 124/1/3
f 126/1/3 124/1/3 122/1/3
f 127/1/3 124/1/3 126/1/3
f 132/2/3 129/2/3 128/2/3
f 132/2/3 130/2/3 129/2/3
f 133/2/3 130/2/3 132/2/3
f 134/2/3 130/2/3 133/2/3
f 136/2/3 132/2/3 131/2/3
f 136/2/3 133/2/3 132/2/3
f 137/2/3 133/2/3 136/2/3
f 139/2/3 136/2/3 135/2/3
f 140/2/3 136/2/3 139/2/3
f 141/2/3 139/2/3 138/2/3
f 142/2/3 139/2/3 141/2/3
f 149/2/3 144/2/3 143/2/3
f 150/2/3 144/2/3 149/2/3
f 151/2/3 146/2/3 145/2/3
f 152/2/3 146/2/3 151/2/3
f 153/2/3 148/2/3 147/2/3
f 154/2/3 148/2/3 153/2/3
f 156/2/3 155/2/3 154/2/3
f 157/2/3 155/2/3 156/2/3
f 160/2/3 159/2/3 158/2/3
f 161/2/3 159/2/3 160/2/3
f 164/2/3 163/2/3 162/2/3
f 165/2/3 163/2/3 164/2/3
f 168/1/3 167/1/3 166/1/3
f 169/1/3 167/1/3 168/1/3
f 170/1/3 167/1/3 169/1/3
f 171/1/3 170/1/3 169/1/3
f 172/1/3 170/1/3 171/1/3
f 173/1/4 174/1/4 177/1/4
f 177/1/4 174/1/4 178/1/4
f 175/1/4 176/1/4 179/1/4
f 179/1/4 176/1/4 180/1/4
f 181/2/4 182/2/4 183/2/4
f 183/2/4 182/2/4 184/2/4
f 184/2/4 182/2/4 186/2/4
f 186/2/4 182/2/4 187/2/4
f 185/2/4 186/2/4 188/2/4
f 188/2/4 186/2/4 189/2/4
f 190/2/4 191/2/4 192/2/4
f 192/2/4 191/2/4 193/2/4
f 194/2/4 195/2/4 200/2/4
f 200/2/4 195/2/4 201/2/4
f 196/2/4 197/2/4 202/2/4
f 202/2/4 197/2/4 203/2/4
f 198/2/4 199/2/4 204/2/4
f 204/2/4 199/2/4 205/2/4
f 205/2/4 206/2/4 207/2/4
f 207/2/4 206/2/4 208/2/4
f 209/2/4 210/2/4 212/2/4
f 212/2/4 210/2/4 213/2/4
f 211/2/4 212/2/4 215/2/4
f 215/2/4 212/2/4 216/2/4
f 214/2/4 215/2/4 217/2/4
f 217/2/4 215/2/4 218/2/4
f 219/1/4 220/1/4 222/1/4
f 221/1/4 222/1/4 223/1/4
f 223/1/4 222/1/4 224/1/4
f 222/1/4 220/1/4 225/1/4
f 224/1/4 222/1/4 225/1/4
f 226/1/4 227/1/4 228/1/4
f 228/1/4 227/1/4 229/1/4
f 229/1/4 227/1/4 230/1/4
f 230/1/4 227/1/4 231/1/4
f 229/1/4 230/1/4 232/1/4
f 232/1/4 230/1/4 233/1/4
f 236/2/5 235/2/5 234/2/5
f 237/2/5 235/2/5 236/2/5
f 240/2/5 239/2/5 238/2/5
f 241/2/5 239/2/5 240/2/5
f 244/1/5 243/1/5 242/1/5
f 245/1/5 243/1/5 244/1/5
f 248/2/5 247/2/5 246/2/5
f 249/2/5 247/2/5 248/2/5
f 252/2/5 251/2/5 250/2/5
f 253/2/5 251/2/5 252/2/5
f 256/1/5 255/1/5 254/1/5
f 257/1/5 255/1/5 256/1/5
f 260/2/5 259/2/5 258/2/5
f 261/2/5 259/2/5 260/2/5
f 264/2/5 263/2/5 262/2/5
f 265/2/5 263/2/5 264/2/5
f 269/2/5 267/2/5 266/2/5
f 269/2/5 268/2/5 267/2/5
f 270/2/5 268/2/5 269/2/5
f 271/2/5 268/2/5 270/2/5
f 272/2/5 269/2/5 266/2/5
f 273/1/5 270/1/5 269/1/5
f 273/2/5 269/2/5 272/2/5
f 274/1/5 270/1/5 273/1/5
f 275/1/5 270/1/5 274/1/5
f 278/2/5 277/2/5 276/2/5
f 279/2/5 277/2/5 278/2/5
f 282/1/5 281/1/5 280/1/5
f 283/1/5 281/1/5 282/1/5
f 284/1/5 281/1/5 283/1/5
f 285/2/5 283/2/5 282/2/5
f 286/2/5 283/2/5 285/2/5
f 289/2/5 288/2/5 287/2/5
f 290/2/5 288/2/5 289/2/5
f 291/2/6 292/2/6 293/2/6
f 293/2/6 292/2/6 294/2/6
f 295/2/6 296/2/6 297/2/6
f 297/2/6 296/2/6 298/2/6
f 299/2/6 300/2/6 301/2/6
f 301/2/6 300/2/6 302/2/6
f 303/2/6 304/2/6 305/2/6
f 305/2/6 304/2/6 306/2/6
f 307/2/6 308/2/6 309/2/6
f 309/2/6 308/2/6 310/2/6
f 311/1/6 312/1/6 313/1/6
f 313/1/6 312/1/6 314/1/6
f 315/2/6 316/2/6 317/2/6
f 317/2/6 316/2/6 318/2/6
f 319/1/6 320/1/6 321/1/6
f 321/1/6 320/1/6 322/1/6
f 323/2/6 324/2/6 325/2/6
f 325/2/6 324/2/6 326/2/6
f 327/2/6 328/2/6 329/2/6
f 329/2/6 328/2/6 330/2/6
f 331/2/6 332/2/6 333/2/6
f 333/2/6 332/2/6 334/2/6
f 334/2/6 335/2/6 337/2/6
f 337/2/6 335/2/6 338/2/6
f 336/2/6 337/2/6 339/2/6
f 339/2/6 337/2/6 340/2/6
f 339/1/6 340/1/6 341/1/6
f 341/1/6 340/1/6 342/1/6
f 343/1/6 344/1/6 346/1/6
f 346/1/6 344/1/6 347/1/6
f 345/2/6 346/2/6 348/2/6
f 346/2/6 347/2/6 348/2/6
f 348/2/6 347/2/6 349/2/6
f 350/1/6 351/1/6 352/1/6
f 352/1/6 351/1/6 353/1/6
