# MagicaVoxel @ Ephtracy

# material
mtllib LeftBoot.mtl
usemtl palette

# normals
vn -1 0 0
vn 1 0 0
vn 0 0 1
vn 0 0 -1
vn 0 -1 0
vn 0 1 0

# texcoords
vt 0.943359 0.5
vt 0.970703 0.5
vt 0.974609 0.5
vt 0.978516 0.5
vt 0.986328 0.5

# verts
v -5 2 -3
v -5 2 -13
v -5 4 -3
v -5 4 -4
v -5 4 -10
v -5 4 -11
v -5 4 -12
v -5 4 -13
v -5 5 -7
v -5 5 -10
v -5 5 -11
v -5 6 -5
v -5 6 -7
v -5 6 -10
v -5 6 -12
v -5 7 -5
v -5 7 -6
v -5 7 -10
v -5 7 -11
v -5 8 -3
v -5 8 -4
v -5 8 -6
v -5 8 -7
v -5 8 -8
v -5 8 -9
v -5 8 -12
v -5 8 -13
v -5 9 -7
v -5 9 -8
v -5 9 -9
v -5 9 -11
v -5 9 -12
v -5 10 -3
v -5 10 -13
v -4 4 -3
v -4 4 -4
v -4 4 -12
v -4 4 -13
v -4 6 -12
v -4 8 -3
v -4 8 -4
v -4 8 -12
v -4 8 -13
v 4 4 -3
v 4 4 -4
v 4 4 -12
v 4 4 -13
v 4 7 -4
v 4 8 -3
v 4 8 -4
v 4 8 -12
v 4 8 -13
v 5 2 -3
v 5 2 -13
v 5 4 -3
v 5 4 -4
v 5 4 -8
v 5 4 -9
v 5 4 -12
v 5 4 -13
v 5 5 -6
v 5 5 -8
v 5 5 -10
v 5 5 -11
v 5 6 -6
v 5 6 -9
v 5 6 -10
v 5 7 -4
v 5 7 -5
v 5 7 -9
v 5 7 -10
v 5 8 -3
v 5 8 -4
v 5 8 -5
v 5 8 -6
v 5 8 -7
v 5 8 -8
v 5 8 -9
v 5 8 -10
v 5 8 -11
v 5 8 -12
v 5 8 -13
v 5 9 -7
v 5 9 -8
v 5 9 -9
v 5 10 -3
v 5 10 -4
v 5 10 -6
v 5 10 -13
v -5 2 -3
v -5 4 -3
v -5 8 -3
v -5 10 -3
v -4 4 -3
v -4 8 -3
v 4 4 -3
v 4 8 -3
v 5 2 -3
v 5 4 -3
v 5 8 -3
v 5 10 -3
v -5 4 -4
v -5 8 -4
v -4 4 -4
v -4 8 -4
v 4 4 -4
v 4 7 -4
v 4 8 -4
v 5 4 -4
v 5 7 -4
v 5 8 -4
v -5 4 -12
v -5 6 -12
v -5 8 -12
v -4 4 -12
v -4 6 -12
v -4 8 -12
v 4 4 -12
v 4 8 -12
v 5 4 -12
v 5 8 -12
v -5 2 -13
v -5 4 -13
v -5 8 -13
v -5 10 -13
v -4 4 -13
v -4 8 -13
v -3 6 -13
v -3 8 -13
v -2 5 -13
v -2 6 -13
v -2 7 -13
v -2 8 -13
v -1 6 -13
v -1 7 -13
v 0 5 -13
v 0 6 -13
v 1 5 -13
v 1 7 -13
v 3 5 -13
v 3 7 -13
v 3 8 -13
v 3 9 -13
v 4 4 -13
v 4 8 -13
v 4 9 -13
v 5 2 -13
v 5 4 -13
v 5 8 -13
v 5 10 -13
v -5 2 -3
v 5 2 -3
v -4 2 -4
v 4 2 -4
v -4 2 -12
v 4 2 -12
v -5 2 -13
v 5 2 -13
v -5 8 -3
v -4 8 -3
v 4 8 -3
v 5 8 -3
v -5 8 -4
v -4 8 -4
v 4 8 -4
v 5 8 -4
v -5 8 -12
v -4 8 -12
v 4 8 -12
v 5 8 -12
v -5 8 -13
v -4 8 -13
v 4 8 -13
v 5 8 -13
v -5 4 -3
v -4 4 -3
v 4 4 -3
v 5 4 -3
v -5 4 -4
v -4 4 -4
v 4 4 -4
v 5 4 -4
v -5 4 -12
v -4 4 -12
v 4 4 -12
v 5 4 -12
v -5 4 -13
v -4 4 -13
v 4 4 -13
v 5 4 -13
v -5 10 -3
v 5 10 -3
v -4 10 -4
v 4 10 -4
v 5 10 -4
v 4 10 -6
v 5 10 -6
v -4 10 -12
v 4 10 -12
v -5 10 -13
v 5 10 -13

# faces
f 3/3/1 2/3/1 1/3/1
f 4/3/1 2/3/1 3/3/1
f 5/3/1 2/3/1 4/3/1
f 6/3/1 2/3/1 5/3/1
f 7/3/1 2/3/1 6/3/1
f 8/3/1 2/3/1 7/3/1
f 9/3/1 5/3/1 4/3/1
f 10/1/1 6/1/1 5/1/1
f 10/3/1 5/3/1 9/3/1
f 11/3/1 7/3/1 6/3/1
f 11/1/1 6/1/1 10/1/1
f 12/3/1 9/3/1 4/3/1
f 13/1/1 10/1/1 9/1/1
f 13/3/1 9/3/1 12/3/1
f 14/3/1 11/3/1 10/3/1
f 14/1/1 10/1/1 13/1/1
f 15/3/1 7/3/1 11/3/1
f 15/3/1 11/3/1 14/3/1
f 16/3/1 12/3/1 4/3/1
f 16/1/1 13/1/1 12/1/1
f 17/1/1 13/1/1 16/1/1
f 18/3/1 14/3/1 13/3/1
f 18/1/1 15/1/1 14/1/1
f 19/1/1 15/1/1 18/1/1
f 21/3/1 17/3/1 16/3/1
f 21/3/1 16/3/1 4/3/1
f 22/1/1 13/1/1 17/1/1
f 22/3/1 17/3/1 21/3/1
f 23/3/1 19/3/1 18/3/1
f 23/1/1 13/1/1 22/1/1
f 23/3/1 18/3/1 13/3/1
f 24/3/1 19/3/1 23/3/1
f 25/3/1 19/3/1 24/3/1
f 26/1/1 15/1/1 19/1/1
f 28/3/1 21/3/1 20/3/1
f 28/3/1 22/3/1 21/3/1
f 28/3/1 23/3/1 22/3/1
f 28/4/1 24/4/1 23/4/1
f 29/5/1 25/5/1 24/5/1
f 29/4/1 24/4/1 28/4/1
f 30/3/1 19/3/1 25/3/1
f 30/5/1 25/5/1 29/5/1
f 31/1/1 26/1/1 19/1/1
f 31/3/1 19/3/1 30/3/1
f 32/3/1 27/3/1 26/3/1
f 32/1/1 26/1/1 31/1/1
f 33/3/1 30/3/1 29/3/1
f 33/3/1 31/3/1 30/3/1
f 33/3/1 32/3/1 31/3/1
f 33/3/1 29/3/1 28/3/1
f 33/3/1 28/3/1 20/3/1
f 34/3/1 27/3/1 32/3/1
f 34/3/1 32/3/1 33/3/1
f 39/3/1 38/3/1 37/3/1
f 40/3/1 36/3/1 35/3/1
f 41/3/1 36/3/1 40/3/1
f 42/3/1 38/3/1 39/3/1
f 43/3/1 38/3/1 42/3/1
f 44/3/2 45/3/2 48/3/2
f 44/3/2 48/3/2 49/3/2
f 49/3/2 48/3/2 50/3/2
f 46/3/2 47/3/2 51/3/2
f 51/3/2 47/3/2 52/3/2
f 53/3/2 54/3/2 55/3/2
f 55/3/2 54/3/2 56/3/2
f 56/3/2 54/3/2 57/3/2
f 57/3/2 54/3/2 58/3/2
f 58/3/2 54/3/2 59/3/2
f 59/3/2 54/3/2 60/3/2
f 56/3/2 57/3/2 61/3/2
f 57/1/2 58/1/2 62/1/2
f 61/3/2 57/3/2 62/3/2
f 58/3/2 59/3/2 63/3/2
f 63/3/2 59/3/2 64/3/2
f 56/3/2 61/3/2 65/3/2
f 61/1/2 62/1/2 65/1/2
f 62/1/2 58/1/2 66/1/2
f 65/1/2 62/1/2 66/1/2
f 58/3/2 63/3/2 66/3/2
f 63/1/2 64/1/2 67/1/2
f 66/3/2 63/3/2 67/3/2
f 56/3/2 65/3/2 68/3/2
f 65/3/2 66/3/2 68/3/2
f 68/3/2 66/3/2 69/3/2
f 66/1/2 67/1/2 70/1/2
f 69/3/2 66/3/2 70/3/2
f 67/1/2 64/1/2 71/1/2
f 70/1/2 67/1/2 71/1/2
f 68/1/2 69/1/2 73/1/2
f 69/3/2 70/3/2 74/3/2
f 70/3/2 71/3/2 74/3/2
f 73/1/2 69/1/2 74/1/2
f 74/3/2 71/3/2 75/3/2
f 75/3/2 71/3/2 76/3/2
f 76/3/2 71/3/2 77/3/2
f 77/3/2 71/3/2 78/3/2
f 71/1/2 64/1/2 79/1/2
f 78/3/2 71/3/2 79/3/2
f 64/3/2 59/3/2 80/3/2
f 79/1/2 64/1/2 80/1/2
f 80/3/2 59/3/2 81/3/2
f 75/3/2 76/3/2 83/3/2
f 76/4/2 77/4/2 83/4/2
f 77/5/2 78/5/2 84/5/2
f 83/4/2 77/4/2 84/4/2
f 78/3/2 79/3/2 85/3/2
f 84/5/2 78/5/2 85/5/2
f 81/3/2 82/3/2 85/3/2
f 79/3/2 80/3/2 85/3/2
f 80/3/2 81/3/2 85/3/2
f 72/3/2 73/3/2 86/3/2
f 73/1/2 74/1/2 87/1/2
f 86/3/2 73/3/2 87/3/2
f 74/1/2 75/1/2 87/1/2
f 83/3/2 84/3/2 88/3/2
f 87/1/2 75/1/2 88/1/2
f 75/3/2 83/3/2 88/3/2
f 84/3/2 85/3/2 88/3/2
f 85/3/2 82/3/2 89/3/2
f 88/3/2 85/3/2 89/3/2
f 94/3/3 91/3/3 90/3/3
f 95/3/3 93/3/3 92/3/3
f 96/3/3 94/3/3 90/3/3
f 96/3/3 95/3/3 94/3/3
f 97/3/3 93/3/3 95/3/3
f 97/3/3 95/3/3 96/3/3
f 98/3/3 96/3/3 90/3/3
f 99/3/3 96/3/3 98/3/3
f 100/3/3 93/3/3 97/3/3
f 101/3/3 93/3/3 100/3/3
f 104/3/3 103/3/3 102/3/3
f 105/3/3 103/3/3 104/3/3
f 109/3/3 107/3/3 106/3/3
f 110/1/3 108/1/3 107/1/3
f 110/3/3 107/3/3 109/3/3
f 111/1/3 108/1/3 110/1/3
f 112/3/4 113/3/4 115/3/4
f 113/1/4 114/1/4 116/1/4
f 115/3/4 113/3/4 116/3/4
f 116/1/4 114/1/4 117/1/4
f 118/3/4 119/3/4 120/3/4
f 120/3/4 119/3/4 121/3/4
f 122/3/4 123/3/4 126/3/4
f 124/3/4 125/3/4 127/3/4
f 126/3/4 127/3/4 128/3/4
f 127/3/4 125/3/4 129/3/4
f 128/3/4 127/3/4 129/3/4
f 126/3/4 128/3/4 130/3/4
f 128/1/4 129/1/4 131/1/4
f 130/3/4 128/3/4 131/3/4
f 131/1/4 129/1/4 132/1/4
f 129/3/4 125/3/4 133/3/4
f 132/1/4 129/1/4 133/1/4
f 131/1/4 132/1/4 134/1/4
f 130/1/4 131/1/4 134/1/4
f 132/3/4 133/3/4 135/3/4
f 134/1/4 132/1/4 135/1/4
f 126/3/4 130/3/4 136/3/4
f 130/1/4 134/1/4 136/1/4
f 134/3/4 135/3/4 137/3/4
f 136/1/4 134/1/4 137/1/4
f 126/3/4 136/3/4 138/3/4
f 136/3/4 137/3/4 138/3/4
f 135/3/4 133/3/4 139/3/4
f 138/3/4 137/3/4 139/3/4
f 137/3/4 135/3/4 139/3/4
f 126/3/4 138/3/4 140/3/4
f 138/1/4 139/1/4 140/1/4
f 139/3/4 133/3/4 141/3/4
f 140/1/4 139/1/4 141/1/4
f 133/3/4 125/3/4 142/3/4
f 141/3/4 133/3/4 142/3/4
f 142/3/4 125/3/4 143/3/4
f 122/3/4 126/3/4 144/3/4
f 140/3/4 141/3/4 144/3/4
f 126/3/4 140/3/4 144/3/4
f 141/3/4 142/3/4 144/3/4
f 142/1/4 143/1/4 145/1/4
f 144/3/4 142/3/4 145/3/4
f 143/3/4 125/3/4 146/3/4
f 145/1/4 143/1/4 146/1/4
f 122/3/4 144/3/4 147/3/4
f 147/3/4 144/3/4 148/3/4
f 145/3/4 146/3/4 149/3/4
f 146/3/4 125/3/4 150/3/4
f 149/3/4 146/3/4 150/3/4
f 153/3/5 152/3/5 151/3/5
f 154/3/5 152/3/5 153/3/5
f 155/3/5 153/3/5 151/3/5
f 155/2/5 154/2/5 153/2/5
f 156/3/5 152/3/5 154/3/5
f 156/2/5 154/2/5 155/2/5
f 157/3/5 155/3/5 151/3/5
f 157/3/5 156/3/5 155/3/5
f 158/3/5 152/3/5 156/3/5
f 158/3/5 156/3/5 157/3/5
f 163/3/5 160/3/5 159/3/5
f 164/3/5 160/3/5 163/3/5
f 165/3/5 162/3/5 161/3/5
f 166/3/5 162/3/5 165/3/5
f 171/3/5 168/3/5 167/3/5
f 172/3/5 168/3/5 171/3/5
f 173/3/5 170/3/5 169/3/5
f 174/3/5 170/3/5 173/3/5
f 175/3/6 176/3/6 179/3/6
f 179/3/6 176/3/6 180/3/6
f 177/3/6 178/3/6 181/3/6
f 181/3/6 178/3/6 182/3/6
f 183/3/6 184/3/6 187/3/6
f 187/3/6 184/3/6 188/3/6
f 185/3/6 186/3/6 189/3/6
f 189/3/6 186/3/6 190/3/6
f 191/3/6 192/3/6 193/3/6
f 193/3/6 192/3/6 194/3/6
f 194/3/6 192/3/6 195/3/6
f 193/2/6 194/2/6 196/2/6
f 194/1/6 195/1/6 196/1/6
f 196/1/6 195/1/6 197/1/6
f 191/3/6 193/3/6 198/3/6
f 193/2/6 196/2/6 198/2/6
f 196/3/6 197/3/6 199/3/6
f 198/2/6 196/2/6 199/2/6
f 191/3/6 198/3/6 200/3/6
f 198/3/6 199/3/6 200/3/6
f 199/3/6 197/3/6 201/3/6
f 200/3/6 199/3/6 201/3/6
