# MagicaVoxel @ Ephtracy

# material
mtllib LeftArm.mtl
usemtl palette

# normals
vn -1 0 0
vn 1 0 0
vn 0 0 1
vn 0 0 -1
vn 0 -1 0
vn 0 1 0

# texcoords
vt 0.943359 0.5
vt 0.947266 0.5
vt 0.970703 0.5
vt 0.974609 0.5
vt 0.978516 0.5
vt 0.986328 0.5

# verts
v -6 66 -22
v -6 66 -26
v -6 70 -20
v -6 70 -22
v -6 71 -22
v -6 71 -23
v -6 72 -18
v -6 72 -20
v -6 72 -21
v -6 72 -22
v -6 72 -23
v -6 72 -25
v -6 72 -26
v -6 73 -21
v -6 73 -22
v -6 73 -23
v -6 74 -16
v -6 74 -18
v -6 75 -21
v -6 75 -24
v -6 75 -25
v -6 75 -26
v -6 77 -21
v -6 77 -23
v -6 78 -17
v -6 78 -20
v -6 78 -23
v -6 78 -24
v -6 78 -26
v -6 79 -18
v -6 79 -19
v -6 79 -20
v -6 79 -22
v -6 80 -17
v -6 80 -18
v -6 80 -19
v -6 80 -22
v -6 80 -24
v -6 81 -16
v -6 81 -19
v -6 82 -16
v -6 82 -19
v -6 82 -22
v -4 58 -16
v -4 58 -18
v -4 58 -23
v -4 58 -24
v -4 59 -17
v -4 59 -18
v -4 60 -19
v -4 60 -22
v -4 61 -16
v -4 61 -17
v -4 61 -19
v -4 61 -21
v -4 61 -22
v -4 61 -23
v -4 61 -24
v -4 62 -17
v -4 62 -18
v -4 62 -20
v -4 62 -21
v -4 63 -18
v -4 63 -19
v -4 63 -23
v -4 63 -24
v -4 64 -19
v -4 64 -20
v -4 64 -23
v -4 65 -21
v -4 65 -24
v -4 66 -16
v -4 66 -17
v -4 66 -18
v -4 66 -19
v -4 66 -22
v -4 66 -24
v -4 67 -16
v -4 67 -17
v -4 68 -20
v -4 68 -21
v -4 69 -18
v -4 69 -19
v -4 69 -22
v -4 70 -16
v -4 70 -17
v -4 70 -20
v -4 70 -22
v -4 71 -17
v -4 71 -18
v -4 71 -19
v -4 71 -20
v -4 72 -16
v -4 72 -17
v -4 72 -18
v -4 72 -20
v -4 73 -17
v -4 73 -18
v -4 74 -16
v -4 74 -18
v -4 80 -22
v -4 80 -24
v -4 82 -16
v -4 82 -17
v -4 82 -18
v -4 82 -22
v -4 82 -24
v -4 83 -16
v -4 83 -18
v -4 84 -16
v -4 84 -22
v 4 58 -16
v 4 58 -21
v 4 58 -24
v 4 59 -16
v 4 59 -17
v 4 59 -21
v 4 59 -24
v 4 61 -18
v 4 61 -19
v 4 61 -22
v 4 61 -23
v 4 63 -17
v 4 63 -18
v 4 63 -19
v 4 63 -21
v 4 63 -22
v 4 63 -23
v 4 64 -16
v 4 64 -17
v 4 65 -17
v 4 65 -18
v 4 66 -19
v 4 66 -20
v 4 66 -22
v 4 66 -24
v 4 68 -20
v 4 68 -21
v 4 69 -17
v 4 69 -19
v 4 70 -16
v 4 70 -17
v 4 70 -19
v 4 70 -20
v 4 70 -22
v 4 71 -16
v 4 71 -20
v 4 72 -18
v 4 72 -20
v 4 74 -16
v 4 74 -18
v 4 80 -22
v 4 80 -24
v 4 82 -16
v 4 82 -18
v 4 82 -20
v 4 82 -22
v 4 82 -24
v 4 83 -18
v 4 83 -20
v 4 84 -16
v 4 84 -22
v 6 66 -22
v 6 66 -26
v 6 69 -24
v 6 69 -26
v 6 70 -20
v 6 70 -22
v 6 70 -24
v 6 70 -25
v 6 71 -22
v 6 71 -23
v 6 72 -18
v 6 72 -20
v 6 72 -21
v 6 72 -22
v 6 72 -23
v 6 72 -25
v 6 72 -26
v 6 73 -21
v 6 73 -22
v 6 73 -23
v 6 73 -24
v 6 73 -25
v 6 74 -16
v 6 74 -18
v 6 74 -21
v 6 74 -22
v 6 74 -23
v 6 74 -24
v 6 74 -25
v 6 74 -26
v 6 75 -21
v 6 75 -22
v 6 75 -23
v 6 75 -26
v 6 76 -19
v 6 76 -22
v 6 76 -23
v 6 76 -24
v 6 77 -19
v 6 77 -22
v 6 78 -21
v 6 78 -23
v 6 78 -24
v 6 78 -26
v 6 79 -17
v 6 79 -18
v 6 80 -18
v 6 80 -20
v 6 80 -21
v 6 80 -22
v 6 80 -23
v 6 80 -24
v 6 81 -17
v 6 81 -18
v 6 82 -16
v 6 82 -18
v 6 82 -20
v 6 82 -22
v -6 74 -16
v -6 81 -16
v -6 82 -16
v -4 58 -16
v -4 61 -16
v -4 66 -16
v -4 67 -16
v -4 70 -16
v -4 72 -16
v -4 74 -16
v -4 81 -16
v -4 82 -16
v -4 83 -16
v -4 84 -16
v -3 58 -16
v -3 60 -16
v -3 67 -16
v -3 68 -16
v -3 70 -16
v -3 72 -16
v -3 82 -16
v -3 83 -16
v -2 66 -16
v -2 68 -16
v -1 60 -16
v -1 61 -16
v -1 62 -16
v -1 64 -16
v 0 63 -16
v 0 64 -16
v 0 68 -16
v 0 71 -16
v 1 62 -16
v 1 63 -16
v 1 69 -16
v 1 71 -16
v 2 68 -16
v 2 69 -16
v 3 59 -16
v 3 64 -16
v 3 70 -16
v 3 71 -16
v 4 58 -16
v 4 59 -16
v 4 64 -16
v 4 70 -16
v 4 71 -16
v 4 74 -16
v 4 82 -16
v 4 84 -16
v 6 74 -16
v 6 82 -16
v -6 72 -18
v -6 74 -18
v -4 72 -18
v -4 73 -18
v -4 74 -18
v 4 72 -18
v 4 74 -18
v 6 72 -18
v 6 74 -18
v -6 70 -20
v -6 72 -20
v -4 70 -20
v -4 71 -20
v -4 72 -20
v 4 70 -20
v 4 71 -20
v 4 72 -20
v 6 70 -20
v 6 72 -20
v -6 66 -22
v -6 70 -22
v -4 66 -22
v -4 69 -22
v -4 70 -22
v 4 66 -22
v 4 70 -22
v 6 66 -22
v 6 70 -22
v -6 80 -22
v -6 82 -22
v -4 80 -22
v -4 82 -22
v -4 84 -22
v 4 80 -22
v 4 82 -22
v 4 84 -22
v 5 80 -22
v 6 80 -22
v 6 82 -22
v -6 78 -24
v -6 80 -24
v -4 58 -24
v -4 61 -24
v -4 63 -24
v -4 65 -24
v -4 66 -24
v -4 78 -24
v -4 80 -24
v -4 82 -24
v -3 60 -24
v -3 61 -24
v -3 62 -24
v -3 63 -24
v -2 58 -24
v -2 60 -24
v -2 62 -24
v -2 64 -24
v -2 65 -24
v -1 60 -24
v -1 61 -24
v 0 63 -24
v 0 64 -24
v 1 59 -24
v 1 61 -24
v 1 63 -24
v 1 64 -24
v 2 59 -24
v 2 61 -24
v 3 58 -24
v 3 59 -24
v 3 61 -24
v 3 64 -24
v 4 58 -24
v 4 59 -24
v 4 66 -24
v 4 78 -24
v 4 80 -24
v 4 82 -24
v 6 78 -24
v 6 80 -24
v -6 66 -26
v -6 72 -26
v -6 75 -26
v -6 78 -26
v -5 71 -26
v -5 72 -26
v -5 73 -26
v -5 74 -26
v -5 76 -26
v -5 78 -26
v -4 71 -26
v -4 73 -26
v -4 77 -26
v -4 78 -26
v -3 74 -26
v -3 75 -26
v -3 76 -26
v -3 77 -26
v -2 73 -26
v -2 74 -26
v -1 69 -26
v -1 73 -26
v -1 74 -26
v -1 76 -26
v 0 69 -26
v 0 71 -26
v 0 73 -26
v 0 76 -26
v 1 72 -26
v 1 73 -26
v 2 71 -26
v 2 72 -26
v 4 73 -26
v 4 76 -26
v 5 69 -26
v 5 72 -26
v 5 73 -26
v 5 74 -26
v 5 75 -26
v 5 76 -26
v 6 66 -26
v 6 69 -26
v 6 72 -26
v 6 74 -26
v 6 75 -26
v 6 78 -26
v -4 58 -16
v -3 58 -16
v 4 58 -16
v -4 58 -18
v -3 58 -18
v 3 58 -21
v 4 58 -21
v -4 58 -23
v -2 58 -23
v -4 58 -24
v -2 58 -24
v 3 58 -24
v 4 58 -24
v -6 66 -22
v -4 66 -22
v 4 66 -22
v 6 66 -22
v -4 66 -24
v 4 66 -24
v -6 66 -26
v 6 66 -26
v -6 70 -20
v -4 70 -20
v 4 70 -20
v 6 70 -20
v -6 70 -22
v -4 70 -22
v 4 70 -22
v 6 70 -22
v -6 72 -18
v -4 72 -18
v 4 72 -18
v 6 72 -18
v -6 72 -20
v -4 72 -20
v 4 72 -20
v 6 72 -20
v -6 74 -16
v -4 74 -16
v 4 74 -16
v 6 74 -16
v -6 74 -18
v -4 74 -18
v 4 74 -18
v 6 74 -18
v -6 78 -24
v -4 78 -24
v 4 78 -24
v 6 78 -24
v -5 78 -25
v -4 78 -25
v -6 78 -26
v -5 78 -26
v -4 78 -26
v 6 78 -26
v -6 80 -22
v -4 80 -22
v 4 80 -22
v 5 80 -22
v 6 80 -22
v 5 80 -23
v 6 80 -23
v -6 80 -24
v -4 80 -24
v 4 80 -24
v 6 80 -24
v -6 82 -16
v -4 82 -16
v 4 82 -16
v 6 82 -16
v -5 82 -17
v -4 82 -17
v -4 82 -18
v 4 82 -18
v 6 82 -18
v -6 82 -19
v -5 82 -19
v 4 82 -20
v 6 82 -20
v -6 82 -22
v -4 82 -22
v 4 82 -22
v 6 82 -22
v -4 82 -24
v 4 82 -24
v -4 84 -16
v 4 84 -16
v -4 84 -22
v 4 84 -22

# faces
f 4/4/1 2/4/1 1/4/1
f 5/4/1 2/4/1 4/4/1
f 5/4/1 4/4/1 3/4/1
f 6/4/1 2/4/1 5/4/1
f 8/4/1 5/4/1 3/4/1
f 9/4/1 5/4/1 8/4/1
f 10/6/1 6/6/1 5/6/1
f 10/4/1 5/4/1 9/4/1
f 11/4/1 2/4/1 6/4/1
f 11/6/1 6/6/1 10/6/1
f 12/4/1 2/4/1 11/4/1
f 13/4/1 2/4/1 12/4/1
f 14/6/1 10/6/1 9/6/1
f 14/4/1 9/4/1 8/4/1
f 14/4/1 8/4/1 7/4/1
f 15/5/1 11/5/1 10/5/1
f 15/6/1 10/6/1 14/6/1
f 16/4/1 12/4/1 11/4/1
f 16/5/1 11/5/1 15/5/1
f 18/4/1 15/4/1 14/4/1
f 18/4/1 14/4/1 7/4/1
f 18/4/1 16/4/1 15/4/1
f 19/4/1 16/4/1 18/4/1
f 19/4/1 18/4/1 17/4/1
f 20/4/1 12/4/1 16/4/1
f 20/4/1 16/4/1 19/4/1
f 21/1/1 13/1/1 12/1/1
f 21/4/1 12/4/1 20/4/1
f 22/1/1 13/1/1 21/1/1
f 23/1/1 20/1/1 19/1/1
f 23/4/1 19/4/1 17/4/1
f 24/1/1 20/1/1 23/1/1
f 25/4/1 23/4/1 17/4/1
f 25/4/1 24/4/1 23/4/1
f 26/4/1 24/4/1 25/4/1
f 27/1/1 20/1/1 24/1/1
f 27/4/1 24/4/1 26/4/1
f 28/4/1 22/4/1 21/4/1
f 28/1/1 20/1/1 27/1/1
f 28/4/1 21/4/1 20/4/1
f 29/4/1 22/4/1 28/4/1
f 30/1/1 26/1/1 25/1/1
f 31/1/1 26/1/1 30/1/1
f 32/4/1 27/4/1 26/4/1
f 32/1/1 26/1/1 31/1/1
f 32/4/1 28/4/1 27/4/1
f 33/4/1 28/4/1 32/4/1
f 34/4/1 25/4/1 17/4/1
f 34/1/1 30/1/1 25/1/1
f 35/4/1 31/4/1 30/4/1
f 35/1/1 30/1/1 34/1/1
f 36/1/1 33/1/1 32/1/1
f 36/4/1 31/4/1 35/4/1
f 36/1/1 32/1/1 31/1/1
f 37/4/1 28/4/1 33/4/1
f 37/1/1 33/1/1 36/1/1
f 38/4/1 28/4/1 37/4/1
f 39/4/1 34/4/1 17/4/1
f 39/4/1 36/4/1 35/4/1
f 39/4/1 37/4/1 36/4/1
f 39/4/1 35/4/1 34/4/1
f 40/4/1 37/4/1 39/4/1
f 41/1/1 40/1/1 39/1/1
f 42/4/1 37/4/1 40/4/1
f 42/1/1 40/1/1 41/1/1
f 43/4/1 37/4/1 42/4/1
f 48/2/1 45/2/1 44/2/1
f 49/3/1 46/3/1 45/3/1
f 49/2/1 45/2/1 48/2/1
f 50/3/1 49/3/1 48/3/1
f 50/3/1 46/3/1 49/3/1
f 51/3/1 46/3/1 50/3/1
f 52/2/1 48/2/1 44/2/1
f 53/3/1 50/3/1 48/3/1
f 53/2/1 48/2/1 52/2/1
f 54/2/1 51/2/1 50/2/1
f 54/3/1 50/3/1 53/3/1
f 55/2/1 51/2/1 54/2/1
f 56/3/1 46/3/1 51/3/1
f 56/2/1 51/2/1 55/2/1
f 57/2/1 47/2/1 46/2/1
f 57/3/1 46/3/1 56/3/1
f 58/2/1 47/2/1 57/2/1
f 59/2/1 55/2/1 54/2/1
f 59/3/1 53/3/1 52/3/1
f 59/2/1 54/2/1 53/2/1
f 60/2/1 55/2/1 59/2/1
f 61/2/1 55/2/1 60/2/1
f 62/3/1 56/3/1 55/3/1
f 62/2/1 55/2/1 61/2/1
f 62/3/1 58/3/1 57/3/1
f 62/3/1 57/3/1 56/3/1
f 63/2/1 61/2/1 60/2/1
f 63/3/1 60/3/1 59/3/1
f 64/2/1 61/2/1 63/2/1
f 65/3/1 58/3/1 62/3/1
f 65/3/1 62/3/1 61/3/1
f 66/3/1 58/3/1 65/3/1
f 67/2/1 61/2/1 64/2/1
f 67/3/1 64/3/1 63/3/1
f 68/3/1 65/3/1 61/3/1
f 68/2/1 61/2/1 67/2/1
f 69/2/1 66/2/1 65/2/1
f 69/3/1 65/3/1 68/3/1
f 70/2/1 69/2/1 68/2/1
f 71/2/1 66/2/1 69/2/1
f 71/2/1 69/2/1 70/2/1
f 72/3/1 68/3/1 67/3/1
f 72/3/1 59/3/1 52/3/1
f 72/3/1 63/3/1 59/3/1
f 72/3/1 67/3/1 63/3/1
f 73/3/1 68/3/1 72/3/1
f 74/3/1 68/3/1 73/3/1
f 75/3/1 68/3/1 74/3/1
f 76/3/1 71/3/1 70/3/1
f 77/3/1 71/3/1 76/3/1
f 78/2/1 73/2/1 72/2/1
f 79/3/1 74/3/1 73/3/1
f 79/2/1 73/2/1 78/2/1
f 80/3/1 68/3/1 75/3/1
f 80/2/1 70/2/1 68/2/1
f 81/3/1 76/3/1 70/3/1
f 81/2/1 70/2/1 80/2/1
f 82/3/1 74/3/1 79/3/1
f 82/3/1 79/3/1 78/3/1
f 82/2/1 75/2/1 74/2/1
f 83/3/1 81/3/1 80/3/1
f 83/2/1 75/2/1 82/2/1
f 83/3/1 80/3/1 75/3/1
f 84/3/1 76/3/1 81/3/1
f 84/3/1 81/3/1 83/3/1
f 85/3/1 83/3/1 82/3/1
f 85/3/1 82/3/1 78/3/1
f 86/3/1 83/3/1 85/3/1
f 87/2/1 84/2/1 83/2/1
f 88/2/1 84/2/1 87/2/1
f 89/3/1 83/3/1 86/3/1
f 89/2/1 86/2/1 85/2/1
f 90/3/1 83/3/1 89/3/1
f 91/2/1 87/2/1 83/2/1
f 91/3/1 83/3/1 90/3/1
f 92/2/1 87/2/1 91/2/1
f 93/2/1 90/2/1 89/2/1
f 93/2/1 89/2/1 85/2/1
f 94/2/1 90/2/1 93/2/1
f 95/3/1 92/3/1 91/3/1
f 95/2/1 90/2/1 94/2/1
f 95/3/1 91/3/1 90/3/1
f 96/3/1 92/3/1 95/3/1
f 97/3/1 94/3/1 93/3/1
f 97/2/1 95/2/1 94/2/1
f 98/2/1 95/2/1 97/2/1
f 99/3/1 97/3/1 93/3/1
f 99/3/1 98/3/1 97/3/1
f 100/3/1 98/3/1 99/3/1
f 106/3/1 102/3/1 101/3/1
f 107/3/1 102/3/1 106/3/1
f 108/1/1 105/1/1 104/1/1
f 108/1/1 104/1/1 103/1/1
f 109/4/1 106/4/1 105/4/1
f 109/1/1 105/1/1 108/1/1
f 110/4/1 109/4/1 108/4/1
f 111/4/1 106/4/1 109/4/1
f 111/4/1 109/4/1 110/4/1
f 112/3/2 113/3/2 115/3/2
f 115/3/2 113/3/2 116/3/2
f 113/2/2 114/2/2 117/2/2
f 116/3/2 113/3/2 117/3/2
f 117/2/2 114/2/2 118/2/2
f 116/3/2 117/3/2 119/3/2
f 117/3/2 118/3/2 119/3/2
f 119/3/2 118/3/2 120/3/2
f 120/3/2 118/3/2 121/3/2
f 121/3/2 118/3/2 122/3/2
f 115/2/2 116/2/2 123/2/2
f 116/3/2 119/3/2 123/3/2
f 119/2/2 120/2/2 124/2/2
f 123/3/2 119/3/2 124/3/2
f 120/3/2 121/3/2 125/3/2
f 124/2/2 120/2/2 125/2/2
f 125/3/2 121/3/2 126/3/2
f 121/2/2 122/2/2 127/2/2
f 126/3/2 121/3/2 127/3/2
f 122/3/2 118/3/2 128/3/2
f 127/2/2 122/2/2 128/2/2
f 115/2/2 123/2/2 129/2/2
f 123/2/2 124/2/2 129/2/2
f 129/2/2 124/2/2 130/2/2
f 129/3/2 130/3/2 131/3/2
f 130/2/2 124/2/2 131/2/2
f 124/3/2 125/3/2 132/3/2
f 131/2/2 124/2/2 132/2/2
f 125/2/2 126/2/2 133/2/2
f 132/3/2 125/3/2 133/3/2
f 131/3/2 132/3/2 133/3/2
f 133/2/2 126/2/2 134/2/2
f 126/3/2 127/3/2 135/3/2
f 127/3/2 128/3/2 135/3/2
f 128/3/2 118/3/2 136/3/2
f 135/3/2 128/3/2 136/3/2
f 134/2/2 126/2/2 137/2/2
f 133/3/2 134/3/2 137/3/2
f 126/3/2 135/3/2 138/3/2
f 137/2/2 126/2/2 138/2/2
f 133/3/2 137/3/2 139/3/2
f 131/3/2 133/3/2 139/3/2
f 137/3/2 138/3/2 139/3/2
f 129/3/2 131/3/2 139/3/2
f 139/3/2 138/3/2 140/3/2
f 129/3/2 139/3/2 141/3/2
f 139/2/2 140/2/2 142/2/2
f 141/3/2 139/3/2 142/3/2
f 140/3/2 138/3/2 143/3/2
f 142/2/2 140/2/2 143/2/2
f 143/3/2 138/3/2 144/3/2
f 138/3/2 135/3/2 145/3/2
f 144/3/2 138/3/2 145/3/2
f 143/2/2 144/2/2 146/2/2
f 141/2/2 142/2/2 146/2/2
f 142/2/2 143/2/2 146/2/2
f 146/2/2 144/2/2 147/2/2
f 146/3/2 147/3/2 148/3/2
f 148/3/2 147/3/2 149/3/2
f 146/3/2 148/3/2 150/3/2
f 150/3/2 148/3/2 151/3/2
f 152/3/2 153/3/2 157/3/2
f 157/3/2 153/3/2 158/3/2
f 155/1/2 156/1/2 159/1/2
f 154/4/2 155/4/2 159/4/2
f 156/4/2 157/4/2 160/4/2
f 159/1/2 156/1/2 160/1/2
f 154/4/2 159/4/2 161/4/2
f 159/4/2 160/4/2 161/4/2
f 160/4/2 157/4/2 162/4/2
f 161/4/2 160/4/2 162/4/2
f 163/4/2 164/4/2 165/4/2
f 165/4/2 164/4/2 166/4/2
f 163/4/2 165/4/2 168/4/2
f 165/1/2 166/1/2 169/1/2
f 168/4/2 165/4/2 169/4/2
f 169/1/2 166/1/2 170/1/2
f 167/4/2 168/4/2 171/4/2
f 168/4/2 169/4/2 171/4/2
f 169/4/2 170/4/2 171/4/2
f 171/4/2 170/4/2 172/4/2
f 167/4/2 171/4/2 174/4/2
f 174/4/2 171/4/2 175/4/2
f 171/6/2 172/6/2 176/6/2
f 175/4/2 171/4/2 176/4/2
f 172/4/2 170/4/2 177/4/2
f 176/6/2 172/6/2 177/6/2
f 170/1/2 166/1/2 178/1/2
f 177/4/2 170/4/2 178/4/2
f 178/1/2 166/1/2 179/1/2
f 175/6/2 176/6/2 180/6/2
f 174/4/2 175/4/2 180/4/2
f 173/4/2 174/4/2 180/4/2
f 176/5/2 177/5/2 181/5/2
f 180/6/2 176/6/2 181/6/2
f 178/4/2 179/4/2 182/4/2
f 181/5/2 177/5/2 182/5/2
f 177/4/2 178/4/2 182/4/2
f 182/4/2 179/4/2 183/4/2
f 183/4/2 179/4/2 184/4/2
f 173/4/2 180/4/2 186/4/2
f 180/4/2 181/4/2 186/4/2
f 181/4/2 182/4/2 186/4/2
f 182/4/2 183/4/2 186/4/2
f 186/4/2 183/4/2 187/4/2
f 187/4/2 183/4/2 188/4/2
f 188/4/2 183/4/2 189/4/2
f 183/1/2 184/1/2 190/1/2
f 189/4/2 183/4/2 190/4/2
f 184/4/2 179/4/2 191/4/2
f 190/1/2 184/1/2 191/1/2
f 191/4/2 179/4/2 192/4/2
f 185/4/2 186/4/2 193/4/2
f 186/4/2 187/4/2 193/4/2
f 187/1/2 188/1/2 193/1/2
f 188/4/2 189/4/2 194/4/2
f 193/1/2 188/1/2 194/1/2
f 189/1/2 190/1/2 195/1/2
f 194/4/2 189/4/2 195/4/2
f 191/1/2 192/1/2 195/1/2
f 190/1/2 191/1/2 195/1/2
f 195/1/2 192/1/2 196/1/2
f 193/4/2 194/4/2 197/4/2
f 185/4/2 193/4/2 197/4/2
f 195/4/2 196/4/2 197/4/2
f 194/4/2 195/4/2 197/4/2
f 197/4/2 196/4/2 198/4/2
f 198/4/2 196/4/2 199/4/2
f 199/4/2 196/4/2 200/4/2
f 185/4/2 197/4/2 201/4/2
f 197/1/2 198/1/2 201/1/2
f 198/4/2 199/4/2 202/4/2
f 201/1/2 198/1/2 202/1/2
f 201/4/2 202/4/2 203/4/2
f 199/1/2 200/1/2 204/1/2
f 203/4/2 202/4/2 204/4/2
f 202/4/2 199/4/2 204/4/2
f 200/4/2 196/4/2 205/4/2
f 204/1/2 200/1/2 205/1/2
f 205/4/2 196/4/2 206/4/2
f 201/4/2 203/4/2 207/4/2
f 185/4/2 201/4/2 207/4/2
f 207/4/2 203/4/2 208/4/2
f 207/1/2 208/1/2 209/1/2
f 208/4/2 203/4/2 209/4/2
f 209/4/2 203/4/2 210/4/2
f 203/1/2 204/1/2 211/1/2
f 210/4/2 203/4/2 211/4/2
f 211/1/2 204/1/2 212/1/2
f 204/4/2 205/4/2 213/4/2
f 212/1/2 204/1/2 213/1/2
f 213/4/2 205/4/2 214/4/2
f 209/1/2 210/1/2 215/1/2
f 185/4/2 207/4/2 215/4/2
f 207/1/2 209/1/2 215/1/2
f 215/1/2 210/1/2 216/1/2
f 185/4/2 215/4/2 217/4/2
f 215/4/2 216/4/2 217/4/2
f 216/1/2 210/1/2 218/1/2
f 217/4/2 216/4/2 218/4/2
f 211/4/2 212/4/2 219/4/2
f 218/1/2 210/1/2 219/1/2
f 210/4/2 211/4/2 219/4/2
f 219/4/2 212/4/2 220/4/2
f 230/4/3 222/4/3 221/4/3
f 231/1/3 223/1/3 222/1/3
f 231/4/3 222/4/3 230/4/3
f 232/1/3 223/1/3 231/1/3
f 235/2/3 225/2/3 224/2/3
f 236/2/3 225/2/3 235/2/3
f 237/2/3 227/2/3 226/2/3
f 237/3/3 228/3/3 227/3/3
f 238/3/3 228/3/3 237/3/3
f 239/2/3 229/2/3 228/2/3
f 239/3/3 228/3/3 238/3/3
f 240/3/3 230/3/3 229/3/3
f 240/2/3 229/2/3 239/2/3
f 241/4/3 231/4/3 230/4/3
f 241/4/3 232/4/3 231/4/3
f 241/1/3 233/1/3 232/1/3
f 242/4/3 234/4/3 233/4/3
f 242/1/3 233/1/3 241/1/3
f 243/2/3 238/2/3 237/2/3
f 243/3/3 226/3/3 225/3/3
f 243/2/3 237/2/3 226/2/3
f 244/3/3 239/3/3 238/3/3
f 244/2/3 238/2/3 243/2/3
f 244/3/3 240/3/3 239/3/3
f 245/2/3 225/2/3 236/2/3
f 245/3/3 236/3/3 235/3/3
f 246/3/3 243/3/3 225/3/3
f 246/2/3 225/2/3 245/2/3
f 246/3/3 244/3/3 243/3/3
f 247/3/3 244/3/3 246/3/3
f 248/3/3 244/3/3 247/3/3
f 249/2/3 248/2/3 247/2/3
f 250/3/3 244/3/3 248/3/3
f 250/2/3 248/2/3 249/2/3
f 251/3/3 240/3/3 244/3/3
f 251/3/3 244/3/3 250/3/3
f 252/3/3 240/3/3 251/3/3
f 253/3/3 246/3/3 245/3/3
f 253/3/3 247/3/3 246/3/3
f 253/2/3 249/2/3 247/2/3
f 254/3/3 250/3/3 249/3/3
f 254/2/3 249/2/3 253/2/3
f 254/3/3 251/3/3 250/3/3
f 255/2/3 252/2/3 251/2/3
f 256/3/3 240/3/3 252/3/3
f 256/2/3 252/2/3 255/2/3
f 257/2/3 255/2/3 251/2/3
f 257/3/3 251/3/3 254/3/3
f 257/3/3 254/3/3 253/3/3
f 258/3/3 256/3/3 255/3/3
f 258/2/3 255/2/3 257/2/3
f 259/3/3 245/3/3 235/3/3
f 259/3/3 253/3/3 245/3/3
f 259/3/3 258/3/3 257/3/3
f 259/3/3 257/3/3 253/3/3
f 260/3/3 258/3/3 259/3/3
f 261/3/3 256/3/3 258/3/3
f 261/3/3 258/3/3 260/3/3
f 262/3/3 240/3/3 256/3/3
f 262/3/3 256/3/3 261/3/3
f 263/3/3 259/3/3 235/3/3
f 264/2/3 260/2/3 259/2/3
f 264/3/3 259/3/3 263/3/3
f 265/3/3 261/3/3 260/3/3
f 265/2/3 260/2/3 264/2/3
f 266/2/3 262/2/3 261/2/3
f 266/3/3 261/3/3 265/3/3
f 267/3/3 240/3/3 262/3/3
f 267/2/3 262/2/3 266/2/3
f 268/4/3 241/4/3 230/4/3
f 268/3/3 240/3/3 267/3/3
f 268/4/3 242/4/3 241/4/3
f 268/3/3 230/3/3 240/3/3
f 269/4/3 242/4/3 268/4/3
f 270/4/3 234/4/3 242/4/3
f 270/4/3 242/4/3 269/4/3
f 271/4/3 269/4/3 268/4/3
f 272/4/3 269/4/3 271/4/3
f 275/4/3 274/4/3 273/4/3
f 276/4/3 274/4/3 275/4/3
f 277/4/3 274/4/3 276/4/3
f 280/4/3 279/4/3 278/4/3
f 281/4/3 279/4/3 280/4/3
f 284/4/3 283/4/3 282/4/3
f 285/4/3 283/4/3 284/4/3
f 286/4/3 283/4/3 285/4/3
f 290/4/3 288/4/3 287/4/3
f 290/4/3 289/4/3 288/4/3
f 291/4/3 289/4/3 290/4/3
f 294/4/3 293/4/3 292/4/3
f 295/4/3 293/4/3 294/4/3
f 296/4/3 293/4/3 295/4/3
f 299/4/3 298/4/3 297/4/3
f 300/4/3 298/4/3 299/4/3
f 301/4/4 302/4/4 303/4/4
f 303/4/4 302/4/4 304/4/4
f 304/4/4 305/4/4 307/4/4
f 307/4/4 305/4/4 308/4/4
f 306/4/4 307/4/4 309/4/4
f 309/4/4 307/4/4 310/4/4
f 310/4/4 307/4/4 311/4/4
f 312/4/4 313/4/4 319/4/4
f 319/4/4 313/4/4 320/4/4
f 314/2/4 315/2/4 322/2/4
f 315/3/4 316/3/4 323/3/4
f 322/2/4 315/2/4 323/2/4
f 323/3/4 316/3/4 324/3/4
f 316/2/4 317/2/4 325/2/4
f 324/3/4 316/3/4 325/3/4
f 314/2/4 322/2/4 326/2/4
f 323/3/4 324/3/4 327/3/4
f 326/2/4 322/2/4 327/2/4
f 322/3/4 323/3/4 327/3/4
f 324/2/4 325/2/4 328/2/4
f 327/3/4 324/3/4 328/3/4
f 325/2/4 317/2/4 329/2/4
f 328/2/4 325/2/4 329/2/4
f 317/3/4 318/3/4 330/3/4
f 329/2/4 317/2/4 330/2/4
f 328/2/4 329/2/4 331/2/4
f 327/2/4 328/2/4 331/2/4
f 326/3/4 327/3/4 331/3/4
f 331/2/4 329/2/4 332/2/4
f 332/2/4 329/2/4 333/2/4
f 329/3/4 330/3/4 334/3/4
f 333/2/4 329/2/4 334/2/4
f 326/3/4 331/3/4 335/3/4
f 331/3/4 332/3/4 335/3/4
f 332/2/4 333/2/4 336/2/4
f 335/3/4 332/3/4 336/3/4
f 333/3/4 334/3/4 337/3/4
f 336/2/4 333/2/4 337/2/4
f 334/3/4 330/3/4 338/3/4
f 337/3/4 334/3/4 338/3/4
f 326/3/4 335/3/4 339/3/4
f 336/2/4 337/2/4 339/2/4
f 337/2/4 338/2/4 339/2/4
f 335/2/4 336/2/4 339/2/4
f 339/2/4 338/2/4 340/2/4
f 326/3/4 339/3/4 341/3/4
f 339/3/4 340/3/4 341/3/4
f 341/3/4 340/3/4 342/3/4
f 340/2/4 338/2/4 343/2/4
f 342/3/4 340/3/4 343/3/4
f 338/3/4 330/3/4 344/3/4
f 343/2/4 338/2/4 344/2/4
f 341/2/4 342/2/4 345/2/4
f 342/3/4 343/3/4 346/3/4
f 345/2/4 342/2/4 346/2/4
f 343/3/4 344/3/4 346/3/4
f 330/3/4 318/3/4 347/3/4
f 346/3/4 344/3/4 347/3/4
f 344/3/4 330/3/4 347/3/4
f 320/3/4 321/3/4 348/3/4
f 319/3/4 320/3/4 348/3/4
f 348/3/4 321/3/4 349/3/4
f 349/3/4 321/3/4 350/3/4
f 348/4/4 349/4/4 351/4/4
f 351/4/4 349/4/4 352/4/4
f 353/4/4 354/4/4 357/4/4
f 354/1/4 355/1/4 358/1/4
f 357/4/4 354/4/4 358/4/4
f 358/1/4 355/1/4 359/1/4
f 359/1/4 355/1/4 360/1/4
f 355/4/4 356/4/4 361/4/4
f 361/4/4 356/4/4 362/4/4
f 353/4/4 357/4/4 363/4/4
f 357/1/4 358/1/4 363/1/4
f 358/1/4 359/1/4 363/1/4
f 359/4/4 360/4/4 364/4/4
f 363/1/4 359/1/4 364/1/4
f 361/1/4 362/1/4 365/1/4
f 365/1/4 362/1/4 366/1/4
f 360/1/4 355/1/4 367/1/4
f 364/4/4 360/4/4 367/4/4
f 363/4/4 364/4/4 367/4/4
f 355/4/4 361/4/4 368/4/4
f 367/1/4 355/1/4 368/1/4
f 361/1/4 365/1/4 369/1/4
f 368/4/4 361/4/4 369/4/4
f 365/4/4 366/4/4 370/4/4
f 369/1/4 365/1/4 370/1/4
f 368/4/4 369/4/4 371/4/4
f 363/4/4 367/4/4 371/4/4
f 369/4/4 370/4/4 371/4/4
f 367/4/4 368/4/4 371/4/4
f 371/4/4 370/4/4 372/4/4
f 353/4/4 363/4/4 373/4/4
f 363/4/4 371/4/4 373/4/4
f 371/1/4 372/1/4 374/1/4
f 373/4/4 371/4/4 374/4/4
f 372/4/4 370/4/4 375/4/4
f 374/1/4 372/1/4 375/1/4
f 375/4/4 370/4/4 376/4/4
f 373/1/4 374/1/4 377/1/4
f 353/4/4 373/4/4 377/4/4
f 375/1/4 376/1/4 377/1/4
f 374/1/4 375/1/4 377/1/4
f 377/1/4 376/1/4 378/1/4
f 378/1/4 376/1/4 379/1/4
f 376/4/4 370/4/4 380/4/4
f 379/1/4 376/1/4 380/1/4
f 378/1/4 379/1/4 381/1/4
f 379/4/4 380/4/4 382/4/4
f 381/1/4 379/1/4 382/1/4
f 377/4/4 378/4/4 383/4/4
f 378/1/4 381/1/4 383/1/4
f 381/4/4 382/4/4 384/4/4
f 383/1/4 381/1/4 384/1/4
f 382/4/4 380/4/4 385/4/4
f 384/4/4 382/4/4 385/4/4
f 383/4/4 384/4/4 385/4/4
f 380/4/4 370/4/4 386/4/4
f 385/4/4 380/4/4 386/4/4
f 383/4/4 385/4/4 387/4/4
f 353/4/4 377/4/4 387/4/4
f 377/4/4 383/4/4 387/4/4
f 387/4/4 385/4/4 388/4/4
f 385/1/4 386/1/4 389/1/4
f 388/4/4 385/4/4 389/4/4
f 389/1/4 386/1/4 390/1/4
f 390/1/4 386/1/4 391/1/4
f 386/4/4 370/4/4 392/4/4
f 391/1/4 386/1/4 392/1/4
f 353/4/4 387/4/4 393/4/4
f 387/1/4 388/1/4 394/1/4
f 393/4/4 387/4/4 394/4/4
f 388/4/4 389/4/4 395/4/4
f 394/1/4 388/1/4 395/1/4
f 389/4/4 390/4/4 395/4/4
f 390/1/4 391/1/4 396/1/4
f 395/4/4 390/4/4 396/4/4
f 391/4/4 392/4/4 397/4/4
f 396/1/4 391/1/4 397/1/4
f 370/4/4 366/4/4 398/4/4
f 397/4/4 392/4/4 398/4/4
f 392/4/4 370/4/4 398/4/4
f 402/2/5 400/2/5 399/2/5
f 403/3/5 401/3/5 400/3/5
f 403/2/5 400/2/5 402/2/5
f 404/3/5 403/3/5 402/3/5
f 404/3/5 401/3/5 403/3/5
f 405/3/5 401/3/5 404/3/5
f 406/3/5 404/3/5 402/3/5
f 407/3/5 404/3/5 406/3/5
f 408/2/5 407/2/5 406/2/5
f 409/3/5 404/3/5 407/3/5
f 409/2/5 407/2/5 408/2/5
f 410/2/5 405/2/5 404/2/5
f 410/3/5 404/3/5 409/3/5
f 411/2/5 405/2/5 410/2/5
f 416/4/5 413/4/5 412/4/5
f 417/4/5 415/4/5 414/4/5
f 418/4/5 416/4/5 412/4/5
f 418/4/5 417/4/5 416/4/5
f 419/4/5 415/4/5 417/4/5
f 419/4/5 417/4/5 418/4/5
f 424/4/5 421/4/5 420/4/5
f 425/4/5 421/4/5 424/4/5
f 426/4/5 423/4/5 422/4/5
f 427/4/5 423/4/5 426/4/5
f 432/4/5 429/4/5 428/4/5
f 433/4/5 429/4/5 432/4/5
f 434/4/5 431/4/5 430/4/5
f 435/4/5 431/4/5 434/4/5
f 440/4/5 437/4/5 436/4/5
f 441/4/5 437/4/5 440/4/5
f 442/4/5 439/4/5 438/4/5
f 443/4/5 439/4/5 442/4/5
f 444/4/6 445/4/6 448/4/6
f 446/4/6 447/4/6 448/4/6
f 445/4/6 446/4/6 448/4/6
f 448/4/6 447/4/6 449/4/6
f 444/4/6 448/4/6 450/4/6
f 448/1/6 449/1/6 451/1/6
f 450/4/6 448/4/6 451/4/6
f 449/4/6 447/4/6 452/4/6
f 451/1/6 449/1/6 452/1/6
f 452/4/6 447/4/6 453/4/6
f 456/4/6 457/4/6 459/4/6
f 457/1/6 458/1/6 459/1/6
f 459/1/6 458/1/6 460/1/6
f 454/4/6 455/4/6 461/4/6
f 461/4/6 455/4/6 462/4/6
f 456/4/6 459/4/6 463/4/6
f 459/4/6 460/4/6 463/4/6
f 463/4/6 460/4/6 464/4/6
f 465/1/6 466/1/6 469/1/6
f 469/1/6 466/1/6 470/1/6
f 469/4/6 470/4/6 471/4/6
f 467/4/6 468/4/6 472/4/6
f 472/4/6 468/4/6 473/4/6
f 465/1/6 469/1/6 474/1/6
f 469/4/6 471/4/6 475/4/6
f 474/1/6 469/1/6 475/1/6
f 472/1/6 473/1/6 476/1/6
f 476/1/6 473/1/6 477/1/6
f 474/4/6 475/4/6 478/4/6
f 475/4/6 471/4/6 479/4/6
f 478/4/6 475/4/6 479/4/6
f 476/4/6 477/4/6 480/4/6
f 480/4/6 477/4/6 481/4/6
f 479/3/6 480/3/6 482/3/6
f 482/3/6 480/3/6 483/3/6
f 484/4/6 485/4/6 486/4/6
f 486/4/6 485/4/6 487/4/6
