# MagicaVoxel @ Ephtracy

# material
mtllib RightLeg.mtl
usemtl palette

# normals
vn -1 0 0
vn 1 0 0
vn 0 0 1
vn 0 0 -1
vn 0 -1 0
vn 0 1 0

# texcoords
vt 0.943359 0.5
vt 0.947266 0.5
vt 0.970703 0.5
vt 0.974609 0.5
vt 0.978516 0.5
vt 0.986328 0.5

# verts
v -5 28 13
v -5 28 4
v -5 30 13
v -5 30 4
v -5 34 13
v -5 34 4
v -5 36 13
v -5 36 4
v -4 24 12
v -4 24 4
v -4 25 11
v -4 25 10
v -4 25 7
v -4 25 5
v -4 26 10
v -4 26 9
v -4 26 7
v -4 26 6
v -4 27 10
v -4 27 9
v -4 27 6
v -4 27 5
v -4 28 12
v -4 28 11
v -4 28 10
v -4 28 4
v -4 30 12
v -4 30 4
v -4 31 9
v -4 31 6
v -4 31 5
v -4 31 4
v -4 32 12
v -4 32 10
v -4 32 9
v -4 32 7
v -4 32 5
v -4 32 4
v -4 33 12
v -4 33 10
v -4 33 7
v -4 33 6
v -4 34 12
v -4 34 4
v -4 36 12
v -4 36 4
v -4 37 12
v -4 37 10
v -4 37 8
v -4 37 6
v -4 38 12
v -4 38 11
v -4 38 9
v -4 38 8
v -4 39 11
v -4 39 10
v -4 39 9
v -4 39 6
v -4 40 12
v -4 40 4
v 4 24 12
v 4 24 4
v 4 26 12
v 4 26 4
v 4 38 12
v 4 38 4
v 4 40 12
v 4 40 4
v 5 26 12
v 5 26 4
v 5 27 11
v 5 27 5
v 5 28 13
v 5 28 12
v 5 28 10
v 5 28 8
v 5 28 7
v 5 28 6
v 5 29 7
v 5 29 6
v 5 30 13
v 5 30 12
v 5 30 10
v 5 30 8
v 5 30 6
v 5 31 10
v 5 31 9
v 5 32 9
v 5 32 8
v 5 32 7
v 5 33 9
v 5 33 8
v 5 34 13
v 5 34 12
v 5 34 9
v 5 34 7
v 5 35 7
v 5 35 6
v 5 36 13
v 5 36 12
v 5 36 10
v 5 36 9
v 5 36 8
v 5 36 7
v 5 37 11
v 5 37 9
v 5 37 8
v 5 37 7
v 5 37 5
v 5 38 12
v 5 38 4
v -5 28 13
v -5 30 13
v -5 34 13
v -5 36 13
v 5 28 13
v 5 30 13
v 5 34 13
v 5 36 13
v -4 24 12
v -4 28 12
v -4 30 12
v -4 32 12
v -4 33 12
v -4 34 12
v -4 36 12
v -4 37 12
v -4 38 12
v -4 40 12
v -3 32 12
v -3 33 12
v -3 37 12
v -3 38 12
v -2 32 12
v -2 33 12
v -2 37 12
v -2 38 12
v -1 30 12
v -1 32 12
v 0 30 12
v 0 31 12
v 0 32 12
v 0 33 12
v 1 31 12
v 1 32 12
v 1 37 12
v 1 38 12
v 4 24 12
v 4 26 12
v 4 28 12
v 4 30 12
v 4 34 12
v 4 36 12
v 4 38 12
v 4 40 12
v 5 26 12
v 5 28 12
v 5 30 12
v 5 34 12
v 5 36 12
v 5 38 12
v -5 28 4
v -5 30 4
v -5 34 4
v -5 36 4
v -4 24 4
v -4 28 4
v -4 30 4
v -4 31 4
v -4 32 4
v -4 34 4
v -4 36 4
v -4 40 4
v -3 31 4
v -3 32 4
v -2 26 4
v -2 27 4
v -2 37 4
v -2 39 4
v -1 25 4
v -1 26 4
v -1 27 4
v -1 28 4
v -1 35 4
v -1 37 4
v 0 30 4
v 0 32 4
v 0 35 4
v 0 38 4
v 0 39 4
v 0 40 4
v 1 25 4
v 1 28 4
v 1 38 4
v 1 40 4
v 2 30 4
v 2 32 4
v 4 24 4
v 4 26 4
v 4 38 4
v 4 40 4
v 5 26 4
v 5 38 4
v -4 24 12
v 4 24 12
v -4 24 4
v 4 24 4
v 4 26 12
v 5 26 12
v 4 26 4
v 5 26 4
v -5 28 13
v 5 28 13
v -4 28 12
v 4 28 12
v 5 28 12
v -4 28 11
v -4 28 10
v -5 28 4
v -4 28 4
v -5 34 13
v 5 34 13
v -4 34 12
v 4 34 12
v 5 34 12
v -5 34 4
v -4 34 4
v -5 30 13
v 5 30 13
v -4 30 12
v -1 30 12
v 0 30 12
v 4 30 12
v 5 30 12
v -5 30 4
v -4 30 4
v -5 36 13
v 5 36 13
v -4 36 12
v 4 36 12
v 5 36 12
v -5 36 4
v -4 36 4
v 4 38 12
v 5 38 12
v 4 38 4
v 5 38 4
v -4 40 12
v 4 40 12
v 0 40 5
v 1 40 5
v -4 40 4
v 0 40 4
v 1 40 4
v 4 40 4

# faces
f 3/4/1 2/4/1 1/4/1
f 4/4/1 2/4/1 3/4/1
f 7/4/1 6/4/1 5/4/1
f 8/4/1 6/4/1 7/4/1
f 11/3/1 10/3/1 9/3/1
f 12/3/1 10/3/1 11/3/1
f 13/3/1 10/3/1 12/3/1
f 14/3/1 10/3/1 13/3/1
f 15/2/1 12/2/1 11/2/1
f 15/3/1 13/3/1 12/3/1
f 16/3/1 13/3/1 15/3/1
f 17/2/1 14/2/1 13/2/1
f 17/3/1 13/3/1 16/3/1
f 18/2/1 14/2/1 17/2/1
f 19/2/1 16/2/1 15/2/1
f 19/2/1 15/2/1 11/2/1
f 20/3/1 18/3/1 17/3/1
f 20/2/1 16/2/1 19/2/1
f 20/3/1 17/3/1 16/3/1
f 21/2/1 14/2/1 18/2/1
f 21/3/1 18/3/1 20/3/1
f 22/3/1 10/3/1 14/3/1
f 22/2/1 14/2/1 21/2/1
f 23/3/1 11/3/1 9/3/1
f 24/2/1 19/2/1 11/2/1
f 24/3/1 11/3/1 23/3/1
f 25/3/1 21/3/1 20/3/1
f 25/2/1 19/2/1 24/2/1
f 25/3/1 20/3/1 19/3/1
f 25/3/1 22/3/1 21/3/1
f 26/3/1 10/3/1 22/3/1
f 26/3/1 22/3/1 25/3/1
f 29/3/1 28/3/1 27/3/1
f 30/3/1 28/3/1 29/3/1
f 31/3/1 28/3/1 30/3/1
f 32/3/1 28/3/1 31/3/1
f 33/3/1 29/3/1 27/3/1
f 34/3/1 29/3/1 33/3/1
f 35/2/1 30/2/1 29/2/1
f 35/3/1 29/3/1 34/3/1
f 36/2/1 30/2/1 35/2/1
f 37/3/1 31/3/1 30/3/1
f 37/2/1 32/2/1 31/2/1
f 38/2/1 32/2/1 37/2/1
f 39/2/1 34/2/1 33/2/1
f 40/3/1 36/3/1 35/3/1
f 40/2/1 34/2/1 39/2/1
f 40/3/1 35/3/1 34/3/1
f 41/2/1 30/2/1 36/2/1
f 41/3/1 36/3/1 40/3/1
f 42/3/1 38/3/1 37/3/1
f 42/2/1 30/2/1 41/2/1
f 42/3/1 37/3/1 30/3/1
f 43/3/1 40/3/1 39/3/1
f 43/3/1 41/3/1 40/3/1
f 43/3/1 42/3/1 41/3/1
f 44/3/1 38/3/1 42/3/1
f 44/3/1 42/3/1 43/3/1
f 47/3/1 46/3/1 45/3/1
f 48/3/1 46/3/1 47/3/1
f 49/3/1 46/3/1 48/3/1
f 50/3/1 46/3/1 49/3/1
f 51/2/1 48/2/1 47/2/1
f 52/2/1 48/2/1 51/2/1
f 53/3/1 49/3/1 48/3/1
f 54/2/1 50/2/1 49/2/1
f 54/3/1 49/3/1 53/3/1
f 55/2/1 48/2/1 52/2/1
f 55/3/1 52/3/1 51/3/1
f 56/3/1 53/3/1 48/3/1
f 56/2/1 48/2/1 55/2/1
f 57/2/1 54/2/1 53/2/1
f 57/3/1 53/3/1 56/3/1
f 58/3/1 46/3/1 50/3/1
f 58/2/1 54/2/1 57/2/1
f 58/2/1 50/2/1 54/2/1
f 59/3/1 57/3/1 56/3/1
f 59/3/1 56/3/1 55/3/1
f 59/3/1 58/3/1 57/3/1
f 59/3/1 55/3/1 51/3/1
f 60/3/1 46/3/1 58/3/1
f 60/3/1 58/3/1 59/3/1
f 61/3/2 62/3/2 63/3/2
f 63/3/2 62/3/2 64/3/2
f 65/3/2 66/3/2 67/3/2
f 67/3/2 66/3/2 68/3/2
f 69/4/2 70/4/2 71/4/2
f 71/4/2 70/4/2 72/4/2
f 69/4/2 71/4/2 74/4/2
f 71/1/2 72/1/2 75/1/2
f 75/1/2 72/1/2 76/1/2
f 76/1/2 72/1/2 77/1/2
f 77/1/2 72/1/2 78/1/2
f 76/1/2 77/1/2 79/1/2
f 77/4/2 78/4/2 79/4/2
f 78/1/2 72/1/2 80/1/2
f 79/4/2 78/4/2 80/4/2
f 73/4/2 74/4/2 81/4/2
f 74/4/2 71/4/2 82/4/2
f 81/4/2 74/4/2 82/4/2
f 71/1/2 75/1/2 83/1/2
f 75/4/2 76/4/2 83/4/2
f 76/1/2 79/1/2 84/1/2
f 83/4/2 76/4/2 84/4/2
f 79/1/2 80/1/2 84/1/2
f 80/1/2 72/1/2 85/1/2
f 84/1/2 80/1/2 85/1/2
f 83/1/2 84/1/2 86/1/2
f 71/1/2 83/1/2 86/1/2
f 86/1/2 84/1/2 87/1/2
f 86/4/2 87/4/2 88/4/2
f 87/1/2 84/1/2 88/1/2
f 84/4/2 85/4/2 89/4/2
f 88/1/2 84/1/2 89/1/2
f 89/4/2 85/4/2 90/4/2
f 86/4/2 88/4/2 91/4/2
f 88/4/2 89/4/2 91/4/2
f 89/1/2 90/1/2 92/1/2
f 91/4/2 89/4/2 92/4/2
f 82/4/2 71/4/2 94/4/2
f 86/4/2 91/4/2 95/4/2
f 91/1/2 92/1/2 95/1/2
f 92/1/2 90/1/2 96/1/2
f 95/1/2 92/1/2 96/1/2
f 90/4/2 85/4/2 96/4/2
f 95/4/2 96/4/2 97/4/2
f 96/4/2 85/4/2 97/4/2
f 85/1/2 72/1/2 98/1/2
f 97/4/2 85/4/2 98/4/2
f 93/4/2 94/4/2 99/4/2
f 94/4/2 71/4/2 100/4/2
f 99/4/2 94/4/2 100/4/2
f 95/4/2 97/4/2 101/4/2
f 86/4/2 95/4/2 101/4/2
f 71/1/2 86/1/2 101/1/2
f 101/4/2 97/4/2 102/4/2
f 102/4/2 97/4/2 103/4/2
f 97/1/2 98/1/2 104/1/2
f 103/4/2 97/4/2 104/4/2
f 100/4/2 71/4/2 105/4/2
f 71/1/2 101/1/2 105/1/2
f 101/1/2 102/1/2 105/1/2
f 102/6/2 103/6/2 106/6/2
f 105/1/2 102/1/2 106/1/2
f 103/5/2 104/5/2 107/5/2
f 106/6/2 103/6/2 107/6/2
f 104/1/2 98/1/2 108/1/2
f 107/5/2 104/5/2 108/5/2
f 72/4/2 70/4/2 109/4/2
f 108/1/2 98/1/2 109/1/2
f 98/1/2 72/1/2 109/1/2
f 107/4/2 108/4/2 110/4/2
f 106/4/2 107/4/2 110/4/2
f 108/4/2 109/4/2 110/4/2
f 105/4/2 106/4/2 110/4/2
f 100/4/2 105/4/2 110/4/2
f 109/4/2 70/4/2 111/4/2
f 110/4/2 109/4/2 111/4/2
f 116/4/3 113/4/3 112/4/3
f 117/4/3 113/4/3 116/4/3
f 118/4/3 115/4/3 114/4/3
f 119/4/3 115/4/3 118/4/3
f 130/3/3 123/3/3 122/3/3
f 130/2/3 124/2/3 123/2/3
f 131/3/3 125/3/3 124/3/3
f 131/2/3 124/2/3 130/2/3
f 132/2/3 128/2/3 127/2/3
f 132/3/3 127/3/3 126/3/3
f 133/3/3 129/3/3 128/3/3
f 133/2/3 128/2/3 132/2/3
f 134/3/3 130/3/3 122/3/3
f 134/3/3 131/3/3 130/3/3
f 135/3/3 125/3/3 131/3/3
f 135/3/3 131/3/3 134/3/3
f 136/3/3 132/3/3 126/3/3
f 136/3/3 133/3/3 132/3/3
f 137/3/3 129/3/3 133/3/3
f 137/3/3 133/3/3 136/3/3
f 138/3/3 134/3/3 122/3/3
f 139/2/3 135/2/3 134/2/3
f 139/3/3 134/3/3 138/3/3
f 140/2/3 139/2/3 138/2/3
f 141/2/3 139/2/3 140/2/3
f 142/2/3 135/2/3 139/2/3
f 142/2/3 139/2/3 141/2/3
f 143/3/3 125/3/3 135/3/3
f 143/2/3 135/2/3 142/2/3
f 144/2/3 142/2/3 141/2/3
f 144/3/3 141/3/3 140/3/3
f 145/3/3 143/3/3 142/3/3
f 145/2/3 142/2/3 144/2/3
f 146/3/3 136/3/3 126/3/3
f 146/2/3 137/2/3 136/2/3
f 147/3/3 129/3/3 137/3/3
f 147/2/3 137/2/3 146/2/3
f 148/3/3 121/3/3 120/3/3
f 149/3/3 121/3/3 148/3/3
f 150/3/3 121/3/3 149/3/3
f 151/3/3 145/3/3 144/3/3
f 151/3/3 144/3/3 140/3/3
f 152/3/3 125/3/3 143/3/3
f 152/3/3 145/3/3 151/3/3
f 152/3/3 143/3/3 145/3/3
f 153/3/3 146/3/3 126/3/3
f 153/3/3 147/3/3 146/3/3
f 154/3/3 129/3/3 147/3/3
f 154/3/3 147/3/3 153/3/3
f 155/3/3 129/3/3 154/3/3
f 156/4/3 150/4/3 149/4/3
f 157/4/3 150/4/3 156/4/3
f 158/4/3 152/4/3 151/4/3
f 159/4/3 152/4/3 158/4/3
f 160/4/3 154/4/3 153/4/3
f 161/4/3 154/4/3 160/4/3
f 162/4/4 163/4/4 167/4/4
f 167/4/4 163/4/4 168/4/4
f 164/4/4 165/4/4 171/4/4
f 171/4/4 165/4/4 172/4/4
f 169/2/4 170/2/4 174/2/4
f 166/3/4 167/3/4 174/3/4
f 167/3/4 168/3/4 174/3/4
f 168/3/4 169/3/4 174/3/4
f 172/3/4 173/3/4 175/3/4
f 174/2/4 170/2/4 175/2/4
f 171/3/4 172/3/4 175/3/4
f 170/3/4 171/3/4 175/3/4
f 166/3/4 174/3/4 176/3/4
f 174/3/4 175/3/4 176/3/4
f 176/3/4 175/3/4 177/3/4
f 175/3/4 173/3/4 178/3/4
f 177/3/4 175/3/4 178/3/4
f 178/3/4 173/3/4 179/3/4
f 166/3/4 176/3/4 180/3/4
f 176/2/4 177/2/4 181/2/4
f 180/3/4 176/3/4 181/3/4
f 177/3/4 178/3/4 182/3/4
f 181/2/4 177/2/4 182/2/4
f 182/3/4 178/3/4 183/3/4
f 183/3/4 178/3/4 184/3/4
f 178/2/4 179/2/4 185/2/4
f 184/3/4 178/3/4 185/3/4
f 183/3/4 184/3/4 186/3/4
f 186/3/4 184/3/4 187/3/4
f 184/2/4 185/2/4 188/2/4
f 187/3/4 184/3/4 188/3/4
f 185/2/4 179/2/4 189/2/4
f 188/2/4 185/2/4 189/2/4
f 179/3/4 173/3/4 190/3/4
f 189/2/4 179/2/4 190/2/4
f 190/3/4 173/3/4 191/3/4
f 166/3/4 180/3/4 192/3/4
f 180/2/4 181/2/4 192/2/4
f 181/2/4 182/2/4 192/2/4
f 182/2/4 183/2/4 192/2/4
f 183/3/4 186/3/4 193/3/4
f 192/2/4 183/2/4 193/2/4
f 188/3/4 189/3/4 194/3/4
f 190/2/4 191/2/4 194/2/4
f 187/3/4 188/3/4 194/3/4
f 189/2/4 190/2/4 194/2/4
f 194/2/4 191/2/4 195/2/4
f 193/3/4 186/3/4 196/3/4
f 192/3/4 193/3/4 196/3/4
f 186/2/4 187/2/4 196/2/4
f 194/3/4 195/3/4 197/3/4
f 196/2/4 187/2/4 197/2/4
f 187/3/4 194/3/4 197/3/4
f 192/3/4 196/3/4 198/3/4
f 166/3/4 192/3/4 198/3/4
f 196/3/4 197/3/4 198/3/4
f 198/3/4 197/3/4 199/3/4
f 197/3/4 195/3/4 200/3/4
f 199/3/4 197/3/4 200/3/4
f 200/3/4 195/3/4 201/3/4
f 199/4/4 200/4/4 202/4/4
f 202/4/4 200/4/4 203/4/4
f 206/3/5 205/3/5 204/3/5
f 207/3/5 205/3/5 206/3/5
f 210/4/5 209/4/5 208/4/5
f 211/4/5 209/4/5 210/4/5
f 214/4/5 213/4/5 212/4/5
f 215/4/5 213/4/5 214/4/5
f 216/4/5 213/4/5 215/4/5
f 217/4/5 214/4/5 212/4/5
f 218/4/5 217/4/5 212/4/5
f 219/4/5 218/4/5 212/4/5
f 220/4/5 218/4/5 219/4/5
f 223/4/5 222/4/5 221/4/5
f 224/4/5 222/4/5 223/4/5
f 225/4/5 222/4/5 224/4/5
f 226/4/5 223/4/5 221/4/5
f 227/4/5 223/4/5 226/4/5
f 228/4/6 229/4/6 230/4/6
f 230/4/6 229/4/6 231/4/6
f 231/4/6 229/4/6 232/4/6
f 232/4/6 229/4/6 233/4/6
f 233/4/6 229/4/6 234/4/6
f 228/4/6 230/4/6 235/4/6
f 235/4/6 230/4/6 236/4/6
f 237/4/6 238/4/6 239/4/6
f 239/4/6 238/4/6 240/4/6
f 240/4/6 238/4/6 241/4/6
f 237/4/6 239/4/6 242/4/6
f 242/4/6 239/4/6 243/4/6
f 244/4/6 245/4/6 246/4/6
f 246/4/6 245/4/6 247/4/6
f 248/3/6 249/3/6 250/3/6
f 250/3/6 249/3/6 251/3/6
f 248/3/6 250/3/6 252/3/6
f 250/2/6 251/2/6 253/2/6
f 252/3/6 250/3/6 253/3/6
f 251/3/6 249/3/6 254/3/6
f 253/2/6 251/2/6 254/2/6
f 254/3/6 249/3/6 255/3/6
