# MagicaVoxel @ Ephtracy

# material
mtllib RightArm.mtl
usemtl palette

# normals
vn -1 0 0
vn 1 0 0
vn 0 0 1
vn 0 0 -1
vn 0 -1 0
vn 0 1 0

# texcoords
vt 0.943359 0.5
vt 0.947266 0.5
vt 0.970703 0.5
vt 0.974609 0.5
vt 0.978516 0.5
vt 0.986328 0.5

# verts
v -6 66 26
v -6 66 22
v -6 70 22
v -6 70 20
v -6 71 23
v -6 71 22
v -6 72 26
v -6 72 25
v -6 72 23
v -6 72 22
v -6 72 21
v -6 72 20
v -6 72 18
v -6 73 23
v -6 73 22
v -6 73 21
v -6 74 18
v -6 74 16
v -6 75 26
v -6 75 25
v -6 75 24
v -6 75 21
v -6 77 23
v -6 77 21
v -6 78 26
v -6 78 24
v -6 78 23
v -6 78 20
v -6 78 17
v -6 79 22
v -6 79 20
v -6 79 19
v -6 79 18
v -6 80 24
v -6 80 22
v -6 80 19
v -6 80 18
v -6 80 17
v -6 81 19
v -6 81 16
v -6 82 22
v -6 82 19
v -6 82 16
v -4 58 24
v -4 58 23
v -4 58 18
v -4 58 16
v -4 59 18
v -4 59 17
v -4 60 22
v -4 60 19
v -4 61 24
v -4 61 23
v -4 61 22
v -4 61 21
v -4 61 19
v -4 61 17
v -4 61 16
v -4 62 21
v -4 62 20
v -4 62 18
v -4 62 17
v -4 63 24
v -4 63 23
v -4 63 19
v -4 63 18
v -4 64 23
v -4 64 20
v -4 64 19
v -4 65 24
v -4 65 21
v -4 66 24
v -4 66 22
v -4 66 19
v -4 66 18
v -4 66 17
v -4 66 16
v -4 67 17
v -4 67 16
v -4 68 21
v -4 68 20
v -4 69 22
v -4 69 19
v -4 69 18
v -4 70 22
v -4 70 20
v -4 70 17
v -4 70 16
v -4 71 20
v -4 71 19
v -4 71 18
v -4 71 17
v -4 72 20
v -4 72 18
v -4 72 17
v -4 72 16
v -4 73 18
v -4 73 17
v -4 74 18
v -4 74 16
v -4 80 24
v -4 80 22
v -4 82 24
v -4 82 22
v -4 82 18
v -4 82 17
v -4 82 16
v -4 83 18
v -4 83 16
v -4 84 22
v -4 84 16
v 4 58 24
v 4 58 21
v 4 58 16
v 4 59 24
v 4 59 21
v 4 59 17
v 4 59 16
v 4 61 23
v 4 61 22
v 4 61 19
v 4 61 18
v 4 63 23
v 4 63 22
v 4 63 21
v 4 63 19
v 4 63 18
v 4 63 17
v 4 64 17
v 4 64 16
v 4 65 18
v 4 65 17
v 4 66 24
v 4 66 22
v 4 66 20
v 4 66 19
v 4 68 21
v 4 68 20
v 4 69 19
v 4 69 17
v 4 70 22
v 4 70 20
v 4 70 19
v 4 70 17
v 4 70 16
v 4 71 20
v 4 71 16
v 4 72 20
v 4 72 18
v 4 74 18
v 4 74 16
v 4 80 24
v 4 80 22
v 4 82 24
v 4 82 22
v 4 82 20
v 4 82 18
v 4 82 16
v 4 83 20
v 4 83 18
v 4 84 22
v 4 84 16
v 6 66 26
v 6 66 22
v 6 69 26
v 6 69 24
v 6 70 25
v 6 70 24
v 6 70 22
v 6 70 20
v 6 71 23
v 6 71 22
v 6 72 26
v 6 72 25
v 6 72 23
v 6 72 22
v 6 72 21
v 6 72 20
v 6 72 18
v 6 73 25
v 6 73 24
v 6 73 23
v 6 73 22
v 6 73 21
v 6 74 26
v 6 74 25
v 6 74 24
v 6 74 23
v 6 74 22
v 6 74 21
v 6 74 18
v 6 74 16
v 6 75 26
v 6 75 23
v 6 75 22
v 6 75 21
v 6 76 24
v 6 76 23
v 6 76 22
v 6 76 19
v 6 77 22
v 6 77 19
v 6 78 26
v 6 78 24
v 6 78 23
v 6 78 21
v 6 79 18
v 6 79 17
v 6 80 24
v 6 80 23
v 6 80 22
v 6 80 21
v 6 80 20
v 6 80 18
v 6 81 18
v 6 81 17
v 6 82 22
v 6 82 20
v 6 82 18
v 6 82 16
v -6 66 26
v -6 72 26
v -6 75 26
v -6 78 26
v -5 71 26
v -5 72 26
v -5 73 26
v -5 74 26
v -5 76 26
v -5 78 26
v -4 71 26
v -4 73 26
v -4 77 26
v -4 78 26
v -3 74 26
v -3 75 26
v -3 76 26
v -3 77 26
v -2 73 26
v -2 74 26
v -1 69 26
v -1 73 26
v -1 74 26
v -1 76 26
v 0 69 26
v 0 71 26
v 0 73 26
v 0 76 26
v 1 72 26
v 1 73 26
v 2 71 26
v 2 72 26
v 4 73 26
v 4 76 26
v 5 69 26
v 5 72 26
v 5 73 26
v 5 74 26
v 5 75 26
v 5 76 26
v 6 66 26
v 6 69 26
v 6 72 26
v 6 74 26
v 6 75 26
v 6 78 26
v -6 78 24
v -6 80 24
v -4 58 24
v -4 61 24
v -4 63 24
v -4 65 24
v -4 66 24
v -4 78 24
v -4 80 24
v -4 82 24
v -3 60 24
v -3 61 24
v -3 62 24
v -3 63 24
v -2 58 24
v -2 60 24
v -2 62 24
v -2 64 24
v -2 65 24
v -1 60 24
v -1 61 24
v 0 63 24
v 0 64 24
v 1 59 24
v 1 61 24
v 1 63 24
v 1 64 24
v 2 59 24
v 2 61 24
v 3 58 24
v 3 59 24
v 3 61 24
v 3 64 24
v 4 58 24
v 4 59 24
v 4 66 24
v 4 78 24
v 4 80 24
v 4 82 24
v 6 78 24
v 6 80 24
v -6 80 22
v -6 82 22
v -4 80 22
v -4 82 22
v -4 84 22
v 4 80 22
v 4 82 22
v 4 84 22
v 5 80 22
v 6 80 22
v 6 82 22
v -6 66 22
v -6 70 22
v -4 66 22
v -4 69 22
v -4 70 22
v 4 66 22
v 4 70 22
v 6 66 22
v 6 70 22
v -6 70 20
v -6 72 20
v -4 70 20
v -4 71 20
v -4 72 20
v 4 70 20
v 4 71 20
v 4 72 20
v 6 70 20
v 6 72 20
v -6 72 18
v -6 74 18
v -4 72 18
v -4 73 18
v -4 74 18
v 4 72 18
v 4 74 18
v 6 72 18
v 6 74 18
v -6 74 16
v -6 81 16
v -6 82 16
v -4 58 16
v -4 61 16
v -4 66 16
v -4 67 16
v -4 70 16
v -4 72 16
v -4 74 16
v -4 81 16
v -4 82 16
v -4 83 16
v -4 84 16
v -3 58 16
v -3 60 16
v -3 67 16
v -3 68 16
v -3 70 16
v -3 72 16
v -3 82 16
v -3 83 16
v -2 66 16
v -2 68 16
v -1 60 16
v -1 61 16
v -1 62 16
v -1 64 16
v 0 63 16
v 0 64 16
v 0 68 16
v 0 71 16
v 1 62 16
v 1 63 16
v 1 69 16
v 1 71 16
v 2 68 16
v 2 69 16
v 3 59 16
v 3 64 16
v 3 70 16
v 3 71 16
v 4 58 16
v 4 59 16
v 4 64 16
v 4 70 16
v 4 71 16
v 4 74 16
v 4 82 16
v 4 84 16
v 6 74 16
v 6 82 16
v -4 58 24
v -2 58 24
v 3 58 24
v 4 58 24
v -4 58 23
v -2 58 23
v 3 58 21
v 4 58 21
v -4 58 18
v -3 58 18
v -4 58 16
v -3 58 16
v 4 58 16
v -6 66 26
v 6 66 26
v -4 66 24
v 4 66 24
v -6 66 22
v -4 66 22
v 4 66 22
v 6 66 22
v -6 70 22
v -4 70 22
v 4 70 22
v 6 70 22
v -6 70 20
v -4 70 20
v 4 70 20
v 6 70 20
v -6 72 20
v -4 72 20
v 4 72 20
v 6 72 20
v -6 72 18
v -4 72 18
v 4 72 18
v 6 72 18
v -6 74 18
v -4 74 18
v 4 74 18
v 6 74 18
v -6 74 16
v -4 74 16
v 4 74 16
v 6 74 16
v -6 78 26
v -5 78 26
v -4 78 26
v 6 78 26
v -5 78 25
v -4 78 25
v -6 78 24
v -4 78 24
v 4 78 24
v 6 78 24
v -6 80 24
v -4 80 24
v 4 80 24
v 6 80 24
v 5 80 23
v 6 80 23
v -6 80 22
v -4 80 22
v 4 80 22
v 5 80 22
v 6 80 22
v -4 82 24
v 4 82 24
v -6 82 22
v -4 82 22
v 4 82 22
v 6 82 22
v 4 82 20
v 6 82 20
v -6 82 19
v -5 82 19
v -4 82 18
v 4 82 18
v 6 82 18
v -5 82 17
v -4 82 17
v -6 82 16
v -4 82 16
v 4 82 16
v 6 82 16
v -4 84 22
v 4 84 22
v -4 84 16
v 4 84 16

# faces
f 3/4/1 2/4/1 1/4/1
f 5/4/1 3/4/1 1/4/1
f 5/4/1 4/4/1 3/4/1
f 6/4/1 4/4/1 5/4/1
f 7/4/1 5/4/1 1/4/1
f 8/4/1 5/4/1 7/4/1
f 9/6/1 6/6/1 5/6/1
f 9/4/1 5/4/1 8/4/1
f 10/4/1 4/4/1 6/4/1
f 10/6/1 6/6/1 9/6/1
f 11/4/1 4/4/1 10/4/1
f 12/4/1 4/4/1 11/4/1
f 14/4/1 9/4/1 8/4/1
f 14/5/1 10/5/1 9/5/1
f 15/6/1 11/6/1 10/6/1
f 15/5/1 10/5/1 14/5/1
f 16/4/1 13/4/1 12/4/1
f 16/6/1 11/6/1 15/6/1
f 16/4/1 12/4/1 11/4/1
f 17/4/1 15/4/1 14/4/1
f 17/4/1 13/4/1 16/4/1
f 17/4/1 16/4/1 15/4/1
f 19/1/1 8/1/1 7/1/1
f 20/4/1 14/4/1 8/4/1
f 20/1/1 8/1/1 19/1/1
f 20/4/1 18/4/1 17/4/1
f 20/4/1 17/4/1 14/4/1
f 21/4/1 18/4/1 20/4/1
f 22/4/1 18/4/1 21/4/1
f 23/1/1 22/1/1 21/1/1
f 24/4/1 18/4/1 22/4/1
f 24/1/1 22/1/1 23/1/1
f 25/4/1 20/4/1 19/4/1
f 25/4/1 21/4/1 20/4/1
f 26/1/1 23/1/1 21/1/1
f 26/4/1 21/4/1 25/4/1
f 27/4/1 24/4/1 23/4/1
f 27/1/1 23/1/1 26/1/1
f 28/4/1 18/4/1 24/4/1
f 28/4/1 24/4/1 27/4/1
f 29/4/1 18/4/1 28/4/1
f 30/4/1 27/4/1 26/4/1
f 30/4/1 28/4/1 27/4/1
f 31/1/1 29/1/1 28/1/1
f 31/4/1 28/4/1 30/4/1
f 32/1/1 29/1/1 31/1/1
f 33/1/1 29/1/1 32/1/1
f 34/4/1 30/4/1 26/4/1
f 35/1/1 31/1/1 30/1/1
f 35/4/1 30/4/1 34/4/1
f 35/1/1 32/1/1 31/1/1
f 36/4/1 33/4/1 32/4/1
f 36/1/1 32/1/1 35/1/1
f 37/1/1 29/1/1 33/1/1
f 37/4/1 33/4/1 36/4/1
f 38/4/1 18/4/1 29/4/1
f 38/1/1 29/1/1 37/1/1
f 39/4/1 37/4/1 36/4/1
f 39/4/1 36/4/1 35/4/1
f 39/4/1 38/4/1 37/4/1
f 40/4/1 18/4/1 38/4/1
f 40/4/1 38/4/1 39/4/1
f 41/4/1 39/4/1 35/4/1
f 42/1/1 40/1/1 39/1/1
f 42/4/1 39/4/1 41/4/1
f 43/1/1 40/1/1 42/1/1
f 48/3/1 46/3/1 45/3/1
f 48/2/1 47/2/1 46/2/1
f 49/2/1 47/2/1 48/2/1
f 50/3/1 48/3/1 45/3/1
f 50/3/1 49/3/1 48/3/1
f 51/3/1 49/3/1 50/3/1
f 52/2/1 45/2/1 44/2/1
f 53/3/1 50/3/1 45/3/1
f 53/2/1 45/2/1 52/2/1
f 54/2/1 51/2/1 50/2/1
f 54/3/1 50/3/1 53/3/1
f 55/2/1 51/2/1 54/2/1
f 56/3/1 49/3/1 51/3/1
f 56/2/1 51/2/1 55/2/1
f 57/2/1 47/2/1 49/2/1
f 57/3/1 49/3/1 56/3/1
f 58/2/1 47/2/1 57/2/1
f 59/3/1 55/3/1 54/3/1
f 59/2/1 56/2/1 55/2/1
f 59/3/1 53/3/1 52/3/1
f 59/2/1 57/2/1 56/2/1
f 59/3/1 54/3/1 53/3/1
f 60/2/1 57/2/1 59/2/1
f 61/2/1 57/2/1 60/2/1
f 62/3/1 58/3/1 57/3/1
f 62/2/1 57/2/1 61/2/1
f 63/3/1 59/3/1 52/3/1
f 63/3/1 60/3/1 59/3/1
f 64/3/1 60/3/1 63/3/1
f 65/2/1 61/2/1 60/2/1
f 66/3/1 62/3/1 61/3/1
f 66/2/1 61/2/1 65/2/1
f 67/3/1 60/3/1 64/3/1
f 67/2/1 64/2/1 63/2/1
f 68/2/1 65/2/1 60/2/1
f 68/3/1 60/3/1 67/3/1
f 69/3/1 66/3/1 65/3/1
f 69/2/1 65/2/1 68/2/1
f 70/2/1 67/2/1 63/2/1
f 70/2/1 68/2/1 67/2/1
f 71/2/1 68/2/1 70/2/1
f 72/3/1 71/3/1 70/3/1
f 73/3/1 71/3/1 72/3/1
f 74/3/1 66/3/1 69/3/1
f 74/3/1 69/3/1 68/3/1
f 75/3/1 62/3/1 66/3/1
f 75/3/1 66/3/1 74/3/1
f 76/3/1 58/3/1 62/3/1
f 76/3/1 62/3/1 75/3/1
f 77/3/1 58/3/1 76/3/1
f 78/3/1 76/3/1 75/3/1
f 78/2/1 77/2/1 76/2/1
f 79/2/1 77/2/1 78/2/1
f 80/3/1 71/3/1 73/3/1
f 80/2/1 68/2/1 71/2/1
f 81/3/1 74/3/1 68/3/1
f 81/2/1 68/2/1 80/2/1
f 82/3/1 80/3/1 73/3/1
f 82/3/1 81/3/1 80/3/1
f 83/3/1 74/3/1 81/3/1
f 83/3/1 81/3/1 82/3/1
f 83/2/1 75/2/1 74/2/1
f 84/3/1 78/3/1 75/3/1
f 84/2/1 75/2/1 83/2/1
f 84/3/1 79/3/1 78/3/1
f 85/2/1 83/2/1 82/2/1
f 86/2/1 83/2/1 85/2/1
f 87/3/1 79/3/1 84/3/1
f 87/3/1 84/3/1 83/3/1
f 88/3/1 79/3/1 87/3/1
f 89/2/1 83/2/1 86/2/1
f 90/3/1 87/3/1 83/3/1
f 90/2/1 83/2/1 89/2/1
f 91/3/1 87/3/1 90/3/1
f 92/2/1 88/2/1 87/2/1
f 92/3/1 87/3/1 91/3/1
f 93/3/1 91/3/1 90/3/1
f 93/3/1 90/3/1 89/3/1
f 94/2/1 92/2/1 91/2/1
f 94/3/1 91/3/1 93/3/1
f 95/2/1 88/2/1 92/2/1
f 95/2/1 92/2/1 94/2/1
f 96/2/1 88/2/1 95/2/1
f 97/2/1 95/2/1 94/2/1
f 98/3/1 96/3/1 95/3/1
f 98/2/1 95/2/1 97/2/1
f 99/3/1 98/3/1 97/3/1
f 100/3/1 96/3/1 98/3/1
f 100/3/1 98/3/1 99/3/1
f 103/3/1 102/3/1 101/3/1
f 104/3/1 102/3/1 103/3/1
f 108/1/1 107/1/1 106/1/1
f 108/1/1 106/1/1 105/1/1
f 108/4/1 105/4/1 104/4/1
f 109/1/1 107/1/1 108/1/1
f 110/4/1 108/4/1 104/4/1
f 110/4/1 109/4/1 108/4/1
f 111/4/1 109/4/1 110/4/1
f 112/2/2 113/2/2 115/2/2
f 113/3/2 114/3/2 116/3/2
f 115/2/2 113/2/2 116/2/2
f 116/3/2 114/3/2 117/3/2
f 117/3/2 114/3/2 118/3/2
f 115/3/2 116/3/2 119/3/2
f 116/3/2 117/3/2 119/3/2
f 119/3/2 117/3/2 120/3/2
f 120/3/2 117/3/2 121/3/2
f 121/3/2 117/3/2 122/3/2
f 115/3/2 119/3/2 123/3/2
f 119/2/2 120/2/2 123/2/2
f 120/3/2 121/3/2 124/3/2
f 123/2/2 120/2/2 124/2/2
f 124/3/2 121/3/2 125/3/2
f 121/2/2 122/2/2 126/2/2
f 125/3/2 121/3/2 126/3/2
f 122/3/2 117/3/2 127/3/2
f 126/2/2 122/2/2 127/2/2
f 117/2/2 118/2/2 128/2/2
f 127/3/2 117/3/2 128/3/2
f 127/2/2 128/2/2 129/2/2
f 128/2/2 118/2/2 129/2/2
f 129/2/2 118/2/2 130/2/2
f 126/3/2 127/3/2 131/3/2
f 127/2/2 129/2/2 131/2/2
f 129/3/2 130/3/2 132/3/2
f 131/2/2 129/2/2 132/2/2
f 124/3/2 125/3/2 133/3/2
f 115/3/2 123/3/2 133/3/2
f 123/3/2 124/3/2 133/3/2
f 133/3/2 125/3/2 134/3/2
f 125/2/2 126/2/2 135/2/2
f 131/3/2 132/3/2 136/3/2
f 135/2/2 126/2/2 136/2/2
f 126/3/2 131/3/2 136/3/2
f 134/3/2 125/3/2 137/3/2
f 125/2/2 135/2/2 137/2/2
f 135/3/2 136/3/2 138/3/2
f 137/2/2 135/2/2 138/2/2
f 136/3/2 132/3/2 139/3/2
f 138/3/2 136/3/2 139/3/2
f 137/3/2 138/3/2 139/3/2
f 132/3/2 130/3/2 140/3/2
f 139/3/2 132/3/2 140/3/2
f 137/3/2 139/3/2 141/3/2
f 134/3/2 137/3/2 141/3/2
f 141/3/2 139/3/2 142/3/2
f 139/2/2 140/2/2 143/2/2
f 142/3/2 139/3/2 143/3/2
f 140/3/2 130/3/2 144/3/2
f 143/2/2 140/2/2 144/2/2
f 144/3/2 130/3/2 145/3/2
f 142/2/2 143/2/2 146/2/2
f 144/2/2 145/2/2 146/2/2
f 143/2/2 144/2/2 146/2/2
f 146/2/2 145/2/2 147/2/2
f 146/3/2 147/3/2 148/3/2
f 148/3/2 147/3/2 149/3/2
f 149/3/2 147/3/2 150/3/2
f 150/3/2 147/3/2 151/3/2
f 152/3/2 153/3/2 154/3/2
f 154/3/2 153/3/2 155/3/2
f 155/4/2 156/4/2 159/4/2
f 156/1/2 157/1/2 159/1/2
f 157/4/2 158/4/2 160/4/2
f 159/1/2 157/1/2 160/1/2
f 155/4/2 159/4/2 161/4/2
f 159/4/2 160/4/2 161/4/2
f 160/4/2 158/4/2 162/4/2
f 161/4/2 160/4/2 162/4/2
f 163/4/2 164/4/2 165/4/2
f 165/4/2 164/4/2 166/4/2
f 165/1/2 166/1/2 167/1/2
f 166/4/2 164/4/2 168/4/2
f 167/1/2 166/1/2 168/1/2
f 168/4/2 164/4/2 169/4/2
f 167/4/2 168/4/2 171/4/2
f 169/4/2 170/4/2 171/4/2
f 168/4/2 169/4/2 171/4/2
f 171/4/2 170/4/2 172/4/2
f 165/1/2 167/1/2 173/1/2
f 167/4/2 171/4/2 174/4/2
f 173/1/2 167/1/2 174/1/2
f 171/6/2 172/6/2 175/6/2
f 174/4/2 171/4/2 175/4/2
f 172/4/2 170/4/2 176/4/2
f 175/6/2 172/6/2 176/6/2
f 176/4/2 170/4/2 177/4/2
f 177/4/2 170/4/2 178/4/2
f 174/4/2 175/4/2 180/4/2
f 173/4/2 174/4/2 180/4/2
f 180/4/2 175/4/2 181/4/2
f 175/5/2 176/5/2 182/5/2
f 181/4/2 175/4/2 182/4/2
f 176/6/2 177/6/2 183/6/2
f 182/5/2 176/5/2 183/5/2
f 178/4/2 179/4/2 184/4/2
f 183/6/2 177/6/2 184/6/2
f 177/4/2 178/4/2 184/4/2
f 173/4/2 180/4/2 185/4/2
f 180/1/2 181/1/2 186/1/2
f 185/4/2 180/4/2 186/4/2
f 182/4/2 183/4/2 187/4/2
f 186/1/2 181/1/2 187/1/2
f 181/4/2 182/4/2 187/4/2
f 183/4/2 184/4/2 187/4/2
f 187/4/2 184/4/2 188/4/2
f 188/4/2 184/4/2 189/4/2
f 184/4/2 179/4/2 190/4/2
f 189/4/2 184/4/2 190/4/2
f 190/4/2 179/4/2 191/4/2
f 185/1/2 186/1/2 193/1/2
f 186/1/2 187/1/2 193/1/2
f 187/1/2 188/1/2 193/1/2
f 188/4/2 189/4/2 194/4/2
f 193/1/2 188/1/2 194/1/2
f 189/1/2 190/1/2 195/1/2
f 194/4/2 189/4/2 195/4/2
f 191/4/2 192/4/2 196/4/2
f 195/1/2 190/1/2 196/1/2
f 190/4/2 191/4/2 196/4/2
f 194/4/2 195/4/2 197/4/2
f 193/4/2 194/4/2 197/4/2
f 195/4/2 196/4/2 197/4/2
f 197/4/2 196/4/2 198/4/2
f 198/4/2 196/4/2 199/4/2
f 196/4/2 192/4/2 200/4/2
f 199/4/2 196/4/2 200/4/2
f 198/4/2 199/4/2 201/4/2
f 199/1/2 200/1/2 201/1/2
f 200/4/2 192/4/2 202/4/2
f 201/1/2 200/1/2 202/1/2
f 193/4/2 197/4/2 203/4/2
f 197/1/2 198/1/2 204/1/2
f 203/4/2 197/4/2 204/4/2
f 198/4/2 201/4/2 205/4/2
f 204/1/2 198/1/2 205/1/2
f 201/4/2 202/4/2 205/4/2
f 205/4/2 202/4/2 206/4/2
f 206/4/2 202/4/2 207/4/2
f 202/4/2 192/4/2 207/4/2
f 207/4/2 192/4/2 208/4/2
f 204/4/2 205/4/2 209/4/2
f 205/1/2 206/1/2 210/1/2
f 209/4/2 205/4/2 210/4/2
f 210/1/2 206/1/2 211/1/2
f 206/4/2 207/4/2 212/4/2
f 211/1/2 206/1/2 212/1/2
f 212/4/2 207/4/2 213/4/2
f 207/1/2 208/1/2 214/1/2
f 213/4/2 207/4/2 214/4/2
f 214/1/2 208/1/2 215/1/2
f 213/1/2 214/1/2 215/1/2
f 208/4/2 192/4/2 216/4/2
f 215/1/2 208/1/2 216/1/2
f 211/4/2 212/4/2 217/4/2
f 212/4/2 213/4/2 217/4/2
f 213/1/2 215/1/2 218/1/2
f 217/4/2 213/4/2 218/4/2
f 215/4/2 216/4/2 219/4/2
f 218/1/2 215/1/2 219/1/2
f 216/4/2 192/4/2 220/4/2
f 219/4/2 216/4/2 220/4/2
f 225/4/3 222/4/3 221/4/3
f 226/1/3 223/1/3 222/1/3
f 226/4/3 222/4/3 225/4/3
f 227/1/3 223/1/3 226/1/3
f 228/1/3 223/1/3 227/1/3
f 229/4/3 224/4/3 223/4/3
f 230/4/3 224/4/3 229/4/3
f 231/4/3 225/4/3 221/4/3
f 231/1/3 226/1/3 225/1/3
f 231/1/3 227/1/3 226/1/3
f 232/4/3 228/4/3 227/4/3
f 232/1/3 227/1/3 231/1/3
f 233/1/3 230/1/3 229/1/3
f 234/1/3 230/1/3 233/1/3
f 235/1/3 223/1/3 228/1/3
f 235/4/3 228/4/3 232/4/3
f 235/4/3 232/4/3 231/4/3
f 236/4/3 229/4/3 223/4/3
f 236/1/3 223/1/3 235/1/3
f 237/1/3 233/1/3 229/1/3
f 237/4/3 229/4/3 236/4/3
f 238/4/3 234/4/3 233/4/3
f 238/1/3 233/1/3 237/1/3
f 239/4/3 237/4/3 236/4/3
f 239/4/3 235/4/3 231/4/3
f 239/4/3 238/4/3 237/4/3
f 239/4/3 236/4/3 235/4/3
f 240/4/3 238/4/3 239/4/3
f 241/4/3 231/4/3 221/4/3
f 241/4/3 239/4/3 231/4/3
f 242/1/3 240/1/3 239/1/3
f 242/4/3 239/4/3 241/4/3
f 243/4/3 238/4/3 240/4/3
f 243/1/3 240/1/3 242/1/3
f 244/4/3 238/4/3 243/4/3
f 245/1/3 242/1/3 241/1/3
f 245/4/3 241/4/3 221/4/3
f 245/1/3 244/1/3 243/1/3
f 245/1/3 243/1/3 242/1/3
f 246/1/3 244/1/3 245/1/3
f 247/1/3 244/1/3 246/1/3
f 248/4/3 238/4/3 244/4/3
f 248/1/3 244/1/3 247/1/3
f 249/1/3 247/1/3 246/1/3
f 250/4/3 248/4/3 247/4/3
f 250/1/3 247/1/3 249/1/3
f 251/4/3 246/4/3 245/4/3
f 251/1/3 249/1/3 246/1/3
f 252/4/3 250/4/3 249/4/3
f 252/1/3 249/1/3 251/1/3
f 253/4/3 248/4/3 250/4/3
f 253/4/3 250/4/3 252/4/3
f 253/4/3 252/4/3 251/4/3
f 254/4/3 238/4/3 248/4/3
f 254/4/3 248/4/3 253/4/3
f 255/4/3 253/4/3 251/4/3
f 255/4/3 245/4/3 221/4/3
f 255/4/3 251/4/3 245/4/3
f 256/4/3 253/4/3 255/4/3
f 257/1/3 254/1/3 253/1/3
f 257/4/3 253/4/3 256/4/3
f 258/1/3 254/1/3 257/1/3
f 259/1/3 254/1/3 258/1/3
f 260/4/3 238/4/3 254/4/3
f 260/1/3 254/1/3 259/1/3
f 261/4/3 255/4/3 221/4/3
f 262/1/3 256/1/3 255/1/3
f 262/4/3 255/4/3 261/4/3
f 263/4/3 257/4/3 256/4/3
f 263/1/3 256/1/3 262/1/3
f 263/4/3 258/4/3 257/4/3
f 264/1/3 259/1/3 258/1/3
f 264/4/3 258/4/3 263/4/3
f 265/4/3 260/4/3 259/4/3
f 265/1/3 259/1/3 264/1/3
f 266/4/3 234/4/3 238/4/3
f 266/4/3 260/4/3 265/4/3
f 266/4/3 238/4/3 260/4/3
f 274/4/3 268/4/3 267/4/3
f 275/4/3 268/4/3 274/4/3
f 277/2/3 270/2/3 269/2/3
f 278/3/3 271/3/3 270/3/3
f 278/2/3 270/2/3 277/2/3
f 279/3/3 271/3/3 278/3/3
f 280/2/3 272/2/3 271/2/3
f 280/3/3 271/3/3 279/3/3
f 281/2/3 277/2/3 269/2/3
f 282/3/3 279/3/3 278/3/3
f 282/2/3 277/2/3 281/2/3
f 282/3/3 278/3/3 277/3/3
f 283/2/3 280/2/3 279/2/3
f 283/3/3 279/3/3 282/3/3
f 284/2/3 272/2/3 280/2/3
f 284/2/3 280/2/3 283/2/3
f 285/3/3 273/3/3 272/3/3
f 285/2/3 272/2/3 284/2/3
f 286/2/3 284/2/3 283/2/3
f 286/2/3 283/2/3 282/2/3
f 286/3/3 282/3/3 281/3/3
f 287/2/3 284/2/3 286/2/3
f 288/2/3 284/2/3 287/2/3
f 289/3/3 285/3/3 284/3/3
f 289/2/3 284/2/3 288/2/3
f 290/3/3 286/3/3 281/3/3
f 290/3/3 287/3/3 286/3/3
f 291/2/3 288/2/3 287/2/3
f 291/3/3 287/3/3 290/3/3
f 292/3/3 289/3/3 288/3/3
f 292/2/3 288/2/3 291/2/3
f 293/3/3 285/3/3 289/3/3
f 293/3/3 289/3/3 292/3/3
f 294/3/3 290/3/3 281/3/3
f 294/2/3 292/2/3 291/2/3
f 294/2/3 293/2/3 292/2/3
f 294/2/3 291/2/3 290/2/3
f 295/2/3 293/2/3 294/2/3
f 296/3/3 294/3/3 281/3/3
f 296/3/3 295/3/3 294/3/3
f 297/3/3 295/3/3 296/3/3
f 298/2/3 293/2/3 295/2/3
f 298/3/3 295/3/3 297/3/3
f 299/3/3 285/3/3 293/3/3
f 299/2/3 293/2/3 298/2/3
f 300/2/3 297/2/3 296/2/3
f 301/3/3 298/3/3 297/3/3
f 301/2/3 297/2/3 300/2/3
f 301/3/3 299/3/3 298/3/3
f 302/3/3 273/3/3 285/3/3
f 302/3/3 299/3/3 301/3/3
f 302/3/3 285/3/3 299/3/3
f 303/3/3 276/3/3 275/3/3
f 303/3/3 275/3/3 274/3/3
f 304/3/3 276/3/3 303/3/3
f 305/3/3 276/3/3 304/3/3
f 306/4/3 304/4/3 303/4/3
f 307/4/3 304/4/3 306/4/3
f 310/4/3 309/4/3 308/4/3
f 311/4/3 309/4/3 310/4/3
f 314/4/3 312/4/3 311/4/3
f 315/4/3 312/4/3 314/4/3
f 316/4/3 314/4/3 313/4/3
f 317/4/3 314/4/3 316/4/3
f 318/4/3 314/4/3 317/4/3
f 319/4/4 320/4/4 321/4/4
f 321/4/4 320/4/4 322/4/4
f 322/4/4 320/4/4 323/4/4
f 324/4/4 325/4/4 326/4/4
f 326/4/4 325/4/4 327/4/4
f 328/4/4 329/4/4 330/4/4
f 330/4/4 329/4/4 331/4/4
f 331/4/4 329/4/4 332/4/4
f 333/4/4 334/4/4 336/4/4
f 334/4/4 335/4/4 336/4/4
f 336/4/4 335/4/4 337/4/4
f 338/4/4 339/4/4 340/4/4
f 340/4/4 339/4/4 341/4/4
f 341/4/4 339/4/4 342/4/4
f 343/4/4 344/4/4 345/4/4
f 345/4/4 344/4/4 346/4/4
f 347/4/4 348/4/4 356/4/4
f 348/1/4 349/1/4 357/1/4
f 356/4/4 348/4/4 357/4/4
f 357/1/4 349/1/4 358/1/4
f 350/2/4 351/2/4 361/2/4
f 361/2/4 351/2/4 362/2/4
f 352/2/4 353/2/4 363/2/4
f 353/3/4 354/3/4 363/3/4
f 363/3/4 354/3/4 364/3/4
f 354/2/4 355/2/4 365/2/4
f 364/3/4 354/3/4 365/3/4
f 355/3/4 356/3/4 366/3/4
f 365/2/4 355/2/4 366/2/4
f 356/4/4 357/4/4 367/4/4
f 357/4/4 358/4/4 367/4/4
f 358/1/4 359/1/4 367/1/4
f 359/4/4 360/4/4 368/4/4
f 367/1/4 359/1/4 368/1/4
f 363/2/4 364/2/4 369/2/4
f 351/3/4 352/3/4 369/3/4
f 352/2/4 363/2/4 369/2/4
f 364/3/4 365/3/4 370/3/4
f 369/2/4 364/2/4 370/2/4
f 365/3/4 366/3/4 370/3/4
f 362/2/4 351/2/4 371/2/4
f 361/3/4 362/3/4 371/3/4
f 351/3/4 369/3/4 372/3/4
f 371/2/4 351/2/4 372/2/4
f 369/3/4 370/3/4 372/3/4
f 372/3/4 370/3/4 373/3/4
f 373/3/4 370/3/4 374/3/4
f 373/2/4 374/2/4 375/2/4
f 374/3/4 370/3/4 376/3/4
f 375/2/4 374/2/4 376/2/4
f 370/3/4 366/3/4 377/3/4
f 376/3/4 370/3/4 377/3/4
f 377/3/4 366/3/4 378/3/4
f 371/3/4 372/3/4 379/3/4
f 372/3/4 373/3/4 379/3/4
f 373/2/4 375/2/4 379/2/4
f 375/3/4 376/3/4 380/3/4
f 379/2/4 375/2/4 380/2/4
f 376/3/4 377/3/4 380/3/4
f 377/2/4 378/2/4 381/2/4
f 378/3/4 366/3/4 382/3/4
f 381/2/4 378/2/4 382/2/4
f 377/2/4 381/2/4 383/2/4
f 380/3/4 377/3/4 383/3/4
f 379/3/4 380/3/4 383/3/4
f 381/3/4 382/3/4 384/3/4
f 383/2/4 381/2/4 384/2/4
f 361/3/4 371/3/4 385/3/4
f 371/3/4 379/3/4 385/3/4
f 383/3/4 384/3/4 385/3/4
f 379/3/4 383/3/4 385/3/4
f 385/3/4 384/3/4 386/3/4
f 384/3/4 382/3/4 387/3/4
f 386/3/4 384/3/4 387/3/4
f 382/3/4 366/3/4 388/3/4
f 387/3/4 382/3/4 388/3/4
f 361/3/4 385/3/4 389/3/4
f 385/2/4 386/2/4 390/2/4
f 389/3/4 385/3/4 390/3/4
f 386/3/4 387/3/4 391/3/4
f 390/2/4 386/2/4 391/2/4
f 387/2/4 388/2/4 392/2/4
f 391/3/4 387/3/4 392/3/4
f 388/3/4 366/3/4 393/3/4
f 392/2/4 388/2/4 393/2/4
f 356/4/4 367/4/4 394/4/4
f 393/3/4 366/3/4 394/3/4
f 367/4/4 368/4/4 394/4/4
f 366/3/4 356/3/4 394/3/4
f 394/4/4 368/4/4 395/4/4
f 368/4/4 360/4/4 396/4/4
f 395/4/4 368/4/4 396/4/4
f 394/4/4 395/4/4 397/4/4
f 397/4/4 395/4/4 398/4/4
f 403/2/5 400/2/5 399/2/5
f 404/3/5 401/3/5 400/3/5
f 404/2/5 400/2/5 403/2/5
f 405/2/5 402/2/5 401/2/5
f 405/3/5 401/3/5 404/3/5
f 405/3/5 404/3/5 403/3/5
f 406/2/5 402/2/5 405/2/5
f 407/3/5 405/3/5 403/3/5
f 407/3/5 406/3/5 405/3/5
f 408/3/5 406/3/5 407/3/5
f 409/2/5 408/2/5 407/2/5
f 410/3/5 406/3/5 408/3/5
f 410/2/5 408/2/5 409/2/5
f 411/3/5 406/3/5 410/3/5
f 414/4/5 413/4/5 412/4/5
f 415/4/5 413/4/5 414/4/5
f 416/4/5 414/4/5 412/4/5
f 417/4/5 414/4/5 416/4/5
f 418/4/5 413/4/5 415/4/5
f 419/4/5 413/4/5 418/4/5
f 424/4/5 421/4/5 420/4/5
f 425/4/5 421/4/5 424/4/5
f 426/4/5 423/4/5 422/4/5
f 427/4/5 423/4/5 426/4/5
f 432/4/5 429/4/5 428/4/5
f 433/4/5 429/4/5 432/4/5
f 434/4/5 431/4/5 430/4/5
f 435/4/5 431/4/5 434/4/5
f 440/4/5 437/4/5 436/4/5
f 441/4/5 437/4/5 440/4/5
f 442/4/5 439/4/5 438/4/5
f 443/4/5 439/4/5 442/4/5
f 444/4/6 445/4/6 448/4/6
f 445/1/6 446/1/6 448/1/6
f 446/4/6 447/4/6 449/4/6
f 448/1/6 446/1/6 449/1/6
f 444/4/6 448/4/6 450/4/6
f 448/4/6 449/4/6 450/4/6
f 449/4/6 447/4/6 451/4/6
f 450/4/6 449/4/6 451/4/6
f 451/4/6 447/4/6 452/4/6
f 452/4/6 447/4/6 453/4/6
f 456/4/6 457/4/6 458/4/6
f 458/4/6 457/4/6 459/4/6
f 454/4/6 455/4/6 460/4/6
f 460/4/6 455/4/6 461/4/6
f 456/4/6 458/4/6 462/4/6
f 458/1/6 459/1/6 463/1/6
f 462/4/6 458/4/6 463/4/6
f 463/1/6 459/1/6 464/1/6
f 465/3/6 466/3/6 468/3/6
f 468/3/6 466/3/6 469/3/6
f 469/4/6 470/4/6 471/4/6
f 471/4/6 470/4/6 472/4/6
f 467/4/6 468/4/6 473/4/6
f 473/4/6 468/4/6 474/4/6
f 474/4/6 468/4/6 475/4/6
f 471/1/6 472/1/6 476/1/6
f 476/1/6 472/1/6 477/1/6
f 474/4/6 475/4/6 478/4/6
f 473/1/6 474/1/6 478/1/6
f 478/4/6 475/4/6 479/4/6
f 473/1/6 478/1/6 480/1/6
f 478/1/6 479/1/6 480/1/6
f 480/1/6 479/1/6 481/1/6
f 476/4/6 477/4/6 482/4/6
f 482/4/6 477/4/6 483/4/6
f 484/4/6 485/4/6 486/4/6
f 486/4/6 485/4/6 487/4/6
