# MagicaVoxel @ Ephtracy

# group
o 

# material
mtllib DaedraArmorBootsRight.mtl
usemtl palette

# normals
vn -1 0 0
vn 1 0 0
vn 0 0 1
vn 0 0 -1
vn 0 -1 0
vn 0 1 0

# texcoords
vt 0.978516 0.5
vt 0.986328 0.5
vt 0.990234 0.5

# verts
v 0.5 0.2 -0.3
v 0.5 0.2 -0.5
v 0.5 0.5 -0.2
v 0.5 0.5 -0.3
v 0.5 0.5 -0.5
v 0.5 0.5 -0.6
v 0.5 0.6 -0.2
v 0.5 0.6 -0.6
v 0.6 0.2 -0.1
v 0.6 0.2 -0.2
v 0.6 0.2 -0.3
v 0.6 0.2 -0.5
v 0.6 0.2 -0.6
v 0.6 0.2 -0.7
v 0.6 0.3 -0.2
v 0.6 0.3 -0.3
v 0.6 0.3 -0.5
v 0.6 0.3 -0.6
v 0.6 0.5 -0.2
v 0.6 0.5 -0.6
v 0.6 0.6 -0.2
v 0.6 0.6 -0.6
v 0.6 0.6 -0.7
v 0.6 0.7 -0.1
v 0.6 0.7 -0.2
v 0.7 0.4 0
v 0.7 0.4 -0.1
v 0.7 0.7 0
v 0.7 0.7 -0.1
v 0.9 0.3 -0.2
v 0.9 0.3 -0.6
v 0.9 0.5 -0.5
v 0.9 0.5 -0.6
v 0.9 0.6 -0.2
v 0.9 0.6 -0.5
v 0.6 0.3 -0.3
v 0.6 0.3 -0.5
v 0.6 0.5 -0.2
v 0.6 0.5 -0.3
v 0.6 0.5 -0.5
v 0.6 0.5 -0.6
v 0.6 0.6 -0.2
v 0.6 0.6 -0.6
v 0.7 0.6 -0.1
v 0.7 0.6 -0.2
v 0.7 0.7 -0.1
v 0.7 0.7 -0.2
v 0.9 0.2 -0.1
v 0.9 0.2 -0.2
v 0.9 0.2 -0.6
v 0.9 0.2 -0.7
v 0.9 0.4 0
v 0.9 0.4 -0.1
v 0.9 0.5 0
v 0.9 0.5 -0.1
v 0.9 0.5 -0.2
v 0.9 0.5 -0.6
v 0.9 0.6 -0.1
v 0.9 0.6 -0.6
v 0.9 0.6 -0.7
v 0.9 0.7 0
v 0.9 0.7 -0.1
v 1 0.2 -0.2
v 1 0.2 -0.6
v 1 0.5 -0.1
v 1 0.5 -0.2
v 1 0.5 -0.5
v 1 0.5 -0.6
v 1 0.6 -0.1
v 1 0.6 -0.5
v 0.7 0.4 0
v 0.7 0.7 0
v 0.8 0.5 0
v 0.8 0.7 0
v 0.9 0.4 0
v 0.9 0.5 0
v 0.9 0.7 0
v 0.6 0.2 -0.1
v 0.6 0.7 -0.1
v 0.7 0.3 -0.1
v 0.7 0.4 -0.1
v 0.7 0.7 -0.1
v 0.8 0.2 -0.1
v 0.8 0.3 -0.1
v 0.9 0.2 -0.1
v 0.9 0.4 -0.1
v 0.9 0.5 -0.1
v 0.9 0.6 -0.1
v 1 0.5 -0.1
v 1 0.6 -0.1
v 0.5 0.5 -0.2
v 0.5 0.6 -0.2
v 0.6 0.5 -0.2
v 0.6 0.6 -0.2
v 0.9 0.2 -0.2
v 0.9 0.5 -0.2
v 1 0.2 -0.2
v 1 0.5 -0.2
v 0.5 0.2 -0.3
v 0.5 0.5 -0.3
v 0.6 0.2 -0.3
v 0.6 0.3 -0.3
v 0.6 0.5 -0.3
v 0.6 0.3 -0.6
v 0.6 0.5 -0.6
v 0.6 0.6 -0.6
v 0.7 0.3 -0.6
v 0.7 0.6 -0.6
v 0.9 0.3 -0.6
v 0.9 0.5 -0.6
v 0.9 0.6 -0.6
v 0.7 0.6 -0.1
v 0.7 0.7 -0.1
v 0.8 0.6 -0.1
v 0.8 0.7 -0.1
v 0.9 0.6 -0.1
v 0.9 0.7 -0.1
v 0.6 0.3 -0.2
v 0.6 0.5 -0.2
v 0.6 0.6 -0.2
v 0.6 0.7 -0.2
v 0.7 0.3 -0.2
v 0.7 0.6 -0.2
v 0.7 0.7 -0.2
v 0.9 0.3 -0.2
v 0.9 0.6 -0.2
v 0.5 0.2 -0.5
v 0.5 0.5 -0.5
v 0.6 0.2 -0.5
v 0.6 0.3 -0.5
v 0.6 0.5 -0.5
v 0.9 0.5 -0.5
v 0.9 0.6 -0.5
v 1 0.5 -0.5
v 1 0.6 -0.5
v 0.5 0.5 -0.6
v 0.5 0.6 -0.6
v 0.6 0.5 -0.6
v 0.6 0.6 -0.6
v 0.9 0.2 -0.6
v 0.9 0.5 -0.6
v 1 0.2 -0.6
v 1 0.5 -0.6
v 0.6 0.2 -0.7
v 0.6 0.6 -0.7
v 0.7 0.2 -0.7
v 0.7 0.6 -0.7
v 0.9 0.2 -0.7
v 0.9 0.6 -0.7
v 0.6 0.2 -0.1
v 0.8 0.2 -0.1
v 0.9 0.2 -0.1
v 0.6 0.2 -0.2
v 0.8 0.2 -0.2
v 0.9 0.2 -0.2
v 1 0.2 -0.2
v 0.5 0.2 -0.3
v 0.6 0.2 -0.3
v 0.5 0.2 -0.5
v 0.6 0.2 -0.5
v 0.6 0.2 -0.6
v 0.7 0.2 -0.6
v 0.9 0.2 -0.6
v 1 0.2 -0.6
v 0.6 0.2 -0.7
v 0.7 0.2 -0.7
v 0.9 0.2 -0.7
v 0.7 0.4 0
v 0.9 0.4 0
v 0.7 0.4 -0.1
v 0.9 0.4 -0.1
v 0.9 0.5 -0.1
v 1 0.5 -0.1
v 0.5 0.5 -0.2
v 0.6 0.5 -0.2
v 0.9 0.5 -0.2
v 1 0.5 -0.2
v 0.5 0.5 -0.3
v 0.6 0.5 -0.3
v 0.5 0.5 -0.5
v 0.6 0.5 -0.5
v 0.5 0.5 -0.6
v 0.6 0.5 -0.6
v 0.6 0.3 -0.2
v 0.7 0.3 -0.2
v 0.9 0.3 -0.2
v 0.6 0.3 -0.3
v 0.6 0.3 -0.5
v 0.6 0.3 -0.6
v 0.7 0.3 -0.6
v 0.9 0.3 -0.6
v 0.9 0.5 -0.5
v 1 0.5 -0.5
v 0.9 0.5 -0.6
v 1 0.5 -0.6
v 0.7 0.6 -0.1
v 0.8 0.6 -0.1
v 0.9 0.6 -0.1
v 1 0.6 -0.1
v 0.5 0.6 -0.2
v 0.6 0.6 -0.2
v 0.7 0.6 -0.2
v 0.9 0.6 -0.2
v 0.9 0.6 -0.5
v 1 0.6 -0.5
v 0.5 0.6 -0.6
v 0.6 0.6 -0.6
v 0.7 0.6 -0.6
v 0.9 0.6 -0.6
v 0.6 0.6 -0.7
v 0.7 0.6 -0.7
v 0.9 0.6 -0.7
v 0.7 0.7 0
v 0.8 0.7 0
v 0.9 0.7 0
v 0.6 0.7 -0.1
v 0.7 0.7 -0.1
v 0.8 0.7 -0.1
v 0.9 0.7 -0.1
v 0.6 0.7 -0.2
v 0.7 0.7 -0.2

# faces
f 4/2/1 2/2/1 1/2/1
f 5/2/1 2/2/1 4/2/1
f 7/2/1 4/2/1 3/2/1
f 7/2/1 6/2/1 5/2/1
f 7/2/1 5/2/1 4/2/1
f 8/2/1 6/2/1 7/2/1
f 15/3/1 10/3/1 9/3/1
f 15/2/1 11/2/1 10/2/1
f 16/2/1 11/2/1 15/2/1
f 17/2/1 13/2/1 12/2/1
f 18/3/1 14/3/1 13/3/1
f 18/2/1 13/2/1 17/2/1
f 19/3/1 15/3/1 9/3/1
f 20/3/1 14/3/1 18/3/1
f 21/3/1 19/3/1 9/3/1
f 22/3/1 14/3/1 20/3/1
f 23/3/1 14/3/1 22/3/1
f 24/3/1 21/3/1 9/3/1
f 25/3/1 21/3/1 24/3/1
f 28/2/1 27/2/1 26/2/1
f 29/2/1 27/2/1 28/2/1
f 32/2/1 31/2/1 30/2/1
f 33/2/1 31/2/1 32/2/1
f 34/2/1 32/2/1 30/2/1
f 35/2/1 32/2/1 34/2/1
f 36/2/2 37/2/2 39/2/2
f 39/2/2 37/2/2 40/2/2
f 38/2/2 39/2/2 42/2/2
f 40/2/2 41/2/2 42/2/2
f 39/2/2 40/2/2 42/2/2
f 42/2/2 41/2/2 43/2/2
f 44/3/2 45/3/2 46/3/2
f 46/3/2 45/3/2 47/3/2
f 48/2/2 49/2/2 53/2/2
f 52/2/2 53/2/2 54/2/2
f 53/2/2 49/2/2 55/2/2
f 54/2/2 53/2/2 55/2/2
f 55/2/2 49/2/2 56/2/2
f 50/2/2 51/2/2 57/2/2
f 54/1/2 55/1/2 58/1/2
f 57/2/2 51/2/2 59/2/2
f 59/2/2 51/2/2 60/2/2
f 54/1/2 58/1/2 61/1/2
f 61/1/2 58/1/2 62/1/2
f 63/2/2 64/2/2 66/2/2
f 66/2/2 64/2/2 67/2/2
f 67/2/2 64/2/2 68/2/2
f 65/2/2 66/2/2 69/2/2
f 66/2/2 67/2/2 69/2/2
f 69/2/2 67/2/2 70/2/2
f 73/2/3 72/2/3 71/2/3
f 74/2/3 72/2/3 73/2/3
f 75/2/3 73/2/3 71/2/3
f 76/1/3 74/1/3 73/1/3
f 76/2/3 73/2/3 75/2/3
f 77/1/3 74/1/3 76/1/3
f 80/3/3 79/3/3 78/3/3
f 81/3/3 79/3/3 80/3/3
f 82/3/3 79/3/3 81/3/3
f 83/3/3 80/3/3 78/3/3
f 84/2/3 81/2/3 80/2/3
f 84/3/3 80/3/3 83/3/3
f 85/2/3 84/2/3 83/2/3
f 86/2/3 81/2/3 84/2/3
f 86/2/3 84/2/3 85/2/3
f 89/2/3 88/2/3 87/2/3
f 90/2/3 88/2/3 89/2/3
f 93/2/3 92/2/3 91/2/3
f 94/2/3 92/2/3 93/2/3
f 97/2/3 96/2/3 95/2/3
f 98/2/3 96/2/3 97/2/3
f 101/2/3 100/2/3 99/2/3
f 102/2/3 100/2/3 101/2/3
f 103/2/3 100/2/3 102/2/3
f 107/3/3 105/3/3 104/3/3
f 107/3/3 106/3/3 105/3/3
f 108/3/3 106/3/3 107/3/3
f 109/2/3 108/2/3 107/2/3
f 110/2/3 108/2/3 109/2/3
f 111/2/3 108/2/3 110/2/3
f 112/2/4 113/2/4 114/2/4
f 114/2/4 113/2/4 115/2/4
f 114/1/4 115/1/4 116/1/4
f 116/1/4 115/1/4 117/1/4
f 118/3/4 119/3/4 122/3/4
f 120/3/4 121/3/4 122/3/4
f 119/3/4 120/3/4 122/3/4
f 122/3/4 121/3/4 123/3/4
f 123/3/4 121/3/4 124/3/4
f 122/2/4 123/2/4 125/2/4
f 125/2/4 123/2/4 126/2/4
f 127/2/4 128/2/4 129/2/4
f 129/2/4 128/2/4 130/2/4
f 130/2/4 128/2/4 131/2/4
f 132/2/4 133/2/4 134/2/4
f 134/2/4 133/2/4 135/2/4
f 136/2/4 137/2/4 138/2/4
f 138/2/4 137/2/4 139/2/4
f 140/2/4 141/2/4 142/2/4
f 142/2/4 141/2/4 143/2/4
f 144/3/4 145/3/4 146/3/4
f 146/3/4 145/3/4 147/3/4
f 146/2/4 147/2/4 148/2/4
f 148/2/4 147/2/4 149/2/4
f 153/3/5 151/3/5 150/3/5
f 154/2/5 152/2/5 151/2/5
f 154/3/5 151/3/5 153/3/5
f 155/2/5 152/2/5 154/2/5
f 158/2/5 154/2/5 153/2/5
f 158/2/5 156/2/5 155/2/5
f 158/2/5 155/2/5 154/2/5
f 159/2/5 158/2/5 157/2/5
f 160/2/5 156/2/5 158/2/5
f 160/2/5 158/2/5 159/2/5
f 161/2/5 156/2/5 160/2/5
f 162/2/5 156/2/5 161/2/5
f 163/2/5 156/2/5 162/2/5
f 164/2/5 156/2/5 163/2/5
f 165/3/5 162/3/5 161/3/5
f 166/2/5 163/2/5 162/2/5
f 166/3/5 162/3/5 165/3/5
f 167/2/5 163/2/5 166/2/5
f 170/2/5 169/2/5 168/2/5
f 171/2/5 169/2/5 170/2/5
f 176/2/5 173/2/5 172/2/5
f 177/2/5 173/2/5 176/2/5
f 178/2/5 175/2/5 174/2/5
f 179/2/5 175/2/5 178/2/5
f 182/2/5 181/2/5 180/2/5
f 183/2/5 181/2/5 182/2/5
f 184/2/6 185/2/6 187/2/6
f 185/2/6 186/2/6 187/2/6
f 187/2/6 186/2/6 188/2/6
f 188/2/6 186/2/6 189/2/6
f 189/2/6 186/2/6 190/2/6
f 190/2/6 186/2/6 191/2/6
f 192/2/6 193/2/6 194/2/6
f 194/2/6 193/2/6 195/2/6
f 196/2/6 197/2/6 202/2/6
f 197/2/6 198/2/6 202/2/6
f 198/2/6 199/2/6 202/2/6
f 202/2/6 199/2/6 203/2/6
f 203/2/6 199/2/6 204/2/6
f 204/2/6 199/2/6 205/2/6
f 200/2/6 201/2/6 206/2/6
f 206/2/6 201/2/6 207/2/6
f 207/3/6 208/3/6 210/3/6
f 208/2/6 209/2/6 211/2/6
f 210/3/6 208/3/6 211/3/6
f 211/2/6 209/2/6 212/2/6
f 213/2/6 214/2/6 217/2/6
f 214/1/6 215/1/6 218/1/6
f 217/2/6 214/2/6 218/2/6
f 218/1/6 215/1/6 219/1/6
f 216/3/6 217/3/6 220/3/6
f 220/3/6 217/3/6 221/3/6
