# MagicaVoxel @ Ephtracy

# group
o 

# material
mtllib DaedraArmorStanciLeft.mtl
usemtl palette

# normals
vn -1 0 0
vn 1 0 0
vn 0 0 1
vn 0 0 -1
vn 0 -1 0
vn 0 1 0

# texcoords
vt 0.978516 0.5
vt 0.986328 0.5
vt 0.990234 0.5

# verts
v 0 0.5 -0.3
v 0 0.5 -0.5
v 0 0.6 -0.2
v 0 0.6 -0.3
v 0 0.6 -0.5
v 0 0.6 -0.6
v 0 0.7 -0.3
v 0 0.7 -0.5
v 0 0.9 -0.2
v 0 0.9 -0.6
v 0.1 0.9 -0.2
v 0.1 0.9 -0.6
v 0.1 1.1 -0.1
v 0.1 1.1 -0.2
v 0.1 1.1 -0.6
v 0.1 1.1 -0.7
v 0.1 1.2 -0.2
v 0.1 1.2 -0.3
v 0.1 1.2 -0.5
v 0.1 1.2 -0.6
v 0.1 1.3 -0.1
v 0.1 1.3 -0.2
v 0.1 1.3 -0.3
v 0.1 1.3 -0.5
v 0.1 1.3 -0.6
v 0.1 1.3 -0.7
v 0.2 0.5 -0.1
v 0.2 0.5 -0.2
v 0.2 0.5 -0.6
v 0.2 0.5 -0.7
v 0.2 0.6 -0.1
v 0.2 0.6 -0.2
v 0.2 0.8 -0.1
v 0.2 0.8 -0.2
v 0.2 0.9 -0.2
v 0.2 0.9 -0.6
v 0.2 1 0
v 0.2 1 -0.1
v 0.2 1 -0.2
v 0.2 1 -0.7
v 0.2 1 -0.8
v 0.2 1.1 -0.1
v 0.2 1.1 -0.2
v 0.2 1.1 -0.6
v 0.2 1.1 -0.7
v 0.2 1.3 -0.1
v 0.2 1.3 -0.2
v 0.2 1.3 -0.6
v 0.2 1.3 -0.7
v 0.2 1.3 -0.8
v 0.2 1.5 0
v 0.2 1.5 -0.2
v 0.2 1.5 -0.6
v 0.2 1.5 -0.7
v 0.4 1.3 -0.7
v 0.4 1.3 -0.8
v 0.4 1.4 -0.7
v 0.4 1.4 -0.8
v 0.5 1.1 -0.2
v 0.5 1.1 -0.6
v 0.5 1.2 -0.2
v 0.5 1.2 -0.6
v 0.5 1.3 -0.2
v 0.5 1.3 -0.6
v 0.1 0.5 -0.3
v 0.1 0.5 -0.5
v 0.1 0.6 -0.2
v 0.1 0.6 -0.3
v 0.1 0.6 -0.5
v 0.1 0.6 -0.6
v 0.1 0.7 -0.3
v 0.1 0.7 -0.5
v 0.1 0.9 -0.2
v 0.1 0.9 -0.6
v 0.2 0.9 -0.2
v 0.2 0.9 -0.6
v 0.2 1 -0.2
v 0.2 1.2 -0.2
v 0.2 1.2 -0.3
v 0.2 1.2 -0.5
v 0.2 1.2 -0.6
v 0.2 1.3 -0.2
v 0.2 1.3 -0.3
v 0.2 1.3 -0.5
v 0.2 1.3 -0.6
v 0.3 1.3 -0.6
v 0.3 1.3 -0.7
v 0.3 1.4 -0.1
v 0.3 1.4 -0.2
v 0.3 1.5 -0.1
v 0.3 1.5 -0.2
v 0.3 1.5 -0.6
v 0.3 1.5 -0.7
v 0.4 0.5 -0.1
v 0.4 0.5 -0.2
v 0.4 0.5 -0.6
v 0.4 0.5 -0.7
v 0.4 0.6 -0.1
v 0.4 0.6 -0.2
v 0.4 0.7 -0.1
v 0.4 0.7 -0.2
v 0.4 0.8 -0.6
v 0.4 0.8 -0.7
v 0.4 1 0
v 0.4 1 -0.1
v 0.4 1 -0.7
v 0.4 1 -0.8
v 0.4 1.2 0
v 0.4 1.2 -0.1
v 0.4 1.2 -0.7
v 0.4 1.2 -0.8
v 0.4 1.3 0
v 0.4 1.3 -0.1
v 0.4 1.3 -0.2
v 0.4 1.4 -0.1
v 0.4 1.4 -0.2
v 0.4 1.5 0
v 0.4 1.5 -0.1
v 0.5 0.7 -0.1
v 0.5 0.7 -0.2
v 0.5 0.8 -0.6
v 0.5 0.8 -0.7
v 0.5 1 -0.1
v 0.5 1 -0.2
v 0.5 1.1 -0.6
v 0.5 1.1 -0.7
v 0.5 1.2 0
v 0.5 1.2 -0.1
v 0.5 1.2 -0.7
v 0.5 1.2 -0.8
v 0.5 1.3 0
v 0.5 1.3 -0.1
v 0.5 1.3 -0.7
v 0.5 1.4 -0.7
v 0.5 1.4 -0.8
v 0.6 1 -0.1
v 0.6 1 -0.2
v 0.6 1.1 -0.2
v 0.6 1.1 -0.7
v 0.6 1.3 -0.1
v 0.6 1.3 -0.2
v 0.6 1.3 -0.7
v 0.2 1 0
v 0.2 1.5 0
v 0.3 1.3 0
v 0.3 1.5 0
v 0.4 1 0
v 0.4 1.2 0
v 0.4 1.3 0
v 0.4 1.5 0
v 0.5 1.2 0
v 0.5 1.3 0
v 0.1 1.1 -0.1
v 0.1 1.3 -0.1
v 0.2 0.5 -0.1
v 0.2 0.6 -0.1
v 0.2 0.8 -0.1
v 0.2 1 -0.1
v 0.2 1.1 -0.1
v 0.2 1.3 -0.1
v 0.3 0.5 -0.1
v 0.3 0.6 -0.1
v 0.3 0.7 -0.1
v 0.3 0.8 -0.1
v 0.3 1 -0.1
v 0.4 0.5 -0.1
v 0.4 0.6 -0.1
v 0.4 0.7 -0.1
v 0.4 1 -0.1
v 0.4 1.2 -0.1
v 0.5 0.7 -0.1
v 0.5 1 -0.1
v 0.5 1.2 -0.1
v 0.5 1.3 -0.1
v 0.6 1 -0.1
v 0.6 1.3 -0.1
v 0 0.6 -0.2
v 0 0.9 -0.2
v 0.1 0.6 -0.2
v 0.1 0.9 -0.2
v 0.1 1.1 -0.2
v 0.2 0.9 -0.2
v 0.2 1 -0.2
v 0.2 1.1 -0.2
v 0 0.5 -0.3
v 0 0.6 -0.3
v 0.1 0.5 -0.3
v 0.1 0.6 -0.3
v 0.1 1.2 -0.5
v 0.1 1.3 -0.5
v 0.2 1.2 -0.5
v 0.2 1.3 -0.5
v 0.2 0.5 -0.6
v 0.2 0.9 -0.6
v 0.2 1.2 -0.6
v 0.2 1.3 -0.6
v 0.2 1.5 -0.6
v 0.3 0.5 -0.6
v 0.3 0.8 -0.6
v 0.3 1.3 -0.6
v 0.3 1.5 -0.6
v 0.4 0.5 -0.6
v 0.4 0.8 -0.6
v 0.4 1.2 -0.6
v 0.5 0.8 -0.6
v 0.5 1.1 -0.6
v 0.5 1.2 -0.6
v 0.5 1.3 -0.6
v 0.4 1.3 -0.7
v 0.4 1.4 -0.7
v 0.5 1.3 -0.7
v 0.5 1.4 -0.7
v 0.3 1.4 -0.1
v 0.3 1.5 -0.1
v 0.4 1.4 -0.1
v 0.4 1.5 -0.1
v 0.2 0.5 -0.2
v 0.2 0.6 -0.2
v 0.2 0.8 -0.2
v 0.2 0.9 -0.2
v 0.2 1 -0.2
v 0.2 1.2 -0.2
v 0.2 1.3 -0.2
v 0.2 1.5 -0.2
v 0.3 0.5 -0.2
v 0.3 0.6 -0.2
v 0.3 0.7 -0.2
v 0.3 0.8 -0.2
v 0.3 1 -0.2
v 0.3 1.4 -0.2
v 0.3 1.5 -0.2
v 0.4 0.5 -0.2
v 0.4 0.6 -0.2
v 0.4 0.7 -0.2
v 0.4 1.2 -0.2
v 0.4 1.3 -0.2
v 0.4 1.4 -0.2
v 0.5 0.7 -0.2
v 0.5 1 -0.2
v 0.5 1.1 -0.2
v 0.5 1.2 -0.2
v 0.5 1.3 -0.2
v 0.6 1 -0.2
v 0.6 1.1 -0.2
v 0.1 1.2 -0.3
v 0.1 1.3 -0.3
v 0.2 1.2 -0.3
v 0.2 1.3 -0.3
v 0 0.5 -0.5
v 0 0.6 -0.5
v 0.1 0.5 -0.5
v 0.1 0.6 -0.5
v 0 0.6 -0.6
v 0 0.9 -0.6
v 0.1 0.6 -0.6
v 0.1 0.9 -0.6
v 0.1 1.1 -0.6
v 0.2 0.9 -0.6
v 0.2 1.1 -0.6
v 0.1 1.1 -0.7
v 0.1 1.3 -0.7
v 0.2 0.5 -0.7
v 0.2 1 -0.7
v 0.2 1.1 -0.7
v 0.2 1.3 -0.7
v 0.2 1.5 -0.7
v 0.3 0.5 -0.7
v 0.3 0.8 -0.7
v 0.3 1.3 -0.7
v 0.3 1.5 -0.7
v 0.4 0.5 -0.7
v 0.4 0.8 -0.7
v 0.4 1 -0.7
v 0.4 1.2 -0.7
v 0.5 0.8 -0.7
v 0.5 1.1 -0.7
v 0.5 1.2 -0.7
v 0.5 1.3 -0.7
v 0.6 1.1 -0.7
v 0.6 1.3 -0.7
v 0.2 1 -0.8
v 0.2 1.3 -0.8
v 0.4 1 -0.8
v 0.4 1.2 -0.8
v 0.4 1.3 -0.8
v 0.4 1.4 -0.8
v 0.5 1.2 -0.8
v 0.5 1.4 -0.8
v 0.2 0.5 -0.1
v 0.3 0.5 -0.1
v 0.4 0.5 -0.1
v 0.2 0.5 -0.2
v 0.3 0.5 -0.2
v 0.4 0.5 -0.2
v 0 0.5 -0.3
v 0.1 0.5 -0.3
v 0 0.5 -0.5
v 0.1 0.5 -0.5
v 0.2 0.5 -0.6
v 0.3 0.5 -0.6
v 0.4 0.5 -0.6
v 0.2 0.5 -0.7
v 0.3 0.5 -0.7
v 0.4 0.5 -0.7
v 0 0.6 -0.2
v 0.1 0.6 -0.2
v 0 0.6 -0.3
v 0.1 0.6 -0.3
v 0 0.6 -0.5
v 0.1 0.6 -0.5
v 0 0.6 -0.6
v 0.1 0.6 -0.6
v 0.4 0.7 -0.1
v 0.5 0.7 -0.1
v 0.4 0.7 -0.2
v 0.5 0.7 -0.2
v 0.4 0.8 -0.6
v 0.5 0.8 -0.6
v 0.4 0.8 -0.7
v 0.5 0.8 -0.7
v 0.1 0.9 -0.2
v 0.2 0.9 -0.2
v 0.1 0.9 -0.6
v 0.2 0.9 -0.6
v 0.2 1 0
v 0.4 1 0
v 0.2 1 -0.1
v 0.3 1 -0.1
v 0.4 1 -0.1
v 0.5 1 -0.1
v 0.6 1 -0.1
v 0.5 1 -0.2
v 0.6 1 -0.2
v 0.2 1 -0.7
v 0.4 1 -0.7
v 0.2 1 -0.8
v 0.4 1 -0.8
v 0.1 1.1 -0.1
v 0.2 1.1 -0.1
v 0.1 1.1 -0.2
v 0.2 1.1 -0.2
v 0.5 1.1 -0.2
v 0.6 1.1 -0.2
v 0.1 1.1 -0.6
v 0.2 1.1 -0.6
v 0.5 1.1 -0.6
v 0.1 1.1 -0.7
v 0.2 1.1 -0.7
v 0.5 1.1 -0.7
v 0.6 1.1 -0.7
v 0.4 1.2 0
v 0.5 1.2 0
v 0.4 1.2 -0.1
v 0.5 1.2 -0.1
v 0.4 1.2 -0.7
v 0.5 1.2 -0.7
v 0.4 1.2 -0.8
v 0.5 1.2 -0.8
v 0 0.9 -0.2
v 0.1 0.9 -0.2
v 0 0.9 -0.6
v 0.1 0.9 -0.6
v 0.1 1.2 -0.3
v 0.2 1.2 -0.3
v 0.1 1.2 -0.5
v 0.2 1.2 -0.5
v 0.4 1.3 0
v 0.5 1.3 0
v 0.1 1.3 -0.1
v 0.2 1.3 -0.1
v 0.4 1.3 -0.1
v 0.5 1.3 -0.1
v 0.6 1.3 -0.1
v 0.1 1.3 -0.2
v 0.2 1.3 -0.2
v 0.4 1.3 -0.2
v 0.5 1.3 -0.2
v 0.6 1.3 -0.2
v 0.1 1.3 -0.3
v 0.2 1.3 -0.3
v 0.1 1.3 -0.5
v 0.2 1.3 -0.5
v 0.1 1.3 -0.6
v 0.2 1.3 -0.6
v 0.3 1.3 -0.6
v 0.5 1.3 -0.6
v 0.1 1.3 -0.7
v 0.2 1.3 -0.7
v 0.3 1.3 -0.7
v 0.4 1.3 -0.7
v 0.5 1.3 -0.7
v 0.6 1.3 -0.7
v 0.2 1.3 -0.8
v 0.4 1.3 -0.8
v 0.3 1.4 -0.1
v 0.4 1.4 -0.1
v 0.3 1.4 -0.2
v 0.4 1.4 -0.2
v 0.4 1.4 -0.7
v 0.5 1.4 -0.7
v 0.4 1.4 -0.8
v 0.5 1.4 -0.8
v 0.2 1.5 0
v 0.3 1.5 0
v 0.4 1.5 0
v 0.3 1.5 -0.1
v 0.4 1.5 -0.1
v 0.2 1.5 -0.2
v 0.3 1.5 -0.2
v 0.2 1.5 -0.6
v 0.3 1.5 -0.6
v 0.2 1.5 -0.7
v 0.3 1.5 -0.7

# faces
f 4/1/1 2/1/1 1/1/1
f 5/1/1 2/1/1 4/1/1
f 7/2/1 4/2/1 3/2/1
f 7/1/1 5/1/1 4/1/1
f 8/2/1 6/2/1 5/2/1
f 8/1/1 5/1/1 7/1/1
f 9/2/1 7/2/1 3/2/1
f 9/2/1 8/2/1 7/2/1
f 10/2/1 6/2/1 8/2/1
f 10/2/1 8/2/1 9/2/1
f 14/3/1 12/3/1 11/3/1
f 15/3/1 12/3/1 14/3/1
f 17/3/1 14/3/1 13/3/1
f 17/3/1 16/3/1 15/3/1
f 17/3/1 15/3/1 14/3/1
f 18/3/1 16/3/1 17/3/1
f 19/3/1 16/3/1 18/3/1
f 20/3/1 16/3/1 19/3/1
f 21/3/1 17/3/1 13/3/1
f 22/2/1 18/2/1 17/2/1
f 22/3/1 17/3/1 21/3/1
f 23/2/1 18/2/1 22/2/1
f 24/2/1 20/2/1 19/2/1
f 25/3/1 16/3/1 20/3/1
f 25/2/1 20/2/1 24/2/1
f 26/3/1 16/3/1 25/3/1
f 31/1/1 28/1/1 27/1/1
f 32/1/1 28/1/1 31/1/1
f 33/2/1 32/2/1 31/2/1
f 34/2/1 32/2/1 33/2/1
f 35/1/1 34/1/1 33/1/1
f 36/2/1 30/2/1 29/2/1
f 38/1/1 35/1/1 33/1/1
f 39/1/1 35/1/1 38/1/1
f 40/2/1 30/2/1 36/2/1
f 42/2/1 39/2/1 38/2/1
f 42/2/1 38/2/1 37/2/1
f 43/2/1 39/2/1 42/2/1
f 44/2/1 41/2/1 40/2/1
f 44/2/1 40/2/1 36/2/1
f 45/2/1 41/2/1 44/2/1
f 46/2/1 42/2/1 37/2/1
f 49/2/1 41/2/1 45/2/1
f 50/2/1 41/2/1 49/2/1
f 51/2/1 47/2/1 46/2/1
f 51/2/1 46/2/1 37/2/1
f 52/2/1 47/2/1 51/2/1
f 53/2/1 49/2/1 48/2/1
f 54/2/1 49/2/1 53/2/1
f 57/2/1 56/2/1 55/2/1
f 58/2/1 56/2/1 57/2/1
f 61/3/1 60/3/1 59/3/1
f 62/3/1 60/3/1 61/3/1
f 63/3/1 62/3/1 61/3/1
f 64/3/1 62/3/1 63/3/1
f 65/1/2 66/1/2 68/1/2
f 68/1/2 66/1/2 69/1/2
f 67/2/2 68/2/2 71/2/2
f 68/1/2 69/1/2 71/1/2
f 69/2/2 70/2/2 72/2/2
f 71/1/2 69/1/2 72/1/2
f 67/2/2 71/2/2 73/2/2
f 71/2/2 72/2/2 73/2/2
f 72/2/2 70/2/2 74/2/2
f 73/2/2 72/2/2 74/2/2
f 75/3/2 76/3/2 77/3/2
f 77/3/2 76/3/2 78/3/2
f 78/3/2 76/3/2 79/3/2
f 79/3/2 76/3/2 80/3/2
f 80/3/2 76/3/2 81/3/2
f 78/2/2 79/2/2 82/2/2
f 82/2/2 79/2/2 83/2/2
f 80/2/2 81/2/2 84/2/2
f 84/2/2 81/2/2 85/2/2
f 88/2/2 89/2/2 90/2/2
f 90/2/2 89/2/2 91/2/2
f 86/2/2 87/2/2 92/2/2
f 92/2/2 87/2/2 93/2/2
f 94/2/2 95/2/2 98/2/2
f 98/2/2 95/2/2 99/2/2
f 98/3/2 99/3/2 100/3/2
f 100/3/2 99/3/2 101/3/2
f 96/3/2 97/3/2 102/3/2
f 102/3/2 97/3/2 103/3/2
f 104/2/2 105/2/2 108/2/2
f 108/2/2 105/2/2 109/2/2
f 106/2/2 107/2/2 110/2/2
f 110/2/2 107/2/2 111/2/2
f 112/1/2 113/1/2 115/1/2
f 113/2/2 114/2/2 115/2/2
f 115/2/2 114/2/2 116/2/2
f 112/1/2 115/1/2 117/1/2
f 117/1/2 115/1/2 118/1/2
f 119/3/2 120/3/2 123/3/2
f 123/3/2 120/3/2 124/3/2
f 121/3/2 122/3/2 125/3/2
f 125/3/2 122/3/2 126/3/2
f 127/1/2 128/1/2 131/1/2
f 131/1/2 128/1/2 132/1/2
f 129/2/2 130/2/2 133/2/2
f 133/2/2 130/2/2 134/2/2
f 134/2/2 130/2/2 135/2/2
f 136/2/2 137/2/2 138/2/2
f 136/2/2 138/2/2 140/2/2
f 138/3/2 139/3/2 141/3/2
f 140/2/2 138/2/2 141/2/2
f 141/3/2 139/3/2 142/3/2
f 145/2/3 144/2/3 143/2/3
f 146/2/3 144/2/3 145/2/3
f 147/2/3 145/2/3 143/2/3
f 148/2/3 145/2/3 147/2/3
f 149/1/3 146/1/3 145/1/3
f 149/2/3 145/2/3 148/2/3
f 150/1/3 146/1/3 149/1/3
f 151/1/3 149/1/3 148/1/3
f 152/1/3 149/1/3 151/1/3
f 159/3/3 154/3/3 153/3/3
f 160/3/3 154/3/3 159/3/3
f 161/1/3 156/1/3 155/1/3
f 162/2/3 157/2/3 156/2/3
f 162/1/3 156/1/3 161/1/3
f 163/2/3 157/2/3 162/2/3
f 164/1/3 158/1/3 157/1/3
f 164/2/3 157/2/3 163/2/3
f 165/1/3 158/1/3 164/1/3
f 166/2/3 162/2/3 161/2/3
f 167/3/3 163/3/3 162/3/3
f 167/2/3 162/2/3 166/2/3
f 168/2/3 164/2/3 163/2/3
f 168/3/3 163/3/3 167/3/3
f 168/2/3 165/2/3 164/2/3
f 169/2/3 165/2/3 168/2/3
f 171/3/3 169/3/3 168/3/3
f 171/3/3 170/3/3 169/3/3
f 172/3/3 170/3/3 171/3/3
f 173/3/3 170/3/3 172/3/3
f 175/2/3 174/2/3 173/2/3
f 175/2/3 173/2/3 172/2/3
f 176/2/3 174/2/3 175/2/3
f 179/2/3 178/2/3 177/2/3
f 180/2/3 178/2/3 179/2/3
f 182/3/3 181/3/3 180/3/3
f 183/3/3 181/3/3 182/3/3
f 184/3/3 181/3/3 183/3/3
f 187/1/3 186/1/3 185/1/3
f 188/1/3 186/1/3 187/1/3
f 191/2/3 190/2/3 189/2/3
f 192/2/3 190/2/3 191/2/3
f 198/2/3 194/2/3 193/2/3
f 198/2/3 197/2/3 196/2/3
f 198/2/3 196/2/3 195/2/3
f 198/2/3 195/2/3 194/2/3
f 199/2/3 197/2/3 198/2/3
f 200/2/3 197/2/3 199/2/3
f 201/2/3 197/2/3 200/2/3
f 202/3/3 199/3/3 198/3/3
f 203/2/3 200/2/3 199/2/3
f 203/3/3 199/3/3 202/3/3
f 204/2/3 200/2/3 203/2/3
f 205/3/3 204/3/3 203/3/3
f 206/3/3 204/3/3 205/3/3
f 207/2/3 200/2/3 204/2/3
f 207/3/3 204/3/3 206/3/3
f 208/2/3 200/2/3 207/2/3
f 211/2/3 210/2/3 209/2/3
f 212/2/3 210/2/3 211/2/3
f 213/1/4 214/1/4 215/1/4
f 215/1/4 214/1/4 216/1/4
f 217/1/4 218/1/4 225/1/4
f 218/2/4 219/2/4 226/2/4
f 225/1/4 218/1/4 226/1/4
f 226/2/4 219/2/4 227/2/4
f 219/1/4 220/1/4 228/1/4
f 227/2/4 219/2/4 228/2/4
f 220/1/4 221/1/4 228/1/4
f 223/2/4 224/2/4 229/2/4
f 228/1/4 221/1/4 229/1/4
f 221/2/4 222/2/4 229/2/4
f 222/2/4 223/2/4 229/2/4
f 229/2/4 224/2/4 230/2/4
f 230/2/4 224/2/4 231/2/4
f 225/2/4 226/2/4 232/2/4
f 226/3/4 227/3/4 233/3/4
f 232/2/4 226/2/4 233/2/4
f 227/2/4 228/2/4 234/2/4
f 233/3/4 227/3/4 234/3/4
f 228/2/4 229/2/4 234/2/4
f 229/2/4 230/2/4 234/2/4
f 234/2/4 230/2/4 235/2/4
f 235/2/4 230/2/4 236/2/4
f 236/2/4 230/2/4 237/2/4
f 234/3/4 235/3/4 238/3/4
f 238/3/4 235/3/4 239/3/4
f 239/3/4 235/3/4 240/3/4
f 235/2/4 236/2/4 241/2/4
f 240/3/4 235/3/4 241/3/4
f 241/2/4 236/2/4 242/2/4
f 239/2/4 240/2/4 243/2/4
f 243/2/4 240/2/4 244/2/4
f 245/2/4 246/2/4 247/2/4
f 247/2/4 246/2/4 248/2/4
f 249/1/4 250/1/4 251/1/4
f 251/1/4 250/1/4 252/1/4
f 253/2/4 254/2/4 255/2/4
f 255/2/4 254/2/4 256/2/4
f 256/3/4 257/3/4 258/3/4
f 258/3/4 257/3/4 259/3/4
f 260/3/4 261/3/4 264/3/4
f 264/3/4 261/3/4 265/3/4
f 262/2/4 263/2/4 267/2/4
f 267/2/4 263/2/4 268/2/4
f 265/2/4 266/2/4 269/2/4
f 269/2/4 266/2/4 270/2/4
f 267/3/4 268/3/4 271/3/4
f 268/2/4 263/2/4 272/2/4
f 271/3/4 268/3/4 272/3/4
f 272/2/4 263/2/4 273/2/4
f 273/3/4 274/3/4 275/3/4
f 272/3/4 273/3/4 275/3/4
f 275/3/4 274/3/4 276/3/4
f 276/3/4 274/3/4 277/3/4
f 277/3/4 278/3/4 279/3/4
f 276/3/4 277/3/4 279/3/4
f 279/3/4 278/3/4 280/3/4
f 281/2/4 282/2/4 283/2/4
f 283/2/4 282/2/4 284/2/4
f 284/2/4 282/2/4 285/2/4
f 285/2/4 286/2/4 287/2/4
f 284/2/4 285/2/4 287/2/4
f 287/2/4 286/2/4 288/2/4
f 292/1/5 290/1/5 289/1/5
f 293/2/5 291/2/5 290/2/5
f 293/1/5 290/1/5 292/1/5
f 294/2/5 291/2/5 293/2/5
f 297/1/5 296/1/5 295/1/5
f 298/1/5 296/1/5 297/1/5
f 302/2/5 300/2/5 299/2/5
f 303/3/5 301/3/5 300/3/5
f 303/2/5 300/2/5 302/2/5
f 304/3/5 301/3/5 303/3/5
f 307/2/5 306/2/5 305/2/5
f 308/2/5 306/2/5 307/2/5
f 311/2/5 310/2/5 309/2/5
f 312/2/5 310/2/5 311/2/5
f 315/3/5 314/3/5 313/3/5
f 316/3/5 314/3/5 315/3/5
f 319/3/5 318/3/5 317/3/5
f 320/3/5 318/3/5 319/3/5
f 323/3/5 322/3/5 321/3/5
f 324/3/5 322/3/5 323/3/5
f 327/2/5 326/2/5 325/2/5
f 328/2/5 326/2/5 327/2/5
f 329/2/5 326/2/5 328/2/5
f 332/2/5 331/2/5 330/2/5
f 333/2/5 331/2/5 332/2/5
f 336/2/5 335/2/5 334/2/5
f 337/2/5 335/2/5 336/2/5
f 340/3/5 339/3/5 338/3/5
f 341/3/5 339/3/5 340/3/5
f 346/3/5 343/3/5 342/3/5
f 347/3/5 345/3/5 344/3/5
f 348/3/5 345/3/5 347/3/5
f 349/3/5 343/3/5 346/3/5
f 350/3/5 343/3/5 349/3/5
f 353/1/5 352/1/5 351/1/5
f 354/1/5 352/1/5 353/1/5
f 357/2/5 356/2/5 355/2/5
f 358/2/5 356/2/5 357/2/5
f 359/2/6 360/2/6 361/2/6
f 361/2/6 360/2/6 362/2/6
f 363/3/6 364/3/6 365/3/6
f 365/3/6 364/3/6 366/3/6
f 367/1/6 368/1/6 371/1/6
f 371/1/6 368/1/6 372/1/6
f 369/3/6 370/3/6 374/3/6
f 374/3/6 370/3/6 375/3/6
f 372/2/6 373/2/6 376/2/6
f 371/2/6 372/2/6 376/2/6
f 376/2/6 373/2/6 377/2/6
f 377/2/6 373/2/6 378/2/6
f 374/2/6 375/2/6 379/2/6
f 379/2/6 375/2/6 380/2/6
f 381/2/6 382/2/6 383/2/6
f 383/2/6 382/2/6 384/2/6
f 377/3/6 378/3/6 386/3/6
f 383/3/6 384/3/6 387/3/6
f 387/3/6 384/3/6 388/3/6
f 385/2/6 386/2/6 389/2/6
f 389/2/6 386/2/6 390/2/6
f 386/3/6 378/3/6 391/3/6
f 390/2/6 386/2/6 391/2/6
f 391/3/6 378/3/6 392/3/6
f 389/2/6 390/2/6 393/2/6
f 388/2/6 389/2/6 393/2/6
f 393/2/6 390/2/6 394/2/6
f 395/2/6 396/2/6 397/2/6
f 397/2/6 396/2/6 398/2/6
f 399/2/6 400/2/6 401/2/6
f 401/2/6 400/2/6 402/2/6
f 403/2/6 404/2/6 406/2/6
f 404/1/6 405/1/6 406/1/6
f 406/1/6 405/1/6 407/1/6
f 403/2/6 406/2/6 408/2/6
f 408/2/6 406/2/6 409/2/6
f 410/2/6 411/2/6 412/2/6
f 412/2/6 411/2/6 413/2/6
