# MagicaVoxel @ Ephtracy

# group
o 

# material
mtllib DaedraArmorStanciRight.mtl
usemtl palette

# normals
vn -1 0 0
vn 1 0 0
vn 0 0 1
vn 0 0 -1
vn 0 -1 0
vn 0 1 0

# texcoords
vt 0.978516 0.5
vt 0.986328 0.5
vt 0.990234 0.5

# verts
v 0.6 1 -0.1
v 0.6 1 -0.2
v 0.6 1.1 -0.2
v 0.6 1.1 -0.7
v 0.6 1.3 -0.1
v 0.6 1.3 -0.2
v 0.6 1.3 -0.7
v 0.7 0.7 -0.1
v 0.7 0.7 -0.2
v 0.7 0.8 -0.6
v 0.7 0.8 -0.7
v 0.7 1 -0.1
v 0.7 1 -0.2
v 0.7 1.1 -0.6
v 0.7 1.1 -0.7
v 0.7 1.2 0
v 0.7 1.2 -0.1
v 0.7 1.2 -0.7
v 0.7 1.2 -0.8
v 0.7 1.3 0
v 0.7 1.3 -0.1
v 0.7 1.3 -0.7
v 0.7 1.4 -0.7
v 0.7 1.4 -0.8
v 0.8 0.5 -0.1
v 0.8 0.5 -0.2
v 0.8 0.5 -0.6
v 0.8 0.5 -0.7
v 0.8 0.6 -0.1
v 0.8 0.6 -0.2
v 0.8 0.7 -0.1
v 0.8 0.7 -0.2
v 0.8 0.8 -0.6
v 0.8 0.8 -0.7
v 0.8 1 0
v 0.8 1 -0.1
v 0.8 1 -0.7
v 0.8 1 -0.8
v 0.8 1.2 0
v 0.8 1.2 -0.1
v 0.8 1.2 -0.7
v 0.8 1.2 -0.8
v 0.8 1.3 0
v 0.8 1.3 -0.1
v 0.8 1.3 -0.2
v 0.8 1.4 -0.1
v 0.8 1.4 -0.2
v 0.8 1.5 0
v 0.8 1.5 -0.1
v 0.9 1.3 -0.6
v 0.9 1.3 -0.7
v 0.9 1.4 -0.1
v 0.9 1.4 -0.2
v 0.9 1.5 -0.1
v 0.9 1.5 -0.2
v 0.9 1.5 -0.6
v 0.9 1.5 -0.7
v 1 0.9 -0.2
v 1 0.9 -0.6
v 1 1 -0.2
v 1 1.2 -0.2
v 1 1.2 -0.3
v 1 1.2 -0.5
v 1 1.2 -0.6
v 1 1.3 -0.2
v 1 1.3 -0.3
v 1 1.3 -0.5
v 1 1.3 -0.6
v 1.1 0.5 -0.3
v 1.1 0.5 -0.5
v 1.1 0.6 -0.2
v 1.1 0.6 -0.3
v 1.1 0.6 -0.5
v 1.1 0.6 -0.6
v 1.1 0.7 -0.3
v 1.1 0.7 -0.5
v 1.1 0.9 -0.2
v 1.1 0.9 -0.6
v 0.7 1.1 -0.2
v 0.7 1.1 -0.6
v 0.7 1.2 -0.2
v 0.7 1.2 -0.6
v 0.7 1.3 -0.2
v 0.7 1.3 -0.6
v 0.8 1.3 -0.7
v 0.8 1.3 -0.8
v 0.8 1.4 -0.7
v 0.8 1.4 -0.8
v 1 0.5 -0.1
v 1 0.5 -0.2
v 1 0.5 -0.6
v 1 0.5 -0.7
v 1 0.6 -0.1
v 1 0.6 -0.2
v 1 0.8 -0.1
v 1 0.8 -0.2
v 1 0.9 -0.2
v 1 0.9 -0.6
v 1 1 0
v 1 1 -0.1
v 1 1 -0.2
v 1 1 -0.7
v 1 1 -0.8
v 1 1.1 -0.1
v 1 1.1 -0.2
v 1 1.1 -0.6
v 1 1.1 -0.7
v 1 1.3 -0.1
v 1 1.3 -0.2
v 1 1.3 -0.6
v 1 1.3 -0.7
v 1 1.3 -0.8
v 1 1.5 0
v 1 1.5 -0.2
v 1 1.5 -0.6
v 1 1.5 -0.7
v 1.1 0.9 -0.2
v 1.1 0.9 -0.6
v 1.1 1.1 -0.1
v 1.1 1.1 -0.2
v 1.1 1.1 -0.6
v 1.1 1.1 -0.7
v 1.1 1.2 -0.2
v 1.1 1.2 -0.3
v 1.1 1.2 -0.5
v 1.1 1.2 -0.6
v 1.1 1.3 -0.1
v 1.1 1.3 -0.2
v 1.1 1.3 -0.3
v 1.1 1.3 -0.5
v 1.1 1.3 -0.6
v 1.1 1.3 -0.7
v 1.2 0.5 -0.3
v 1.2 0.5 -0.5
v 1.2 0.6 -0.2
v 1.2 0.6 -0.3
v 1.2 0.6 -0.5
v 1.2 0.6 -0.6
v 1.2 0.7 -0.3
v 1.2 0.7 -0.5
v 1.2 0.9 -0.2
v 1.2 0.9 -0.6
v 0.7 1.2 0
v 0.7 1.3 0
v 0.8 1 0
v 0.8 1.2 0
v 0.8 1.3 0
v 0.8 1.5 0
v 0.9 1.3 0
v 0.9 1.5 0
v 1 1 0
v 1 1.5 0
v 0.6 1 -0.1
v 0.6 1.3 -0.1
v 0.7 0.7 -0.1
v 0.7 1 -0.1
v 0.7 1.2 -0.1
v 0.7 1.3 -0.1
v 0.8 0.5 -0.1
v 0.8 0.6 -0.1
v 0.8 0.7 -0.1
v 0.8 1 -0.1
v 0.8 1.2 -0.1
v 0.9 0.5 -0.1
v 0.9 0.6 -0.1
v 0.9 0.7 -0.1
v 0.9 0.8 -0.1
v 0.9 1 -0.1
v 1 0.5 -0.1
v 1 0.6 -0.1
v 1 0.8 -0.1
v 1 1 -0.1
v 1 1.1 -0.1
v 1 1.3 -0.1
v 1.1 1.1 -0.1
v 1.1 1.3 -0.1
v 1 0.9 -0.2
v 1 1 -0.2
v 1 1.1 -0.2
v 1.1 0.6 -0.2
v 1.1 0.9 -0.2
v 1.1 1.1 -0.2
v 1.2 0.6 -0.2
v 1.2 0.9 -0.2
v 1.1 0.5 -0.3
v 1.1 0.6 -0.3
v 1.2 0.5 -0.3
v 1.2 0.6 -0.3
v 1 1.2 -0.5
v 1 1.3 -0.5
v 1.1 1.2 -0.5
v 1.1 1.3 -0.5
v 0.7 0.8 -0.6
v 0.7 1.1 -0.6
v 0.7 1.2 -0.6
v 0.7 1.3 -0.6
v 0.8 0.5 -0.6
v 0.8 0.8 -0.6
v 0.8 1.2 -0.6
v 0.9 0.5 -0.6
v 0.9 0.8 -0.6
v 0.9 1.3 -0.6
v 0.9 1.5 -0.6
v 1 0.5 -0.6
v 1 0.9 -0.6
v 1 1.2 -0.6
v 1 1.3 -0.6
v 1 1.5 -0.6
v 0.7 1.3 -0.7
v 0.7 1.4 -0.7
v 0.8 1.3 -0.7
v 0.8 1.4 -0.7
v 0.8 1.4 -0.1
v 0.8 1.5 -0.1
v 0.9 1.4 -0.1
v 0.9 1.5 -0.1
v 0.6 1 -0.2
v 0.6 1.1 -0.2
v 0.7 0.7 -0.2
v 0.7 1 -0.2
v 0.7 1.1 -0.2
v 0.7 1.2 -0.2
v 0.7 1.3 -0.2
v 0.8 0.5 -0.2
v 0.8 0.6 -0.2
v 0.8 0.7 -0.2
v 0.8 1.2 -0.2
v 0.8 1.3 -0.2
v 0.8 1.4 -0.2
v 0.9 0.5 -0.2
v 0.9 0.6 -0.2
v 0.9 0.7 -0.2
v 0.9 0.8 -0.2
v 0.9 1 -0.2
v 0.9 1.4 -0.2
v 0.9 1.5 -0.2
v 1 0.5 -0.2
v 1 0.6 -0.2
v 1 0.8 -0.2
v 1 0.9 -0.2
v 1 1 -0.2
v 1 1.2 -0.2
v 1 1.3 -0.2
v 1 1.5 -0.2
v 1 1.2 -0.3
v 1 1.3 -0.3
v 1.1 1.2 -0.3
v 1.1 1.3 -0.3
v 1.1 0.5 -0.5
v 1.1 0.6 -0.5
v 1.2 0.5 -0.5
v 1.2 0.6 -0.5
v 1 0.9 -0.6
v 1 1.1 -0.6
v 1.1 0.6 -0.6
v 1.1 0.9 -0.6
v 1.1 1.1 -0.6
v 1.2 0.6 -0.6
v 1.2 0.9 -0.6
v 0.6 1.1 -0.7
v 0.6 1.3 -0.7
v 0.7 0.8 -0.7
v 0.7 1.1 -0.7
v 0.7 1.2 -0.7
v 0.7 1.3 -0.7
v 0.8 0.5 -0.7
v 0.8 0.8 -0.7
v 0.8 1 -0.7
v 0.8 1.2 -0.7
v 0.9 0.5 -0.7
v 0.9 0.8 -0.7
v 0.9 1.3 -0.7
v 0.9 1.5 -0.7
v 1 0.5 -0.7
v 1 1 -0.7
v 1 1.1 -0.7
v 1 1.3 -0.7
v 1 1.5 -0.7
v 1.1 1.1 -0.7
v 1.1 1.3 -0.7
v 0.7 1.2 -0.8
v 0.7 1.4 -0.8
v 0.8 1 -0.8
v 0.8 1.2 -0.8
v 0.8 1.3 -0.8
v 0.8 1.4 -0.8
v 1 1 -0.8
v 1 1.3 -0.8
v 0.8 0.5 -0.1
v 0.9 0.5 -0.1
v 1 0.5 -0.1
v 0.8 0.5 -0.2
v 0.9 0.5 -0.2
v 1 0.5 -0.2
v 1.1 0.5 -0.3
v 1.2 0.5 -0.3
v 1.1 0.5 -0.5
v 1.2 0.5 -0.5
v 0.8 0.5 -0.6
v 0.9 0.5 -0.6
v 1 0.5 -0.6
v 0.8 0.5 -0.7
v 0.9 0.5 -0.7
v 1 0.5 -0.7
v 1.1 0.6 -0.2
v 1.2 0.6 -0.2
v 1.1 0.6 -0.3
v 1.2 0.6 -0.3
v 1.1 0.6 -0.5
v 1.2 0.6 -0.5
v 1.1 0.6 -0.6
v 1.2 0.6 -0.6
v 0.7 0.7 -0.1
v 0.8 0.7 -0.1
v 0.7 0.7 -0.2
v 0.8 0.7 -0.2
v 0.7 0.8 -0.6
v 0.8 0.8 -0.6
v 0.7 0.8 -0.7
v 0.8 0.8 -0.7
v 1 0.9 -0.2
v 1.1 0.9 -0.2
v 1 0.9 -0.6
v 1.1 0.9 -0.6
v 0.8 1 0
v 1 1 0
v 0.6 1 -0.1
v 0.7 1 -0.1
v 0.8 1 -0.1
v 0.9 1 -0.1
v 1 1 -0.1
v 0.6 1 -0.2
v 0.7 1 -0.2
v 0.8 1 -0.7
v 1 1 -0.7
v 0.8 1 -0.8
v 1 1 -0.8
v 1 1.1 -0.1
v 1.1 1.1 -0.1
v 0.6 1.1 -0.2
v 0.7 1.1 -0.2
v 1 1.1 -0.2
v 1.1 1.1 -0.2
v 0.7 1.1 -0.6
v 1 1.1 -0.6
v 1.1 1.1 -0.6
v 0.6 1.1 -0.7
v 0.7 1.1 -0.7
v 1 1.1 -0.7
v 1.1 1.1 -0.7
v 0.7 1.2 0
v 0.8 1.2 0
v 0.7 1.2 -0.1
v 0.8 1.2 -0.1
v 0.7 1.2 -0.7
v 0.8 1.2 -0.7
v 0.7 1.2 -0.8
v 0.8 1.2 -0.8
v 1.1 0.9 -0.2
v 1.2 0.9 -0.2
v 1.1 0.9 -0.6
v 1.2 0.9 -0.6
v 1 1.2 -0.3
v 1.1 1.2 -0.3
v 1 1.2 -0.5
v 1.1 1.2 -0.5
v 0.7 1.3 0
v 0.8 1.3 0
v 0.6 1.3 -0.1
v 0.7 1.3 -0.1
v 0.8 1.3 -0.1
v 1 1.3 -0.1
v 1.1 1.3 -0.1
v 0.6 1.3 -0.2
v 0.7 1.3 -0.2
v 0.8 1.3 -0.2
v 1 1.3 -0.2
v 1.1 1.3 -0.2
v 1 1.3 -0.3
v 1.1 1.3 -0.3
v 1 1.3 -0.5
v 1.1 1.3 -0.5
v 0.7 1.3 -0.6
v 0.9 1.3 -0.6
v 1 1.3 -0.6
v 1.1 1.3 -0.6
v 0.6 1.3 -0.7
v 0.7 1.3 -0.7
v 0.8 1.3 -0.7
v 0.9 1.3 -0.7
v 1 1.3 -0.7
v 1.1 1.3 -0.7
v 0.8 1.3 -0.8
v 1 1.3 -0.8
v 0.8 1.4 -0.1
v 0.9 1.4 -0.1
v 0.8 1.4 -0.2
v 0.9 1.4 -0.2
v 0.7 1.4 -0.7
v 0.8 1.4 -0.7
v 0.7 1.4 -0.8
v 0.8 1.4 -0.8
v 0.8 1.5 0
v 0.9 1.5 0
v 1 1.5 0
v 0.8 1.5 -0.1
v 0.9 1.5 -0.1
v 0.9 1.5 -0.2
v 1 1.5 -0.2
v 0.9 1.5 -0.6
v 1 1.5 -0.6
v 0.9 1.5 -0.7
v 1 1.5 -0.7

# faces
f 3/2/1 2/2/1 1/2/1
f 5/2/1 3/2/1 1/2/1
f 6/3/1 4/3/1 3/3/1
f 6/2/1 3/2/1 5/2/1
f 7/3/1 4/3/1 6/3/1
f 12/3/1 9/3/1 8/3/1
f 13/3/1 9/3/1 12/3/1
f 14/3/1 11/3/1 10/3/1
f 15/3/1 11/3/1 14/3/1
f 20/1/1 17/1/1 16/1/1
f 21/1/1 17/1/1 20/1/1
f 22/2/1 19/2/1 18/2/1
f 23/2/1 19/2/1 22/2/1
f 24/2/1 19/2/1 23/2/1
f 29/2/1 26/2/1 25/2/1
f 30/2/1 26/2/1 29/2/1
f 31/3/1 30/3/1 29/3/1
f 32/3/1 30/3/1 31/3/1
f 33/3/1 28/3/1 27/3/1
f 34/3/1 28/3/1 33/3/1
f 39/2/1 36/2/1 35/2/1
f 40/2/1 36/2/1 39/2/1
f 41/2/1 38/2/1 37/2/1
f 42/2/1 38/2/1 41/2/1
f 46/1/1 44/1/1 43/1/1
f 46/2/1 45/2/1 44/2/1
f 47/2/1 45/2/1 46/2/1
f 48/1/1 46/1/1 43/1/1
f 49/1/1 46/1/1 48/1/1
f 54/2/1 53/2/1 52/2/1
f 55/2/1 53/2/1 54/2/1
f 56/2/1 51/2/1 50/2/1
f 57/2/1 51/2/1 56/2/1
f 60/3/1 59/3/1 58/3/1
f 61/3/1 59/3/1 60/3/1
f 62/3/1 59/3/1 61/3/1
f 63/3/1 59/3/1 62/3/1
f 64/3/1 59/3/1 63/3/1
f 65/2/1 62/2/1 61/2/1
f 66/2/1 62/2/1 65/2/1
f 67/2/1 64/2/1 63/2/1
f 68/2/1 64/2/1 67/2/1
f 72/1/1 70/1/1 69/1/1
f 73/1/1 70/1/1 72/1/1
f 75/2/1 72/2/1 71/2/1
f 75/1/1 73/1/1 72/1/1
f 76/2/1 74/2/1 73/2/1
f 76/1/1 73/1/1 75/1/1
f 77/2/1 75/2/1 71/2/1
f 77/2/1 76/2/1 75/2/1
f 78/2/1 74/2/1 76/2/1
f 78/2/1 76/2/1 77/2/1
f 79/3/2 80/3/2 81/3/2
f 81/3/2 80/3/2 82/3/2
f 81/3/2 82/3/2 83/3/2
f 83/3/2 82/3/2 84/3/2
f 85/2/2 86/2/2 87/2/2
f 87/2/2 86/2/2 88/2/2
f 89/1/2 90/1/2 93/1/2
f 93/1/2 90/1/2 94/1/2
f 93/2/2 94/2/2 95/2/2
f 95/2/2 94/2/2 96/2/2
f 95/1/2 96/1/2 97/1/2
f 91/2/2 92/2/2 98/2/2
f 95/1/2 97/1/2 100/1/2
f 100/1/2 97/1/2 101/1/2
f 98/2/2 92/2/2 102/2/2
f 100/2/2 101/2/2 104/2/2
f 99/2/2 100/2/2 104/2/2
f 104/2/2 101/2/2 105/2/2
f 102/2/2 103/2/2 106/2/2
f 98/2/2 102/2/2 106/2/2
f 106/2/2 103/2/2 107/2/2
f 99/2/2 104/2/2 108/2/2
f 107/2/2 103/2/2 111/2/2
f 111/2/2 103/2/2 112/2/2
f 108/2/2 109/2/2 113/2/2
f 99/2/2 108/2/2 113/2/2
f 113/2/2 109/2/2 114/2/2
f 110/2/2 111/2/2 115/2/2
f 115/2/2 111/2/2 116/2/2
f 117/3/2 118/3/2 120/3/2
f 120/3/2 118/3/2 121/3/2
f 119/3/2 120/3/2 123/3/2
f 121/3/2 122/3/2 123/3/2
f 120/3/2 121/3/2 123/3/2
f 123/3/2 122/3/2 124/3/2
f 124/3/2 122/3/2 125/3/2
f 125/3/2 122/3/2 126/3/2
f 119/3/2 123/3/2 127/3/2
f 123/2/2 124/2/2 128/2/2
f 127/3/2 123/3/2 128/3/2
f 128/2/2 124/2/2 129/2/2
f 125/2/2 126/2/2 130/2/2
f 126/3/2 122/3/2 131/3/2
f 130/2/2 126/2/2 131/2/2
f 131/3/2 122/3/2 132/3/2
f 133/1/2 134/1/2 136/1/2
f 136/1/2 134/1/2 137/1/2
f 135/2/2 136/2/2 139/2/2
f 136/1/2 137/1/2 139/1/2
f 137/2/2 138/2/2 140/2/2
f 139/1/2 137/1/2 140/1/2
f 135/2/2 139/2/2 141/2/2
f 139/2/2 140/2/2 141/2/2
f 140/2/2 138/2/2 142/2/2
f 141/2/2 140/2/2 142/2/2
f 146/1/3 144/1/3 143/1/3
f 147/1/3 144/1/3 146/1/3
f 149/2/3 146/2/3 145/2/3
f 149/1/3 148/1/3 147/1/3
f 149/2/3 147/2/3 146/2/3
f 150/1/3 148/1/3 149/1/3
f 151/2/3 149/2/3 145/2/3
f 151/2/3 150/2/3 149/2/3
f 152/2/3 150/2/3 151/2/3
f 156/2/3 154/2/3 153/2/3
f 157/2/3 154/2/3 156/2/3
f 158/2/3 154/2/3 157/2/3
f 161/3/3 156/3/3 155/3/3
f 161/3/3 157/3/3 156/3/3
f 162/3/3 157/3/3 161/3/3
f 163/3/3 157/3/3 162/3/3
f 164/2/3 160/2/3 159/2/3
f 165/3/3 161/3/3 160/3/3
f 165/2/3 160/2/3 164/2/3
f 166/2/3 162/2/3 161/2/3
f 166/3/3 161/3/3 165/3/3
f 167/2/3 162/2/3 166/2/3
f 168/2/3 162/2/3 167/2/3
f 169/1/3 165/1/3 164/1/3
f 170/2/3 166/2/3 165/2/3
f 170/1/3 165/1/3 169/1/3
f 170/2/3 167/2/3 166/2/3
f 171/1/3 168/1/3 167/1/3
f 171/2/3 167/2/3 170/2/3
f 172/1/3 168/1/3 171/1/3
f 175/3/3 174/3/3 173/3/3
f 176/3/3 174/3/3 175/3/3
f 181/3/3 178/3/3 177/3/3
f 181/3/3 179/3/3 178/3/3
f 182/3/3 179/3/3 181/3/3
f 183/2/3 181/2/3 180/2/3
f 184/2/3 181/2/3 183/2/3
f 187/1/3 186/1/3 185/1/3
f 188/1/3 186/1/3 187/1/3
f 191/2/3 190/2/3 189/2/3
f 192/2/3 190/2/3 191/2/3
f 198/3/3 194/3/3 193/3/3
f 198/3/3 195/3/3 194/3/3
f 199/2/3 196/2/3 195/2/3
f 199/3/3 195/3/3 198/3/3
f 200/3/3 198/3/3 197/3/3
f 201/2/3 199/2/3 198/2/3
f 201/3/3 198/3/3 200/3/3
f 202/2/3 196/2/3 199/2/3
f 202/2/3 199/2/3 201/2/3
f 204/2/3 201/2/3 200/2/3
f 204/2/3 203/2/3 202/2/3
f 204/2/3 202/2/3 201/2/3
f 205/2/3 203/2/3 204/2/3
f 206/2/3 203/2/3 205/2/3
f 207/2/3 203/2/3 206/2/3
f 208/2/3 203/2/3 207/2/3
f 211/2/3 210/2/3 209/2/3
f 212/2/3 210/2/3 211/2/3
f 213/1/4 214/1/4 215/1/4
f 215/1/4 214/1/4 216/1/4
f 217/2/4 218/2/4 220/2/4
f 220/2/4 218/2/4 221/2/4
f 219/3/4 220/3/4 226/3/4
f 220/3/4 221/3/4 226/3/4
f 221/3/4 222/3/4 226/3/4
f 222/2/4 223/2/4 227/2/4
f 226/3/4 222/3/4 227/3/4
f 227/2/4 223/2/4 228/2/4
f 224/2/4 225/2/4 230/2/4
f 225/3/4 226/3/4 231/3/4
f 230/2/4 225/2/4 231/2/4
f 228/2/4 229/2/4 232/2/4
f 231/3/4 226/3/4 232/3/4
f 226/2/4 227/2/4 232/2/4
f 227/2/4 228/2/4 232/2/4
f 232/2/4 229/2/4 233/2/4
f 233/2/4 229/2/4 234/2/4
f 234/2/4 229/2/4 235/2/4
f 230/1/4 231/1/4 237/1/4
f 231/2/4 232/2/4 238/2/4
f 237/1/4 231/1/4 238/1/4
f 232/2/4 233/2/4 238/2/4
f 233/1/4 234/1/4 239/1/4
f 238/2/4 233/2/4 239/2/4
f 239/1/4 234/1/4 240/1/4
f 235/2/4 236/2/4 241/2/4
f 240/1/4 234/1/4 241/1/4
f 234/2/4 235/2/4 241/2/4
f 241/2/4 236/2/4 242/2/4
f 242/2/4 236/2/4 243/2/4
f 243/2/4 236/2/4 244/2/4
f 245/2/4 246/2/4 247/2/4
f 247/2/4 246/2/4 248/2/4
f 249/1/4 250/1/4 251/1/4
f 251/1/4 250/1/4 252/1/4
f 253/3/4 254/3/4 256/3/4
f 256/3/4 254/3/4 257/3/4
f 255/2/4 256/2/4 258/2/4
f 258/2/4 256/2/4 259/2/4
f 260/3/4 261/3/4 263/3/4
f 263/3/4 261/3/4 264/3/4
f 264/3/4 261/3/4 265/3/4
f 262/3/4 263/3/4 267/3/4
f 263/3/4 264/3/4 267/3/4
f 267/3/4 264/3/4 268/3/4
f 268/3/4 264/3/4 269/3/4
f 266/3/4 267/3/4 270/3/4
f 267/2/4 268/2/4 271/2/4
f 270/3/4 267/3/4 271/3/4
f 270/2/4 271/2/4 274/2/4
f 271/2/4 268/2/4 275/2/4
f 274/2/4 271/2/4 275/2/4
f 272/2/4 273/2/4 277/2/4
f 277/2/4 273/2/4 278/2/4
f 276/3/4 277/3/4 279/3/4
f 279/3/4 277/3/4 280/3/4
f 281/2/4 282/2/4 284/2/4
f 284/2/4 282/2/4 285/2/4
f 285/2/4 282/2/4 286/2/4
f 283/2/4 284/2/4 287/2/4
f 284/2/4 285/2/4 287/2/4
f 287/2/4 285/2/4 288/2/4
f 292/2/5 290/2/5 289/2/5
f 293/1/5 291/1/5 290/1/5
f 293/2/5 290/2/5 292/2/5
f 294/1/5 291/1/5 293/1/5
f 297/1/5 296/1/5 295/1/5
f 298/1/5 296/1/5 297/1/5
f 302/3/5 300/3/5 299/3/5
f 303/2/5 301/2/5 300/2/5
f 303/3/5 300/3/5 302/3/5
f 304/2/5 301/2/5 303/2/5
f 307/2/5 306/2/5 305/2/5
f 308/2/5 306/2/5 307/2/5
f 311/2/5 310/2/5 309/2/5
f 312/2/5 310/2/5 311/2/5
f 315/3/5 314/3/5 313/3/5
f 316/3/5 314/3/5 315/3/5
f 319/3/5 318/3/5 317/3/5
f 320/3/5 318/3/5 319/3/5
f 323/3/5 322/3/5 321/3/5
f 324/3/5 322/3/5 323/3/5
f 329/2/5 326/2/5 325/2/5
f 330/2/5 326/2/5 329/2/5
f 331/2/5 326/2/5 330/2/5
f 332/2/5 328/2/5 327/2/5
f 333/2/5 328/2/5 332/2/5
f 336/2/5 335/2/5 334/2/5
f 337/2/5 335/2/5 336/2/5
f 342/3/5 339/3/5 338/3/5
f 343/3/5 339/3/5 342/3/5
f 344/3/5 341/3/5 340/3/5
f 347/3/5 344/3/5 340/3/5
f 348/3/5 344/3/5 347/3/5
f 349/3/5 346/3/5 345/3/5
f 350/3/5 346/3/5 349/3/5
f 353/1/5 352/1/5 351/1/5
f 354/1/5 352/1/5 353/1/5
f 357/2/5 356/2/5 355/2/5
f 358/2/5 356/2/5 357/2/5
f 359/2/6 360/2/6 361/2/6
f 361/2/6 360/2/6 362/2/6
f 363/3/6 364/3/6 365/3/6
f 365/3/6 364/3/6 366/3/6
f 367/1/6 368/1/6 370/1/6
f 370/1/6 368/1/6 371/1/6
f 369/2/6 370/2/6 374/2/6
f 370/2/6 371/2/6 374/2/6
f 374/2/6 371/2/6 375/2/6
f 375/2/6 371/2/6 376/2/6
f 372/3/6 373/3/6 377/3/6
f 377/3/6 373/3/6 378/3/6
f 377/2/6 378/2/6 379/2/6
f 379/2/6 378/2/6 380/2/6
f 374/3/6 375/3/6 383/3/6
f 381/2/6 382/2/6 385/2/6
f 385/2/6 382/2/6 386/2/6
f 374/3/6 383/3/6 387/3/6
f 383/2/6 384/2/6 388/2/6
f 387/3/6 383/3/6 388/3/6
f 388/2/6 384/2/6 389/2/6
f 389/2/6 384/2/6 390/2/6
f 385/3/6 386/3/6 391/3/6
f 391/3/6 386/3/6 392/3/6
f 389/2/6 390/2/6 393/2/6
f 390/2/6 391/2/6 393/2/6
f 393/2/6 391/2/6 394/2/6
f 395/2/6 396/2/6 397/2/6
f 397/2/6 396/2/6 398/2/6
f 399/2/6 400/2/6 401/2/6
f 401/2/6 400/2/6 402/2/6
f 403/1/6 404/1/6 406/1/6
f 404/2/6 405/2/6 407/2/6
f 406/1/6 404/1/6 407/1/6
f 407/2/6 405/2/6 408/2/6
f 408/2/6 405/2/6 409/2/6
f 410/2/6 411/2/6 412/2/6
f 412/2/6 411/2/6 413/2/6
