# MagicaVoxel @ Ephtracy

# material
mtllib TronBelt2X.mtl
usemtl palette

# normals
vn -1 0 0
vn 1 0 0
vn 0 0 1
vn 0 0 -1
vn 0 -1 0
vn 0 1 0

# texcoords
vt 0.970703 0.5
vt 0.974609 0.5
vt 0.978516 0.5
vt 0.986328 0.5
vt 0.990234 0.5

# verts
v -6 46 8
v -6 46 2
v -6 46 -2
v -6 46 -8
v -6 47 7
v -6 47 4
v -6 47 3
v -6 47 -3
v -6 47 -4
v -6 47 -7
v -6 48 6
v -6 48 4
v -6 48 2
v -6 48 -2
v -6 48 -4
v -6 48 -6
v -6 49 7
v -6 49 6
v -6 49 3
v -6 49 1
v -6 49 -1
v -6 49 -3
v -6 49 -6
v -6 49 -7
v -6 50 8
v -6 50 4
v -6 50 3
v -6 50 1
v -6 50 -1
v -6 50 -3
v -6 50 -4
v -6 50 -8
v -6 51 2
v -6 51 -2
v -6 52 4
v -6 52 3
v -6 52 2
v -6 52 -2
v -6 52 -3
v -6 52 -4
v -4 46 10
v -4 46 8
v -4 46 2
v -4 46 -2
v -4 46 -8
v -4 46 -10
v -4 48 2
v -4 48 -2
v -4 50 10
v -4 50 8
v -4 50 4
v -4 50 -4
v -4 50 -8
v -4 50 -10
v -4 52 8
v -4 52 4
v -4 52 -4
v -4 52 -8
v 4 46 10
v 4 46 8
v 4 46 2
v 4 46 -2
v 4 46 -8
v 4 46 -10
v 4 48 2
v 4 48 -2
v 4 50 10
v 4 50 8
v 4 50 5
v 4 50 -5
v 4 50 -8
v 4 50 -10
v 4 51 5
v 4 51 2
v 4 51 -2
v 4 51 -5
v 4 52 8
v 4 52 2
v 4 52 -2
v 4 52 -8
v 6 46 8
v 6 46 2
v 6 46 -2
v 6 46 -8
v 6 47 7
v 6 47 3
v 6 47 -3
v 6 47 -7
v 6 48 6
v 6 48 3
v 6 48 2
v 6 48 -2
v 6 48 -3
v 6 48 -6
v 6 49 7
v 6 49 6
v 6 49 4
v 6 49 3
v 6 49 1
v 6 49 -1
v 6 49 -3
v 6 49 -4
v 6 49 -6
v 6 49 -7
v 6 50 8
v 6 50 5
v 6 50 4
v 6 50 1
v 6 50 -1
v 6 50 -4
v 6 50 -5
v 6 50 -8
v 6 51 5
v 6 51 2
v 6 51 -2
v 6 51 -5
v 6 52 2
v 6 52 1
v 6 52 -1
v 6 52 -2
v -4 46 10
v -4 50 10
v -3 47 10
v -3 49 10
v -2 48 10
v -2 49 10
v 2 47 10
v 2 48 10
v 3 47 10
v 3 49 10
v 4 46 10
v 4 50 10
v -6 46 8
v -6 50 8
v -4 46 8
v -4 50 8
v -4 52 8
v 4 46 8
v 4 50 8
v 4 52 8
v 6 46 8
v 6 50 8
v 4 50 5
v 4 51 5
v 6 50 5
v 6 51 5
v -6 50 4
v -6 52 4
v -4 50 4
v -4 52 4
v 4 51 2
v 4 52 2
v 6 51 2
v 6 52 2
v -6 46 -2
v -6 48 -2
v -4 46 -2
v -4 48 -2
v 4 46 -2
v 4 48 -2
v 6 46 -2
v 6 48 -2
v -6 46 2
v -6 48 2
v -4 46 2
v -4 48 2
v 4 46 2
v 4 48 2
v 6 46 2
v 6 48 2
v 4 51 -2
v 4 52 -2
v 6 51 -2
v 6 52 -2
v -6 50 -4
v -6 52 -4
v -4 50 -4
v -4 52 -4
v 4 50 -5
v 4 51 -5
v 6 50 -5
v 6 51 -5
v -6 46 -8
v -6 50 -8
v -4 46 -8
v -4 50 -8
v -4 52 -8
v 4 46 -8
v 4 50 -8
v 4 52 -8
v 6 46 -8
v 6 50 -8
v -4 46 -10
v -4 50 -10
v -3 47 -10
v -3 49 -10
v -2 48 -10
v -2 49 -10
v 2 47 -10
v 2 48 -10
v 3 47 -10
v 3 49 -10
v 4 46 -10
v 4 50 -10
v -4 46 10
v 4 46 10
v -6 46 8
v -4 46 8
v 4 46 8
v 6 46 8
v -6 46 2
v -4 46 2
v 4 46 2
v 6 46 2
v -6 46 -2
v -4 46 -2
v 4 46 -2
v 6 46 -2
v -6 46 -8
v -4 46 -8
v 4 46 -8
v 6 46 -8
v -4 46 -10
v 4 46 -10
v -6 48 2
v -4 48 2
v 4 48 2
v 6 48 2
v -6 48 -2
v -4 48 -2
v 4 48 -2
v 6 48 -2
v -4 50 10
v 4 50 10
v -6 50 8
v -4 50 8
v 4 50 8
v 6 50 8
v 4 50 5
v 6 50 5
v -6 50 4
v -4 50 4
v -6 50 -4
v -4 50 -4
v 4 50 -5
v 6 50 -5
v -6 50 -8
v -4 50 -8
v 4 50 -8
v 6 50 -8
v -4 50 -10
v 4 50 -10
v 4 51 5
v 6 51 5
v 4 51 2
v 6 51 2
v 4 51 -2
v 6 51 -2
v 4 51 -5
v 6 51 -5
v -4 52 8
v 4 52 8
v -6 52 4
v -4 52 4
v -6 52 3
v -4 52 3
v -6 52 2
v -4 52 2
v 4 52 2
v 6 52 2
v 4 52 1
v 6 52 1
v 4 52 -1
v 6 52 -1
v -6 52 -2
v -4 52 -2
v 4 52 -2
v 6 52 -2
v -6 52 -3
v -4 52 -3
v -6 52 -4
v -4 52 -4
v -4 52 -8
v 4 52 -8

# faces
f 5/2/1 2/2/1 1/2/1
f 6/2/1 2/2/1 5/2/1
f 7/2/1 2/2/1 6/2/1
f 8/2/1 4/2/1 3/2/1
f 9/2/1 4/2/1 8/2/1
f 10/2/1 4/2/1 9/2/1
f 11/4/1 6/4/1 5/4/1
f 12/3/1 7/3/1 6/3/1
f 12/4/1 6/4/1 11/4/1
f 13/2/1 2/2/1 7/2/1
f 14/2/1 8/2/1 3/2/1
f 15/3/1 9/3/1 8/3/1
f 15/4/1 10/4/1 9/4/1
f 16/4/1 10/4/1 15/4/1
f 17/2/1 5/2/1 1/2/1
f 17/4/1 11/4/1 5/4/1
f 18/3/1 12/3/1 11/3/1
f 18/4/1 11/4/1 17/4/1
f 19/3/1 7/3/1 12/3/1
f 19/3/1 12/3/1 18/3/1
f 19/2/1 13/2/1 7/2/1
f 19/2/1 14/2/1 13/2/1
f 20/2/1 14/2/1 19/2/1
f 21/2/1 14/2/1 20/2/1
f 22/3/1 16/3/1 15/3/1
f 22/2/1 14/2/1 21/2/1
f 22/3/1 15/3/1 8/3/1
f 22/2/1 8/2/1 14/2/1
f 23/4/1 10/4/1 16/4/1
f 23/3/1 16/3/1 22/3/1
f 24/2/1 4/2/1 10/2/1
f 24/4/1 10/4/1 23/4/1
f 25/2/1 18/2/1 17/2/1
f 25/2/1 20/2/1 19/2/1
f 25/2/1 19/2/1 18/2/1
f 25/2/1 17/2/1 1/2/1
f 26/2/1 20/2/1 25/2/1
f 27/2/1 20/2/1 26/2/1
f 28/3/1 21/3/1 20/3/1
f 28/2/1 20/2/1 27/2/1
f 29/2/1 22/2/1 21/2/1
f 29/3/1 21/3/1 28/3/1
f 29/2/1 23/2/1 22/2/1
f 29/2/1 24/2/1 23/2/1
f 30/2/1 24/2/1 29/2/1
f 31/2/1 24/2/1 30/2/1
f 32/2/1 4/2/1 24/2/1
f 32/2/1 24/2/1 31/2/1
f 33/3/1 28/3/1 27/3/1
f 33/3/1 30/3/1 29/3/1
f 33/3/1 29/3/1 28/3/1
f 34/3/1 30/3/1 33/3/1
f 35/2/1 27/2/1 26/2/1
f 36/3/1 33/3/1 27/3/1
f 36/2/1 27/2/1 35/2/1
f 37/2/1 34/2/1 33/2/1
f 37/3/1 33/3/1 36/3/1
f 38/3/1 30/3/1 34/3/1
f 38/2/1 34/2/1 37/2/1
f 39/2/1 31/2/1 30/2/1
f 39/3/1 30/3/1 38/3/1
f 40/2/1 31/2/1 39/2/1
f 47/1/1 44/1/1 43/1/1
f 48/1/1 44/1/1 47/1/1
f 49/2/1 42/2/1 41/2/1
f 50/2/1 42/2/1 49/2/1
f 53/2/1 46/2/1 45/2/1
f 54/2/1 46/2/1 53/2/1
f 55/1/1 51/1/1 50/1/1
f 56/1/1 51/1/1 55/1/1
f 57/1/1 53/1/1 52/1/1
f 58/1/1 53/1/1 57/1/1
f 61/1/2 62/1/2 65/1/2
f 65/1/2 62/1/2 66/1/2
f 59/2/2 60/2/2 67/2/2
f 67/2/2 60/2/2 68/2/2
f 63/2/2 64/2/2 71/2/2
f 71/2/2 64/2/2 72/2/2
f 68/1/2 69/1/2 73/1/2
f 70/1/2 71/1/2 76/1/2
f 73/1/2 74/1/2 77/1/2
f 68/1/2 73/1/2 77/1/2
f 77/1/2 74/1/2 78/1/2
f 75/1/2 76/1/2 79/1/2
f 76/1/2 71/1/2 80/1/2
f 79/1/2 76/1/2 80/1/2
f 81/2/2 82/2/2 85/2/2
f 85/2/2 82/2/2 86/2/2
f 83/2/2 84/2/2 87/2/2
f 87/2/2 84/2/2 88/2/2
f 85/5/2 86/5/2 89/5/2
f 86/2/2 82/2/2 90/2/2
f 89/5/2 86/5/2 90/5/2
f 90/2/2 82/2/2 91/2/2
f 83/2/2 87/2/2 92/2/2
f 87/5/2 88/5/2 93/5/2
f 92/2/2 87/2/2 93/2/2
f 93/5/2 88/5/2 94/5/2
f 85/5/2 89/5/2 95/5/2
f 81/2/2 85/2/2 95/2/2
f 89/4/2 90/4/2 96/4/2
f 95/5/2 89/5/2 96/5/2
f 96/4/2 90/4/2 97/4/2
f 90/2/2 91/2/2 98/2/2
f 97/4/2 90/4/2 98/4/2
f 91/2/2 92/2/2 98/2/2
f 92/2/2 93/2/2 98/2/2
f 98/2/2 93/2/2 99/2/2
f 99/2/2 93/2/2 100/2/2
f 93/4/2 94/4/2 101/4/2
f 100/2/2 93/2/2 101/2/2
f 101/4/2 94/4/2 102/4/2
f 94/5/2 88/5/2 103/5/2
f 102/4/2 94/4/2 103/4/2
f 88/2/2 84/2/2 104/2/2
f 103/5/2 88/5/2 104/5/2
f 96/2/2 97/2/2 105/2/2
f 95/2/2 96/2/2 105/2/2
f 81/2/2 95/2/2 105/2/2
f 105/2/2 97/2/2 106/2/2
f 97/4/2 98/4/2 107/4/2
f 106/2/2 97/2/2 107/2/2
f 98/4/2 99/4/2 107/4/2
f 99/3/2 100/3/2 108/3/2
f 107/4/2 99/4/2 108/4/2
f 101/4/2 102/4/2 109/4/2
f 108/3/2 100/3/2 109/3/2
f 100/4/2 101/4/2 109/4/2
f 102/2/2 103/2/2 110/2/2
f 109/4/2 102/4/2 110/4/2
f 103/2/2 104/2/2 110/2/2
f 110/2/2 104/2/2 111/2/2
f 104/2/2 84/2/2 112/2/2
f 111/2/2 104/2/2 112/2/2
f 107/2/2 108/2/2 113/2/2
f 106/2/2 107/2/2 113/2/2
f 113/2/2 108/2/2 114/2/2
f 109/2/2 110/2/2 115/2/2
f 110/2/2 111/2/2 115/2/2
f 115/2/2 111/2/2 116/2/2
f 114/2/2 108/2/2 117/2/2
f 108/3/2 109/3/2 118/3/2
f 117/2/2 108/2/2 118/2/2
f 109/2/2 115/2/2 119/2/2
f 118/3/2 109/3/2 119/3/2
f 119/2/2 115/2/2 120/2/2
f 123/2/3 122/2/3 121/2/3
f 124/2/3 122/2/3 123/2/3
f 125/4/3 124/4/3 123/4/3
f 126/2/3 122/2/3 124/2/3
f 126/4/3 124/4/3 125/4/3
f 127/2/3 123/2/3 121/2/3
f 127/4/3 125/4/3 123/4/3
f 128/3/3 126/3/3 125/3/3
f 128/4/3 125/4/3 127/4/3
f 129/2/3 127/2/3 121/2/3
f 129/3/3 128/3/3 127/3/3
f 130/2/3 122/2/3 126/2/3
f 130/3/3 128/3/3 129/3/3
f 130/3/3 126/3/3 128/3/3
f 131/2/3 129/2/3 121/2/3
f 131/2/3 130/2/3 129/2/3
f 132/2/3 122/2/3 130/2/3
f 132/2/3 130/2/3 131/2/3
f 135/2/3 134/2/3 133/2/3
f 136/2/3 134/2/3 135/2/3
f 139/1/3 137/1/3 136/1/3
f 140/1/3 137/1/3 139/1/3
f 141/2/3 139/2/3 138/2/3
f 142/2/3 139/2/3 141/2/3
f 145/2/3 144/2/3 143/2/3
f 146/2/3 144/2/3 145/2/3
f 149/2/3 148/2/3 147/2/3
f 150/2/3 148/2/3 149/2/3
f 153/2/3 152/2/3 151/2/3
f 154/2/3 152/2/3 153/2/3
f 157/2/3 156/2/3 155/2/3
f 158/2/3 156/2/3 157/2/3
f 161/2/3 160/2/3 159/2/3
f 162/2/3 160/2/3 161/2/3
f 163/2/4 164/2/4 165/2/4
f 165/2/4 164/2/4 166/2/4
f 167/2/4 168/2/4 169/2/4
f 169/2/4 168/2/4 170/2/4
f 171/2/4 172/2/4 173/2/4
f 173/2/4 172/2/4 174/2/4
f 175/2/4 176/2/4 177/2/4
f 177/2/4 176/2/4 178/2/4
f 179/2/4 180/2/4 181/2/4
f 181/2/4 180/2/4 182/2/4
f 183/2/4 184/2/4 185/2/4
f 185/2/4 184/2/4 186/2/4
f 186/1/4 187/1/4 189/1/4
f 189/1/4 187/1/4 190/1/4
f 188/2/4 189/2/4 191/2/4
f 191/2/4 189/2/4 192/2/4
f 193/2/4 194/2/4 195/2/4
f 195/2/4 194/2/4 196/2/4
f 195/4/4 196/4/4 197/4/4
f 196/2/4 194/2/4 198/2/4
f 197/4/4 196/4/4 198/4/4
f 193/2/4 195/2/4 199/2/4
f 195/4/4 197/4/4 199/4/4
f 197/3/4 198/3/4 200/3/4
f 199/4/4 197/4/4 200/4/4
f 193/2/4 199/2/4 201/2/4
f 199/3/4 200/3/4 201/3/4
f 198/2/4 194/2/4 202/2/4
f 201/3/4 200/3/4 202/3/4
f 200/3/4 198/3/4 202/3/4
f 193/2/4 201/2/4 203/2/4
f 201/2/4 202/2/4 203/2/4
f 202/2/4 194/2/4 204/2/4
f 203/2/4 202/2/4 204/2/4
f 208/2/5 206/2/5 205/2/5
f 209/2/5 206/2/5 208/2/5
f 211/2/5 208/2/5 207/2/5
f 212/1/5 209/1/5 208/1/5
f 212/2/5 208/2/5 211/2/5
f 213/2/5 210/2/5 209/2/5
f 213/1/5 209/1/5 212/1/5
f 214/2/5 210/2/5 213/2/5
f 216/1/5 213/1/5 212/1/5
f 217/1/5 213/1/5 216/1/5
f 219/2/5 216/2/5 215/2/5
f 220/1/5 217/1/5 216/1/5
f 220/2/5 216/2/5 219/2/5
f 221/2/5 218/2/5 217/2/5
f 221/1/5 217/1/5 220/1/5
f 222/2/5 218/2/5 221/2/5
f 223/2/5 221/2/5 220/2/5
f 224/2/5 221/2/5 223/2/5
f 229/2/5 226/2/5 225/2/5
f 230/2/5 226/2/5 229/2/5
f 231/2/5 228/2/5 227/2/5
f 232/2/5 228/2/5 231/2/5
f 233/2/6 234/2/6 236/2/6
f 236/2/6 234/2/6 237/2/6
f 237/2/6 238/2/6 239/2/6
f 239/2/6 238/2/6 240/2/6
f 235/2/6 236/2/6 241/2/6
f 241/2/6 236/2/6 242/2/6
f 243/2/6 244/2/6 247/2/6
f 247/2/6 244/2/6 248/2/6
f 245/2/6 246/2/6 249/2/6
f 249/2/6 246/2/6 250/2/6
f 248/2/6 249/2/6 251/2/6
f 251/2/6 249/2/6 252/2/6
f 253/2/6 254/2/6 255/2/6
f 255/2/6 254/2/6 256/2/6
f 257/2/6 258/2/6 259/2/6
f 259/2/6 258/2/6 260/2/6
f 261/1/6 262/1/6 264/1/6
f 263/2/6 264/2/6 265/2/6
f 264/1/6 262/1/6 266/1/6
f 265/2/6 264/2/6 266/2/6
f 265/3/6 266/3/6 267/3/6
f 266/1/6 262/1/6 268/1/6
f 267/3/6 266/3/6 268/3/6
f 268/1/6 262/1/6 269/1/6
f 268/1/6 269/1/6 271/1/6
f 269/2/6 270/2/6 271/2/6
f 271/2/6 270/2/6 272/2/6
f 268/1/6 271/1/6 273/1/6
f 271/3/6 272/3/6 273/3/6
f 273/3/6 272/3/6 274/3/6
f 267/2/6 268/2/6 275/2/6
f 268/1/6 273/1/6 276/1/6
f 275/2/6 268/2/6 276/2/6
f 273/2/6 274/2/6 277/2/6
f 276/1/6 273/1/6 277/1/6
f 277/2/6 274/2/6 278/2/6
f 275/3/6 276/3/6 279/3/6
f 276/1/6 277/1/6 280/1/6
f 279/3/6 276/3/6 280/3/6
f 279/2/6 280/2/6 281/2/6
f 280/1/6 277/1/6 282/1/6
f 281/2/6 280/2/6 282/2/6
f 282/1/6 277/1/6 283/1/6
f 283/1/6 277/1/6 284/1/6
