# MagicaVoxel @ Ephtracy

# material
mtllib TronLeftLeg2X.mtl
usemtl palette

# normals
vn -1 0 0
vn 1 0 0
vn 0 0 1
vn 0 0 -1
vn 0 -1 0
vn 0 1 0

# texcoords
vt 0.943359 0.5
vt 0.947266 0.5
vt 0.970703 0.5
vt 0.974609 0.5
vt 0.978516 0.5
vt 0.986328 0.5
vt 0.990234 0.5

# verts
v -5 28 -4
v -5 28 -13
v -5 30 -4
v -5 30 -13
v -5 34 -4
v -5 34 -13
v -5 36 -4
v -5 36 -13
v -4 24 -4
v -4 24 -12
v -4 25 -5
v -4 25 -7
v -4 25 -10
v -4 25 -11
v -4 26 -6
v -4 26 -7
v -4 26 -9
v -4 26 -10
v -4 27 -5
v -4 27 -6
v -4 27 -9
v -4 27 -10
v -4 28 -4
v -4 28 -10
v -4 28 -11
v -4 28 -12
v -4 30 -4
v -4 30 -12
v -4 31 -4
v -4 31 -5
v -4 31 -6
v -4 31 -9
v -4 32 -4
v -4 32 -5
v -4 32 -7
v -4 32 -9
v -4 32 -10
v -4 32 -12
v -4 33 -6
v -4 33 -7
v -4 33 -10
v -4 33 -12
v -4 34 -4
v -4 34 -12
v -4 36 -4
v -4 36 -12
v -4 37 -6
v -4 37 -8
v -4 37 -10
v -4 37 -12
v -4 38 -8
v -4 38 -9
v -4 38 -11
v -4 38 -12
v -4 39 -6
v -4 39 -9
v -4 39 -10
v -4 39 -11
v -4 40 -4
v -4 40 -12
v 4 24 -4
v 4 24 -12
v 4 26 -4
v 4 26 -12
v 4 38 -4
v 4 38 -12
v 4 40 -4
v 4 40 -12
v 5 26 -4
v 5 26 -12
v 5 27 -5
v 5 27 -7
v 5 27 -11
v 5 28 -6
v 5 28 -7
v 5 28 -8
v 5 28 -10
v 5 28 -12
v 5 28 -13
v 5 29 -6
v 5 29 -7
v 5 30 -6
v 5 30 -8
v 5 30 -10
v 5 30 -12
v 5 30 -13
v 5 31 -9
v 5 31 -10
v 5 31 -11
v 5 32 -7
v 5 32 -8
v 5 32 -9
v 5 33 -5
v 5 33 -6
v 5 33 -8
v 5 33 -9
v 5 34 -7
v 5 34 -9
v 5 34 -12
v 5 34 -13
v 5 35 -6
v 5 35 -7
v 5 36 -6
v 5 36 -7
v 5 36 -9
v 5 36 -10
v 5 36 -12
v 5 36 -13
v 5 37 -5
v 5 37 -9
v 5 37 -11
v 5 38 -4
v 5 38 -12
v -5 28 -4
v -5 30 -4
v -5 34 -4
v -5 36 -4
v -4 24 -4
v -4 28 -4
v -4 30 -4
v -4 31 -4
v -4 32 -4
v -4 34 -4
v -4 36 -4
v -4 40 -4
v -3 24 -4
v -3 27 -4
v -3 31 -4
v -3 32 -4
v -3 37 -4
v -3 40 -4
v -2 24 -4
v -2 26 -4
v -2 27 -4
v -2 37 -4
v -2 39 -4
v -2 40 -4
v -1 25 -4
v -1 26 -4
v -1 27 -4
v -1 28 -4
v -1 35 -4
v -1 37 -4
v 0 30 -4
v 0 32 -4
v 0 35 -4
v 0 38 -4
v 0 39 -4
v 0 40 -4
v 1 25 -4
v 1 28 -4
v 1 38 -4
v 1 40 -4
v 2 24 -4
v 2 27 -4
v 2 30 -4
v 2 32 -4
v 2 37 -4
v 2 40 -4
v 3 24 -4
v 3 27 -4
v 3 37 -4
v 3 40 -4
v 4 24 -4
v 4 26 -4
v 4 38 -4
v 4 40 -4
v 5 26 -4
v 5 38 -4
v -4 24 -12
v -4 28 -12
v -4 30 -12
v -4 32 -12
v -4 33 -12
v -4 34 -12
v -4 36 -12
v -4 37 -12
v -4 38 -12
v -4 40 -12
v -3 24 -12
v -3 28 -12
v -3 30 -12
v -3 32 -12
v -3 33 -12
v -3 34 -12
v -3 36 -12
v -3 37 -12
v -3 38 -12
v -3 40 -12
v -2 24 -12
v -2 28 -12
v -2 30 -12
v -2 32 -12
v -2 33 -12
v -2 34 -12
v -2 36 -12
v -2 37 -12
v -2 38 -12
v -2 40 -12
v -1 30 -12
v -1 32 -12
v 0 30 -12
v 0 31 -12
v 0 32 -12
v 0 33 -12
v 1 31 -12
v 1 32 -12
v 1 37 -12
v 1 38 -12
v 2 24 -12
v 2 28 -12
v 2 30 -12
v 2 34 -12
v 2 36 -12
v 2 40 -12
v 3 24 -12
v 3 28 -12
v 3 30 -12
v 3 34 -12
v 3 36 -12
v 3 40 -12
v 4 24 -12
v 4 26 -12
v 4 28 -12
v 4 30 -12
v 4 34 -12
v 4 36 -12
v 4 38 -12
v 4 40 -12
v 5 26 -12
v 5 28 -12
v 5 30 -12
v 5 34 -12
v 5 36 -12
v 5 38 -12
v -5 28 -13
v -5 30 -13
v -5 34 -13
v -5 36 -13
v 5 28 -13
v 5 30 -13
v 5 34 -13
v 5 36 -13
v -4 24 -4
v -3 24 -4
v -2 24 -4
v 2 24 -4
v 3 24 -4
v 4 24 -4
v -4 24 -12
v -3 24 -12
v -2 24 -12
v 2 24 -12
v 3 24 -12
v 4 24 -12
v 4 26 -4
v 5 26 -4
v 4 26 -12
v 5 26 -12
v -5 28 -4
v -4 28 -4
v -4 28 -10
v -4 28 -11
v -4 28 -12
v -3 28 -12
v -2 28 -12
v 2 28 -12
v 3 28 -12
v 4 28 -12
v 5 28 -12
v -5 28 -13
v 5 28 -13
v -5 34 -4
v -4 34 -4
v -4 34 -12
v -3 34 -12
v -2 34 -12
v 2 34 -12
v 3 34 -12
v 4 34 -12
v 5 34 -12
v -5 34 -13
v 5 34 -13
v -5 30 -4
v -4 30 -4
v -4 30 -12
v -3 30 -12
v -2 30 -12
v -1 30 -12
v 0 30 -12
v 2 30 -12
v 3 30 -12
v 4 30 -12
v 5 30 -12
v -5 30 -13
v 5 30 -13
v -5 36 -4
v -4 36 -4
v -4 36 -12
v -3 36 -12
v -2 36 -12
v 2 36 -12
v 3 36 -12
v 4 36 -12
v 5 36 -12
v -5 36 -13
v 5 36 -13
v 4 38 -4
v 5 38 -4
v 4 38 -12
v 5 38 -12
v -4 40 -4
v -3 40 -4
v -2 40 -4
v 0 40 -4
v 1 40 -4
v 2 40 -4
v 3 40 -4
v 4 40 -4
v 0 40 -5
v 1 40 -5
v -4 40 -12
v -3 40 -12
v -2 40 -12
v 2 40 -12
v 3 40 -12
v 4 40 -12

# faces
f 3/4/1 2/4/1 1/4/1
f 4/4/1 2/4/1 3/4/1
f 7/4/1 6/4/1 5/4/1
f 8/4/1 6/4/1 7/4/1
f 11/3/1 10/3/1 9/3/1
f 12/3/1 10/3/1 11/3/1
f 13/3/1 10/3/1 12/3/1
f 14/3/1 10/3/1 13/3/1
f 15/2/1 12/2/1 11/2/1
f 16/3/1 13/3/1 12/3/1
f 16/2/1 12/2/1 15/2/1
f 17/3/1 13/3/1 16/3/1
f 18/2/1 14/2/1 13/2/1
f 18/3/1 13/3/1 17/3/1
f 19/3/1 11/3/1 9/3/1
f 19/2/1 15/2/1 11/2/1
f 20/3/1 17/3/1 16/3/1
f 20/2/1 15/2/1 19/2/1
f 20/3/1 16/3/1 15/3/1
f 21/2/1 18/2/1 17/2/1
f 21/3/1 17/3/1 20/3/1
f 22/2/1 14/2/1 18/2/1
f 22/2/1 18/2/1 21/2/1
f 23/3/1 21/3/1 20/3/1
f 23/3/1 20/3/1 19/3/1
f 23/3/1 22/3/1 21/3/1
f 23/3/1 19/3/1 9/3/1
f 24/2/1 14/2/1 22/2/1
f 24/3/1 22/3/1 23/3/1
f 25/3/1 10/3/1 14/3/1
f 25/2/1 14/2/1 24/2/1
f 26/3/1 10/3/1 25/3/1
f 29/3/1 28/3/1 27/3/1
f 30/3/1 28/3/1 29/3/1
f 31/3/1 28/3/1 30/3/1
f 32/3/1 28/3/1 31/3/1
f 33/2/1 30/2/1 29/2/1
f 34/3/1 31/3/1 30/3/1
f 34/2/1 30/2/1 33/2/1
f 35/2/1 32/2/1 31/2/1
f 36/3/1 28/3/1 32/3/1
f 36/2/1 32/2/1 35/2/1
f 37/3/1 28/3/1 36/3/1
f 38/3/1 28/3/1 37/3/1
f 39/2/1 35/2/1 31/2/1
f 39/3/1 31/3/1 34/3/1
f 39/3/1 34/3/1 33/3/1
f 40/3/1 37/3/1 36/3/1
f 40/2/1 35/2/1 39/2/1
f 40/3/1 36/3/1 35/3/1
f 41/2/1 38/2/1 37/2/1
f 41/3/1 37/3/1 40/3/1
f 42/2/1 38/2/1 41/2/1
f 43/3/1 40/3/1 39/3/1
f 43/3/1 39/3/1 33/3/1
f 43/3/1 42/3/1 41/3/1
f 43/3/1 41/3/1 40/3/1
f 44/3/1 42/3/1 43/3/1
f 47/3/1 46/3/1 45/3/1
f 48/3/1 46/3/1 47/3/1
f 49/3/1 46/3/1 48/3/1
f 50/3/1 46/3/1 49/3/1
f 51/2/1 48/2/1 47/2/1
f 51/3/1 49/3/1 48/3/1
f 52/3/1 49/3/1 51/3/1
f 53/2/1 50/2/1 49/2/1
f 54/2/1 50/2/1 53/2/1
f 55/3/1 47/3/1 45/3/1
f 55/2/1 51/2/1 47/2/1
f 55/2/1 52/2/1 51/2/1
f 56/3/1 49/3/1 52/3/1
f 56/2/1 52/2/1 55/2/1
f 57/2/1 53/2/1 49/2/1
f 57/3/1 49/3/1 56/3/1
f 58/3/1 54/3/1 53/3/1
f 58/2/1 53/2/1 57/2/1
f 59/3/1 55/3/1 45/3/1
f 59/3/1 57/3/1 56/3/1
f 59/3/1 58/3/1 57/3/1
f 59/3/1 56/3/1 55/3/1
f 60/3/1 54/3/1 58/3/1
f 60/3/1 58/3/1 59/3/1
f 61/3/2 62/3/2 63/3/2
f 63/3/2 62/3/2 64/3/2
f 65/3/2 66/3/2 67/3/2
f 67/3/2 66/3/2 68/3/2
f 69/4/2 70/4/2 71/4/2
f 71/4/2 70/4/2 72/4/2
f 72/4/2 70/4/2 73/4/2
f 71/6/2 72/6/2 74/6/2
f 72/5/2 73/5/2 75/5/2
f 74/6/2 72/6/2 75/6/2
f 75/5/2 73/5/2 76/5/2
f 76/5/2 73/5/2 77/5/2
f 73/4/2 70/4/2 78/4/2
f 71/6/2 74/6/2 80/6/2
f 74/4/2 75/4/2 80/4/2
f 75/1/2 76/1/2 81/1/2
f 80/4/2 75/4/2 81/4/2
f 71/6/2 80/6/2 82/6/2
f 80/1/2 81/1/2 82/1/2
f 81/1/2 76/1/2 83/1/2
f 82/1/2 81/1/2 83/1/2
f 76/4/2 77/4/2 83/4/2
f 77/5/2 73/5/2 84/5/2
f 83/4/2 77/4/2 84/4/2
f 78/4/2 79/4/2 85/4/2
f 73/4/2 78/4/2 85/4/2
f 85/4/2 79/4/2 86/4/2
f 83/1/2 84/1/2 87/1/2
f 84/5/2 73/5/2 88/5/2
f 87/1/2 84/1/2 88/1/2
f 73/4/2 85/4/2 89/4/2
f 88/5/2 73/5/2 89/5/2
f 82/4/2 83/4/2 90/4/2
f 83/1/2 87/1/2 91/1/2
f 90/4/2 83/4/2 91/4/2
f 87/4/2 88/4/2 92/4/2
f 91/1/2 87/1/2 92/1/2
f 69/4/2 71/4/2 93/4/2
f 71/6/2 82/6/2 93/6/2
f 82/4/2 90/4/2 94/4/2
f 93/6/2 82/6/2 94/6/2
f 91/4/2 92/4/2 95/4/2
f 90/1/2 91/1/2 95/1/2
f 92/4/2 88/4/2 96/4/2
f 95/4/2 92/4/2 96/4/2
f 90/1/2 95/1/2 97/1/2
f 94/4/2 90/4/2 97/4/2
f 95/1/2 96/1/2 97/1/2
f 96/4/2 88/4/2 98/4/2
f 97/1/2 96/1/2 98/1/2
f 89/4/2 85/4/2 99/4/2
f 94/4/2 97/4/2 101/4/2
f 93/7/2 94/7/2 101/7/2
f 97/4/2 98/4/2 101/4/2
f 101/4/2 98/4/2 102/4/2
f 93/7/2 101/7/2 103/7/2
f 101/1/2 102/1/2 103/1/2
f 102/4/2 98/4/2 104/4/2
f 103/1/2 102/1/2 104/1/2
f 98/4/2 88/4/2 105/4/2
f 104/4/2 98/4/2 105/4/2
f 88/6/2 89/6/2 106/6/2
f 105/4/2 88/4/2 106/4/2
f 99/4/2 100/4/2 107/4/2
f 89/4/2 99/4/2 107/4/2
f 107/4/2 100/4/2 108/4/2
f 103/7/2 104/7/2 109/7/2
f 69/4/2 93/4/2 109/4/2
f 104/7/2 105/7/2 109/7/2
f 93/7/2 103/7/2 109/7/2
f 105/6/2 106/6/2 110/6/2
f 109/7/2 105/7/2 110/7/2
f 106/6/2 89/6/2 111/6/2
f 110/6/2 106/6/2 111/6/2
f 89/4/2 107/4/2 111/4/2
f 109/4/2 110/4/2 112/4/2
f 69/4/2 109/4/2 112/4/2
f 110/4/2 111/4/2 112/4/2
f 111/4/2 107/4/2 113/4/2
f 112/4/2 111/4/2 113/4/2
f 119/4/3 115/4/3 114/4/3
f 120/4/3 115/4/3 119/4/3
f 123/4/3 117/4/3 116/4/3
f 124/4/3 117/4/3 123/4/3
f 126/3/3 119/3/3 118/3/3
f 126/3/3 120/3/3 119/3/3
f 126/3/3 121/3/3 120/3/3
f 127/3/3 121/3/3 126/3/3
f 128/2/3 122/2/3 121/2/3
f 128/3/3 121/3/3 127/3/3
f 129/3/3 125/3/3 124/3/3
f 129/2/3 122/2/3 128/2/3
f 129/3/3 124/3/3 123/3/3
f 129/3/3 123/3/3 122/3/3
f 130/3/3 125/3/3 129/3/3
f 131/3/3 125/3/3 130/3/3
f 132/5/3 127/5/3 126/5/3
f 133/5/3 127/5/3 132/5/3
f 134/6/3 128/6/3 127/6/3
f 134/5/3 127/5/3 133/5/3
f 134/6/3 129/6/3 128/6/3
f 134/6/3 130/6/3 129/6/3
f 135/5/3 131/5/3 130/5/3
f 135/6/3 130/6/3 134/6/3
f 136/5/3 131/5/3 135/5/3
f 137/5/3 131/5/3 136/5/3
f 138/3/3 133/3/3 132/3/3
f 139/2/3 134/2/3 133/2/3
f 139/3/3 133/3/3 138/3/3
f 140/3/3 135/3/3 134/3/3
f 140/2/3 134/2/3 139/2/3
f 141/3/3 135/3/3 140/3/3
f 142/3/3 135/3/3 141/3/3
f 143/2/3 136/2/3 135/2/3
f 143/3/3 135/3/3 142/3/3
f 144/3/3 142/3/3 141/3/3
f 145/3/3 142/3/3 144/3/3
f 146/2/3 143/2/3 142/2/3
f 146/3/3 142/3/3 145/3/3
f 147/2/3 136/2/3 143/2/3
f 147/2/3 143/2/3 146/2/3
f 148/3/3 137/3/3 136/3/3
f 148/2/3 136/2/3 147/2/3
f 149/3/3 137/3/3 148/3/3
f 150/3/3 138/3/3 132/3/3
f 150/2/3 139/2/3 138/2/3
f 150/2/3 140/2/3 139/2/3
f 150/2/3 141/2/3 140/2/3
f 151/3/3 144/3/3 141/3/3
f 151/2/3 141/2/3 150/2/3
f 152/2/3 149/2/3 148/2/3
f 152/3/3 146/3/3 145/3/3
f 152/3/3 147/3/3 146/3/3
f 152/2/3 148/2/3 147/2/3
f 153/2/3 149/2/3 152/2/3
f 154/3/3 151/3/3 150/3/3
f 154/3/3 150/3/3 132/3/3
f 155/3/3 151/3/3 154/3/3
f 156/3/3 144/3/3 151/3/3
f 156/3/3 151/3/3 155/3/3
f 156/2/3 145/2/3 144/2/3
f 157/3/3 153/3/3 152/3/3
f 157/2/3 145/2/3 156/2/3
f 157/3/3 152/3/3 145/3/3
f 158/3/3 153/3/3 157/3/3
f 159/3/3 153/3/3 158/3/3
f 160/5/3 155/5/3 154/5/3
f 161/6/3 156/6/3 155/6/3
f 161/5/3 155/5/3 160/5/3
f 161/6/3 157/6/3 156/6/3
f 161/6/3 158/6/3 157/6/3
f 162/5/3 159/5/3 158/5/3
f 162/6/3 158/6/3 161/6/3
f 163/5/3 159/5/3 162/5/3
f 164/3/3 161/3/3 160/3/3
f 164/3/3 162/3/3 161/3/3
f 164/3/3 163/3/3 162/3/3
f 165/3/3 163/3/3 164/3/3
f 166/3/3 163/3/3 165/3/3
f 167/3/3 163/3/3 166/3/3
f 168/4/3 166/4/3 165/4/3
f 169/4/3 166/4/3 168/4/3
f 170/3/4 171/3/4 180/3/4
f 180/3/4 171/3/4 181/3/4
f 172/3/4 173/3/4 182/3/4
f 173/2/4 174/2/4 183/2/4
f 182/3/4 173/3/4 183/3/4
f 174/3/4 175/3/4 184/3/4
f 183/2/4 174/2/4 184/2/4
f 184/3/4 175/3/4 185/3/4
f 176/3/4 177/3/4 186/3/4
f 177/2/4 178/2/4 187/2/4
f 186/3/4 177/3/4 187/3/4
f 178/3/4 179/3/4 188/3/4
f 187/2/4 178/2/4 188/2/4
f 188/3/4 179/3/4 189/3/4
f 180/5/4 181/5/4 190/5/4
f 190/5/4 181/5/4 191/5/4
f 182/6/4 183/6/4 192/6/4
f 184/6/4 185/6/4 192/6/4
f 183/6/4 184/6/4 192/6/4
f 192/6/4 185/6/4 193/6/4
f 193/6/4 185/6/4 194/6/4
f 194/6/4 185/6/4 195/6/4
f 186/5/4 187/5/4 196/5/4
f 188/5/4 189/5/4 196/5/4
f 187/5/4 188/5/4 196/5/4
f 196/5/4 189/5/4 197/5/4
f 197/5/4 189/5/4 198/5/4
f 198/5/4 189/5/4 199/5/4
f 192/3/4 193/3/4 200/3/4
f 193/2/4 194/2/4 201/2/4
f 200/3/4 193/3/4 201/3/4
f 200/2/4 201/2/4 202/2/4
f 202/2/4 201/2/4 203/2/4
f 201/2/4 194/2/4 204/2/4
f 203/2/4 201/2/4 204/2/4
f 194/3/4 195/3/4 205/3/4
f 204/2/4 194/2/4 205/2/4
f 203/2/4 204/2/4 206/2/4
f 202/3/4 203/3/4 206/3/4
f 204/3/4 205/3/4 207/3/4
f 206/2/4 204/2/4 207/2/4
f 196/3/4 197/3/4 208/3/4
f 197/2/4 198/2/4 208/2/4
f 198/3/4 199/3/4 209/3/4
f 208/2/4 198/2/4 209/2/4
f 190/3/4 191/3/4 210/3/4
f 210/3/4 191/3/4 211/3/4
f 206/3/4 207/3/4 212/3/4
f 202/3/4 206/3/4 212/3/4
f 205/3/4 195/3/4 213/3/4
f 212/3/4 207/3/4 213/3/4
f 207/3/4 205/3/4 213/3/4
f 208/3/4 209/3/4 214/3/4
f 196/3/4 208/3/4 214/3/4
f 209/3/4 199/3/4 215/3/4
f 214/3/4 209/3/4 215/3/4
f 210/5/4 211/5/4 216/5/4
f 216/5/4 211/5/4 217/5/4
f 212/6/4 213/6/4 218/6/4
f 218/6/4 213/6/4 219/6/4
f 214/5/4 215/5/4 220/5/4
f 220/5/4 215/5/4 221/5/4
f 216/3/4 217/3/4 222/3/4
f 222/3/4 217/3/4 223/3/4
f 223/3/4 217/3/4 224/3/4
f 218/3/4 219/3/4 225/3/4
f 225/3/4 219/3/4 226/3/4
f 220/3/4 221/3/4 227/3/4
f 227/3/4 221/3/4 228/3/4
f 228/3/4 221/3/4 229/3/4
f 223/4/4 224/4/4 230/4/4
f 230/4/4 224/4/4 231/4/4
f 225/4/4 226/4/4 232/4/4
f 232/4/4 226/4/4 233/4/4
f 227/4/4 228/4/4 234/4/4
f 234/4/4 228/4/4 235/4/4
f 236/4/4 237/4/4 240/4/4
f 240/4/4 237/4/4 241/4/4
f 238/4/4 239/4/4 242/4/4
f 242/4/4 239/4/4 243/4/4
f 250/3/5 245/3/5 244/3/5
f 251/5/5 246/5/5 245/5/5
f 251/3/5 245/3/5 250/3/5
f 252/3/5 247/3/5 246/3/5
f 252/5/5 246/5/5 251/5/5
f 253/5/5 248/5/5 247/5/5
f 253/3/5 247/3/5 252/3/5
f 254/3/5 249/3/5 248/3/5
f 254/5/5 248/5/5 253/5/5
f 255/3/5 249/3/5 254/3/5
f 258/4/5 257/4/5 256/4/5
f 259/4/5 257/4/5 258/4/5
f 262/4/5 261/4/5 260/4/5
f 263/4/5 262/4/5 260/4/5
f 264/4/5 263/4/5 260/4/5
f 271/4/5 264/4/5 260/4/5
f 271/4/5 270/4/5 269/4/5
f 271/4/5 269/4/5 268/4/5
f 271/4/5 268/4/5 267/4/5
f 271/4/5 267/4/5 266/4/5
f 271/4/5 266/4/5 265/4/5
f 271/4/5 265/4/5 264/4/5
f 272/4/5 270/4/5 271/4/5
f 275/4/5 274/4/5 273/4/5
f 282/4/5 275/4/5 273/4/5
f 282/4/5 281/4/5 280/4/5
f 282/4/5 280/4/5 279/4/5
f 282/4/5 279/4/5 278/4/5
f 282/4/5 278/4/5 277/4/5
f 282/4/5 277/4/5 276/4/5
f 282/4/5 276/4/5 275/4/5
f 283/4/5 281/4/5 282/4/5
f 284/4/6 285/4/6 286/4/6
f 284/4/6 286/4/6 295/4/6
f 293/4/6 294/4/6 295/4/6
f 292/4/6 293/4/6 295/4/6
f 291/4/6 292/4/6 295/4/6
f 290/4/6 291/4/6 295/4/6
f 289/4/6 290/4/6 295/4/6
f 288/4/6 289/4/6 295/4/6
f 287/4/6 288/4/6 295/4/6
f 286/4/6 287/4/6 295/4/6
f 295/4/6 294/4/6 296/4/6
f 297/4/6 298/4/6 299/4/6
f 297/4/6 299/4/6 306/4/6
f 304/4/6 305/4/6 306/4/6
f 303/4/6 304/4/6 306/4/6
f 302/4/6 303/4/6 306/4/6
f 301/4/6 302/4/6 306/4/6
f 300/4/6 301/4/6 306/4/6
f 299/4/6 300/4/6 306/4/6
f 306/4/6 305/4/6 307/4/6
f 308/4/6 309/4/6 310/4/6
f 310/4/6 309/4/6 311/4/6
f 314/3/6 315/3/6 320/3/6
f 315/2/6 316/2/6 320/2/6
f 316/3/6 317/3/6 321/3/6
f 320/2/6 316/2/6 321/2/6
f 312/3/6 313/3/6 322/3/6
f 313/5/6 314/5/6 323/5/6
f 322/3/6 313/3/6 323/3/6
f 314/3/6 320/3/6 324/3/6
f 323/5/6 314/5/6 324/5/6
f 320/3/6 321/3/6 324/3/6
f 321/3/6 317/3/6 325/3/6
f 324/3/6 321/3/6 325/3/6
f 317/5/6 318/5/6 325/5/6
f 318/3/6 319/3/6 326/3/6
f 325/5/6 318/5/6 326/5/6
f 326/3/6 319/3/6 327/3/6
